<?xml version="1.0" encoding="utf-8"?>
<!-- Generator: Adobe Illustrator 24.2.1, SVG Export Plug-In . SVG Version: 6.00 Build 0)  -->
<svg version="1.1" id="Layer_1" xmlns="http://www.w3.org/2000/svg" xmlns:xlink="http://www.w3.org/1999/xlink" x="0px" y="0px"
	 viewBox="0 0 2272.05 2000" style="enable-background:new 0 0 2272.05 2000;" xml:space="preserve">
<style type="text/css">
	.st0{fill:#FFFFFF;}
	.st1{fill:#C8C7D6;}
	.st2{clip-path:url(#SVGID_2_);}
	.st3{fill:#91C7F5;}
	.st4{fill:#3C58A3;}
	.st5{fill:#0086F5;}
	.st6{fill:#3BA1F5;}
	.st7{fill:#D8170E;}
	.st8{opacity:0.54;fill:url(#SVGID_3_);}
	.st9{fill:#1F3050;}
	.st10{fill:#FFAB00;}
	.st11{fill:#E76A53;}
	.st12{fill:#0A4F59;}
	.st13{fill:#073B43;}
	.st14{fill:#0D5965;}
	.st15{fill:#FFA283;}
	.st16{opacity:0.68;fill:#FF7F4C;}
	.st17{fill:#03257D;}
	.st18{fill:#FF5136;}
	.st19{fill:#D43421;}
	.st20{fill:#09434C;}
	.st21{fill:#0099A0;}
</style>
<g>
	<rect x="0" y="0" class="st0" width="2272.05" height="2000"/>
	<g>
		<path class="st1" d="M1993.43,1835.95H338.22c-14.99,0-27.14-12.15-27.14-27.14l0,0c0-8.38,6.8-15.18,15.18-15.18h1667.18
			c8.38,0,15.18,6.8,15.18,15.18v11.96C2008.61,1829.16,2001.82,1835.95,1993.43,1835.95z"/>
		<g>
			<g>
				<g>
					<defs>
						<path id="SVGID_1_" d="M1194.55,259.86C632.93,367.61,396.61,499.45,352.72,949.99c-32,328.49-389.91,808.37,325.88,768.56
							c883.02-49.11,833.14-190.69,1152.99-532.89C2201.21,790.21,2119.06,82.5,1194.55,259.86z"/>
					</defs>
					<clipPath id="SVGID_2_">
						<use xlink:href="#SVGID_1_"  style="overflow:visible;"/>
					</clipPath>
					<g class="st2">
						<rect x="178.4" y="82.5" class="st3" width="2032.31" height="1694.63"/>
						<rect x="178.4" y="571.18" class="st0" width="2032.31" height="47.35"/>
						<rect x="178.4" y="571.18" class="st4" width="2032.31" height="17.6"/>
						<rect x="178.4" y="1069.31" class="st0" width="2032.31" height="47.34"/>
						<rect x="178.4" y="1069.31" class="st4" width="2032.31" height="17.6"/>
						<rect x="178.4" y="1558.1" class="st0" width="2032.31" height="47.03"/>
						<rect x="178.4" y="1558.1" class="st4" width="2032.31" height="17.6"/>
						<g>
							<rect x="1416.08" y="1185.66" class="st5" width="199.29" height="186.22"/>
							<rect x="1416.08" y="1200.26" class="st6" width="199.29" height="12.98"/>
							<path class="st6" d="M1606.11,1185.66c2.68,11.38,4.22,23.38,4.11,35.79c-1.01,111.18-48.8,150.42-109,150.42
								c-34.45,0-85.14,0-85.14,0h199.29v-186.22H1606.11z"/>
						</g>
						<g>
							<rect x="1416.08" y="1371.88" class="st5" width="199.29" height="186.22"/>
							<rect x="1416.08" y="1386.48" class="st6" width="199.29" height="12.98"/>
							<path class="st6" d="M1606.11,1371.88c2.68,11.38,4.22,23.38,4.11,35.79c-1.01,111.18-48.8,150.42-109,150.42
								c-34.45,0-85.14,0-85.14,0h199.29v-186.22H1606.11z"/>
						</g>
						<g>
							<rect x="1615.37" y="1185.66" class="st5" width="199.29" height="186.22"/>
							<rect x="1615.37" y="1200.26" class="st6" width="199.29" height="12.98"/>
							<path class="st6" d="M1805.4,1185.66c2.68,11.38,4.22,23.38,4.11,35.79c-1.01,111.18-48.8,150.42-109,150.42
								c-34.45,0-85.14,0-85.14,0h199.29v-186.22H1805.4z"/>
						</g>
						<g>
							<rect x="1615.37" y="1371.88" class="st5" width="199.29" height="186.22"/>
							<rect x="1615.37" y="1386.48" class="st6" width="199.29" height="12.98"/>
							<path class="st6" d="M1805.4,1371.88c2.68,11.38,4.22,23.38,4.11,35.79c-1.01,111.18-48.8,150.42-109,150.42
								c-34.45,0-85.14,0-85.14,0h199.29v-186.22H1805.4z"/>
						</g>
						<g>
							<rect x="1814.67" y="1185.66" class="st5" width="199.29" height="186.22"/>
							<rect x="1814.67" y="1200.26" class="st6" width="199.29" height="12.98"/>
							<path class="st6" d="M2004.7,1185.66c2.68,11.38,4.22,23.38,4.11,35.79c-1.01,111.18-48.8,150.42-109,150.42
								c-34.45,0-85.14,0-85.14,0h199.29v-186.22H2004.7z"/>
						</g>
						<g>
							<rect x="1814.67" y="1371.88" class="st5" width="199.29" height="186.22"/>
							<rect x="1814.67" y="1386.48" class="st6" width="199.29" height="12.98"/>
							<path class="st6" d="M2004.7,1371.88c2.68,11.38,4.22,23.38,4.11,35.79c-1.01,111.18-48.8,150.42-109,150.42
								c-34.45,0-85.14,0-85.14,0h199.29v-186.22H2004.7z"/>
						</g>
						<g>
							<rect x="1711.16" y="1575.7" class="st7" width="60.62" height="29.55"/>
						</g>
						<g>
							<rect x="1554.91" y="1086.91" class="st7" width="60.62" height="29.55"/>
						</g>
						<g>
							<rect x="1943.93" y="1086.91" class="st7" width="60.62" height="29.55"/>
						</g>
						<path class="st5" d="M693.79,941.78c-0.27-0.49-0.55-0.96-0.86-1.42c-1.24-1.83-2.82-3.42-4.65-4.65
							c-2.75-1.86-6.07-2.94-9.63-2.94h1.21v-9.13c0-1.13-0.92-2.05-2.05-2.05h-4.92h-23.4h-30.49c9.52,0,17.23-7.71,17.23-17.23
							v-9.59v-74.27v-18.23c0-9.52-7.71-17.23-17.23-17.23h1.21v-9.13c0-1.13-0.92-2.05-2.05-2.05h-4.92h-23.4h-43.22h-6.71
							c-1.13,0-2.05,0.92-2.05,2.05v9.13h1.21c-9.52,0-17.23,7.71-17.23,17.23c0-9.52-7.71-17.23-17.23-17.23h1.21v-9.13
							c0-1.13-0.92-2.05-2.05-2.05h-4.92h-23.4h-43.22h-6.71c-1.13,0-2.05,0.92-2.05,2.05v9.13h1.21c-9.52,0-17.23,7.71-17.23,17.23
							c0-9.52-7.71-17.23-17.23-17.23h1.21v-9.13c0-1.13-0.92-2.05-2.05-2.05h-4.92h-23.4h-43.22h-6.71c-1.13,0-2.05,0.92-2.05,2.05
							v9.13h1.21c-9.52,0-17.23,7.71-17.23,17.23v18.23v57.45v16.82v9.59c0,3.57,1.08,6.88,2.94,9.63c1.24,1.83,2.82,3.42,4.65,4.65
							c0.46,0.31,0.93,0.6,1.42,0.86c0.98,0.53,2.01,0.97,3.09,1.31c1.62,0.5,3.34,0.77,5.12,0.77h-3.97h-43.22h-6.71
							c-1.13,0-2.05,0.92-2.05,2.05v9.13h1.21c-9.52,0-17.23,7.71-17.23,17.23v18.23v57.45v16.82v9.59c0,1.78,0.27,3.5,0.77,5.12
							c0.34,1.08,0.77,2.11,1.31,3.09c0.27,0.49,0.55,0.96,0.86,1.42c2.48,3.67,6.33,6.33,10.82,7.25c1.12,0.23,2.28,0.35,3.47,0.35
							h79.92c3.57,0,6.88-1.08,9.63-2.94c1.83-1.24,3.42-2.82,4.65-4.65c0.31-0.46,0.6-0.93,0.86-1.42
							c0.53-0.98,0.97-2.01,1.31-3.09c0.5-1.62,0.77-3.34,0.77-5.12c0,1.78,0.27,3.5,0.77,5.12c0.34,1.08,0.77,2.11,1.31,3.09
							c0.27,0.49,0.55,0.96,0.86,1.42c1.24,1.83,2.82,3.42,4.65,4.65c2.75,1.86,6.07,2.94,9.63,2.94h79.92
							c3.57,0,6.88-1.08,9.63-2.94c1.83-1.24,3.42-2.82,4.65-4.65c0.31-0.46,0.6-0.93,0.86-1.42c0.53-0.98,0.97-2.01,1.3-3.09
							c0.5-1.62,0.78-3.34,0.78-5.12c0,1.78,0.27,3.5,0.77,5.12c0.34,1.08,0.77,2.11,1.3,3.09c0.27,0.49,0.55,0.96,0.86,1.42
							c1.24,1.83,2.82,3.42,4.65,4.65c0.46,0.31,0.93,0.6,1.42,0.86c0.98,0.53,2.01,0.97,3.09,1.31c1.62,0.5,3.34,0.77,5.12,0.77
							h79.92c3.57,0,6.88-1.08,9.63-2.94c1.83-1.24,3.42-2.82,4.65-4.65c0.31-0.46,0.6-0.93,0.86-1.42c0.53-0.98,0.97-2.01,1.3-3.09
							c0.5-1.62,0.77-3.34,0.77-5.12c0,1.78,0.27,3.5,0.77,5.12c0.34,1.08,0.77,2.11,1.3,3.09c0.27,0.49,0.55,0.96,0.86,1.42
							c1.24,1.83,2.82,3.42,4.65,4.65c0.46,0.31,0.93,0.6,1.42,0.86c0.98,0.53,2.01,0.97,3.09,1.31c1.62,0.5,3.34,0.77,5.12,0.77
							h79.92c3.57,0,6.88-1.08,9.63-2.94c1.83-1.24,3.42-2.82,4.65-4.65c0.31-0.46,0.6-0.93,0.86-1.42c0.53-0.98,0.97-2.01,1.3-3.09
							c0.5-1.62,0.77-3.34,0.77-5.12v-9.59v-74.27v-18.23c0-1.78-0.27-3.51-0.77-5.12C694.75,943.79,694.32,942.75,693.79,941.78z
							 M334.65,921.58h36.14c-1.13,0-2.05,0.92-2.05,2.05v9.13h1.21c-9.52,0-17.23,7.71-17.23,17.23c0-1.78-0.27-3.51-0.77-5.12
							c-0.34-1.08-0.77-2.11-1.31-3.09c-0.27-0.49-0.55-0.96-0.86-1.42c-1.24-1.83-2.82-3.42-4.65-4.65
							c-2.75-1.86-6.07-2.94-9.63-2.94h1.21v-9.13C336.7,922.5,335.78,921.58,334.65,921.58z M597.5,923.63v9.13h1.21
							c-9.52,0-17.23,7.71-17.23,17.23c0-1.78-0.27-3.51-0.77-5.12c-0.33-1.08-0.77-2.11-1.3-3.09c-0.27-0.49-0.55-0.96-0.86-1.42
							c-1.24-1.83-2.82-3.42-4.65-4.65c-2.75-1.86-6.07-2.94-9.63-2.94h1.21v-9.13c0-1.13-0.92-2.05-2.05-2.05h36.14
							C598.42,921.58,597.5,922.5,597.5,923.63z M465.02,941.78c-0.27-0.49-0.55-0.96-0.86-1.42c-1.24-1.83-2.82-3.42-4.65-4.65
							c-2.75-1.86-6.07-2.94-9.63-2.94h1.21v-9.13c0-1.13-0.92-2.05-2.05-2.05h36.14c-1.13,0-2.05,0.92-2.05,2.05v9.13h1.21
							c-9.52,0-17.23,7.71-17.23,17.23c0-1.78-0.27-3.51-0.78-5.12C465.99,943.79,465.55,942.75,465.02,941.78z M420.72,921.58
							h-30.49c9.52,0,17.23-7.71,17.23-17.23c0,9.52,7.72,17.23,17.23,17.23H420.72z M535.1,921.58h-30.49
							c9.52,0,17.23-7.71,17.23-17.23c0,9.52,7.71,17.23,17.23,17.23H535.1z"/>
						<path class="st5" d="M1380.07,941.78c-0.26-0.49-0.55-0.96-0.86-1.42c-1.24-1.83-2.82-3.42-4.65-4.65
							c-2.75-1.86-6.07-2.94-9.63-2.94h1.21v-9.13c0-1.13-0.92-2.05-2.05-2.05h-4.92h-23.4h-30.49c9.52,0,17.23-7.71,17.23-17.23
							v-9.59v-74.27v-18.23c0-9.52-7.71-17.23-17.23-17.23h1.21v-9.13c0-1.13-0.92-2.05-2.05-2.05h-4.92h-23.4h-43.22h-6.71
							c-1.13,0-2.05,0.92-2.05,2.05v9.13h1.21c-9.52,0-17.23,7.71-17.23,17.23c0-9.52-7.71-17.23-17.23-17.23h1.21v-9.13
							c0-1.13-0.92-2.05-2.05-2.05h-4.92h-23.4h-43.22h-6.71c-1.13,0-2.05,0.92-2.05,2.05v9.13h1.21c-9.52,0-17.23,7.71-17.23,17.23
							c0-9.52-7.71-17.23-17.23-17.23h1.21v-9.13c0-1.13-0.92-2.05-2.05-2.05h-4.91h-23.4h-43.22h-6.71c-1.13,0-2.05,0.92-2.05,2.05
							v9.13h1.21c-9.52,0-17.23,7.71-17.23,17.23c0-9.52-7.71-17.23-17.23-17.23h1.21v-9.13c0-1.13-0.92-2.05-2.05-2.05h-4.92h-23.4
							h-43.22h-6.71c-1.13,0-2.05,0.92-2.05,2.05v9.13h1.21c-9.52,0-17.23,7.71-17.23,17.23v18.23v57.45v16.82v9.59
							c0,9.52,7.71,17.23,17.23,17.23h-3.97h-43.22h-6.71c-1.13,0-2.05,0.92-2.05,2.05v9.13h1.21c-9.52,0-17.23,7.71-17.23,17.23
							v18.23v57.45v16.82v9.59c0,1.78,0.27,3.5,0.78,5.12c0.34,1.08,0.77,2.11,1.3,3.09c0.27,0.49,0.55,0.96,0.86,1.42
							c1.24,1.83,2.82,3.42,4.65,4.65c2.75,1.86,6.07,2.94,9.63,2.94h79.92c3.57,0,6.88-1.08,9.63-2.94
							c1.83-1.24,3.42-2.82,4.65-4.65c0.31-0.46,0.6-0.93,0.86-1.42c0.53-0.98,0.97-2.01,1.31-3.09c0.5-1.62,0.77-3.34,0.77-5.12
							c0,1.78,0.27,3.5,0.77,5.12c0.34,1.08,0.77,2.11,1.31,3.09c0.27,0.49,0.55,0.96,0.86,1.42c1.24,1.83,2.82,3.42,4.65,4.65
							c0.46,0.31,0.93,0.6,1.42,0.86c0.98,0.53,2.01,0.97,3.09,1.31c1.62,0.5,3.34,0.77,5.12,0.77h79.92c3.57,0,6.88-1.08,9.63-2.94
							c1.83-1.24,3.42-2.82,4.65-4.65c0.31-0.46,0.6-0.93,0.86-1.42c0.53-0.98,0.97-2.01,1.3-3.09c0.5-1.62,0.77-3.34,0.77-5.12
							c0,1.78,0.27,3.5,0.77,5.12c0.34,1.08,0.77,2.11,1.31,3.09c0.27,0.49,0.55,0.96,0.86,1.42c1.24,1.83,2.82,3.42,4.65,4.65
							c0.46,0.31,0.93,0.6,1.42,0.86c0.98,0.53,2.01,0.97,3.09,1.31c1.62,0.5,3.34,0.77,5.12,0.77h79.92c3.57,0,6.88-1.08,9.63-2.94
							c1.83-1.24,3.42-2.82,4.65-4.65c0.31-0.46,0.6-0.93,0.86-1.42c0.53-0.98,0.97-2.01,1.3-3.09c0.5-1.62,0.77-3.34,0.77-5.12
							c0,1.78,0.27,3.5,0.77,5.12c0.34,1.08,0.78,2.11,1.31,3.09c0.26,0.49,0.55,0.96,0.86,1.42c1.24,1.83,2.82,3.42,4.65,4.65
							c2.75,1.86,6.07,2.94,9.63,2.94h79.92c3.57,0,6.88-1.08,9.63-2.94c1.83-1.24,3.42-2.82,4.65-4.65
							c0.31-0.46,0.6-0.93,0.86-1.42c0.53-0.98,0.97-2.01,1.31-3.09c0.5-1.62,0.77-3.34,0.77-5.12c0,1.78,0.27,3.5,0.77,5.12
							c0.34,1.08,0.78,2.11,1.31,3.09c0.26,0.49,0.55,0.96,0.86,1.42c1.24,1.83,2.82,3.42,4.66,4.65c2.75,1.86,6.07,2.94,9.63,2.94
							h79.92c3.57,0,6.88-1.08,9.63-2.94c1.83-1.24,3.42-2.82,4.65-4.65c0.31-0.46,0.6-0.93,0.86-1.42
							c0.53-0.98,0.97-2.01,1.31-3.09c0.5-1.62,0.77-3.34,0.77-5.12v-9.59v-74.27v-18.23c0-1.78-0.27-3.51-0.77-5.12
							C1381.04,943.79,1380.6,942.75,1380.07,941.78z M906.56,921.58h36.14c-1.13,0-2.05,0.92-2.05,2.05v9.13h1.21
							c-9.52,0-17.23,7.71-17.23,17.23c0-1.78-0.27-3.51-0.77-5.12c-0.34-1.08-0.77-2.11-1.31-3.09c-0.27-0.49-0.55-0.96-0.86-1.42
							c-1.24-1.83-2.82-3.42-4.65-4.65c-2.75-1.86-6.07-2.94-9.63-2.94h1.21v-9.13C908.61,922.5,907.69,921.58,906.56,921.58z
							 M1283.79,923.63v9.13h1.21c-9.52,0-17.23,7.71-17.23,17.23c0-1.78-0.27-3.51-0.77-5.12c-0.34-1.08-0.77-2.11-1.31-3.09
							c-0.26-0.49-0.55-0.96-0.86-1.42c-1.24-1.83-2.82-3.42-4.65-4.65c-2.75-1.86-6.07-2.94-9.63-2.94h1.21v-9.13
							c0-1.13-0.92-2.05-2.05-2.05h36.14C1284.71,921.58,1283.79,922.5,1283.79,923.63z M1151.31,941.78
							c-0.27-0.49-0.55-0.96-0.86-1.42c-1.24-1.83-2.82-3.42-4.65-4.65c-2.75-1.86-6.07-2.94-9.63-2.94h1.21v-9.13
							c0-1.13-0.92-2.05-2.05-2.05h36.14c-1.13,0-2.05,0.92-2.05,2.05v9.13h1.21c-9.52,0-17.23,7.71-17.23,17.23
							c0-1.78-0.27-3.51-0.77-5.12C1152.28,943.79,1151.84,942.75,1151.31,941.78z M1107,921.58h-30.49
							c9.52,0,17.23-7.71,17.23-17.23c0,3.57,1.08,6.88,2.94,9.63c1.24,1.83,2.82,3.42,4.65,4.65c0.46,0.31,0.93,0.6,1.42,0.86
							c0.98,0.53,2.01,0.97,3.09,1.31c1.62,0.5,3.34,0.77,5.12,0.77H1107z M1055.03,923.63v9.13h1.21
							c-9.52,0-17.23,7.71-17.23,17.23c0-1.78-0.27-3.5-0.77-5.12c-0.34-1.08-0.77-2.11-1.3-3.09c-0.27-0.49-0.55-0.96-0.86-1.42
							c-1.24-1.83-2.82-3.42-4.65-4.65c-2.75-1.86-6.07-2.94-9.63-2.94h1.21v-9.13c0-1.13-0.92-2.05-2.05-2.05h36.14
							C1055.95,921.58,1055.03,922.5,1055.03,923.63z M992.62,921.58h-30.49c9.52,0,17.23-7.71,17.23-17.23
							c0,3.57,1.08,6.88,2.94,9.63c1.24,1.83,2.82,3.42,4.65,4.65c0.46,0.31,0.93,0.6,1.42,0.86c0.98,0.53,2.01,0.97,3.09,1.31
							c1.62,0.5,3.34,0.77,5.12,0.77H992.62z M1221.38,921.58h-30.49c9.52,0,17.23-7.71,17.23-17.23c0,9.52,7.71,17.23,17.23,17.23
							H1221.38z"/>
						<path class="st5" d="M1756.01,944.87c-0.33-1.08-0.77-2.11-1.3-3.09c-0.27-0.49-0.55-0.96-0.86-1.42
							c-1.24-1.83-2.82-3.42-4.65-4.65c-2.75-1.86-6.07-2.94-9.63-2.94h1.21v-9.13c0-1.13-0.92-2.05-2.05-2.05h-4.92h-23.4h-30.49
							c9.52,0,17.23-7.71,17.23-17.23v-9.59v-74.27v-18.23c0-9.52-7.71-17.23-17.23-17.23h1.21v-9.13c0-1.13-0.92-2.05-2.05-2.05
							h-4.92h-23.4h-43.22h-6.71c-1.13,0-2.05,0.92-2.05,2.05v9.13h1.21c-9.52,0-17.23,7.71-17.23,17.23
							c0-9.52-7.71-17.23-17.23-17.23h1.21v-9.13c0-1.13-0.92-2.05-2.05-2.05h-4.92h-23.4h-43.22h-6.71c-1.13,0-2.05,0.92-2.05,2.05
							v9.13h1.21c-9.52,0-17.23,7.71-17.23,17.23v18.23v57.45v16.82v9.59c0,9.52,7.71,17.23,17.23,17.23h-3.97h-43.22h-6.71
							c-1.13,0-2.05,0.92-2.05,2.05v9.13h1.21c-9.52,0-17.23,7.71-17.23,17.23v18.23v57.45v16.82v9.59c0,1.78,0.27,3.5,0.77,5.12
							c0.34,1.08,0.78,2.11,1.31,3.09c0.26,0.49,0.55,0.96,0.86,1.42c1.24,1.83,2.82,3.42,4.65,4.65c2.75,1.86,6.07,2.94,9.63,2.94
							h79.92c3.57,0,6.88-1.08,9.63-2.94c1.83-1.24,3.42-2.82,4.65-4.65c0.31-0.46,0.6-0.93,0.86-1.42
							c0.53-0.98,0.97-2.01,1.31-3.09c0.5-1.62,0.77-3.34,0.77-5.12c0,1.78,0.27,3.5,0.77,5.12c0.34,1.08,0.77,2.11,1.3,3.09
							c0.27,0.49,0.55,0.96,0.86,1.42c1.24,1.83,2.82,3.42,4.65,4.65c0.46,0.31,0.93,0.6,1.42,0.86c0.98,0.53,2.01,0.97,3.09,1.31
							c1.62,0.5,3.34,0.77,5.12,0.77h79.92c3.57,0,6.88-1.08,9.63-2.94c1.83-1.24,3.42-2.82,4.65-4.65c0.31-0.46,0.6-0.93,0.86-1.42
							c0.53-0.98,0.97-2.01,1.31-3.09c0.5-1.62,0.77-3.34,0.77-5.12c0,1.78,0.27,3.5,0.77,5.12c0.34,1.08,0.77,2.11,1.3,3.09
							c0.27,0.49,0.55,0.96,0.86,1.42c1.24,1.83,2.82,3.42,4.65,4.65c2.75,1.86,6.07,2.94,9.63,2.94h79.92
							c3.57,0,6.88-1.08,9.63-2.94c1.83-1.24,3.42-2.82,4.65-4.65c0.31-0.46,0.6-0.93,0.86-1.42c0.53-0.98,0.97-2.01,1.3-3.09
							c0.5-1.62,0.78-3.34,0.78-5.12v-9.59v-74.27v-18.23C1756.79,948.2,1756.51,946.48,1756.01,944.87z M1509.95,921.58h36.14
							c-1.13,0-2.05,0.92-2.05,2.05v9.13h1.21c-9.52,0-17.23,7.71-17.23,17.23c0-1.78-0.27-3.51-0.77-5.12
							c-0.34-1.08-0.78-2.11-1.31-3.09c-0.26-0.49-0.55-0.96-0.86-1.42c-1.24-1.83-2.82-3.42-4.65-4.65
							c-2.75-1.86-6.07-2.94-9.63-2.94h1.21v-9.13C1512,922.5,1511.09,921.58,1509.95,921.58z M1658.43,923.63v9.13h1.21
							c-9.52,0-17.23,7.71-17.23,17.23c0-1.78-0.27-3.51-0.77-5.12c-0.34-1.08-0.78-2.11-1.31-3.09c-0.26-0.49-0.55-0.96-0.86-1.42
							c-1.24-1.83-2.82-3.42-4.65-4.65c-2.75-1.86-6.07-2.94-9.63-2.94h1.21v-9.13c0-1.13-0.92-2.05-2.05-2.05h36.14
							C1659.34,921.58,1658.43,922.5,1658.43,923.63z M1596.02,921.58h-30.49c9.52,0,17.23-7.71,17.23-17.23
							c0,3.57,1.08,6.88,2.94,9.63c1.24,1.83,2.82,3.42,4.65,4.65c0.46,0.31,0.93,0.6,1.42,0.86c0.98,0.53,2.01,0.97,3.09,1.31
							c1.62,0.5,3.34,0.77,5.12,0.77H1596.02z"/>
						<path class="st5" d="M2145.03,944.87c-0.34-1.08-0.77-2.11-1.31-3.09c-0.27-0.49-0.55-0.96-0.86-1.42
							c-1.24-1.83-2.82-3.42-4.65-4.65c-2.75-1.86-6.07-2.94-9.63-2.94h1.21v-9.13c0-1.13-0.92-2.05-2.05-2.05h-4.92h-23.4h-30.49
							c9.52,0,17.23-7.71,17.23-17.23v-9.59v-74.27v-18.23c0-9.52-7.71-17.23-17.23-17.23h1.21v-9.13c0-1.13-0.92-2.05-2.05-2.05
							h-4.92h-23.4h-43.22h-6.71c-1.13,0-2.05,0.92-2.05,2.05v9.13h1.21c-9.52,0-17.23,7.71-17.23,17.23
							c0-9.52-7.71-17.23-17.23-17.23h1.21v-9.13c0-1.13-0.92-2.05-2.05-2.05h-4.92h-23.4h-43.22h-6.71c-1.13,0-2.05,0.92-2.05,2.05
							v9.13h1.21c-9.52,0-17.23,7.71-17.23,17.23v18.23v57.45v16.82v9.59c0,9.52,7.71,17.23,17.23,17.23h-3.97h-43.22h-6.71
							c-1.13,0-2.05,0.92-2.05,2.05v9.13h1.21c-9.52,0-17.23,7.71-17.23,17.23v18.23v57.45v16.82v9.59c0,1.78,0.27,3.5,0.78,5.12
							c0.33,1.08,0.77,2.11,1.3,3.09c0.27,0.49,0.55,0.96,0.86,1.42c1.24,1.83,2.82,3.42,4.65,4.65c2.75,1.86,6.07,2.94,9.63,2.94
							h79.92c3.57,0,6.88-1.08,9.63-2.94c1.83-1.24,3.42-2.82,4.66-4.65c0.31-0.46,0.6-0.93,0.86-1.42
							c0.53-0.98,0.97-2.01,1.31-3.09c0.5-1.62,0.77-3.34,0.77-5.12c0,1.78,0.27,3.5,0.77,5.12c0.34,1.08,0.77,2.11,1.31,3.09
							c0.26,0.49,0.55,0.96,0.86,1.42c1.24,1.83,2.82,3.42,4.65,4.65c0.46,0.31,0.93,0.6,1.42,0.86c0.98,0.53,2.01,0.97,3.09,1.31
							c1.62,0.5,3.34,0.77,5.12,0.77h79.92c3.57,0,6.88-1.08,9.63-2.94c1.83-1.24,3.42-2.82,4.65-4.65c0.31-0.46,0.6-0.93,0.86-1.42
							c0.53-0.98,0.97-2.01,1.31-3.09c0.5-1.62,0.77-3.34,0.77-5.12c0,1.78,0.27,3.5,0.77,5.12c0.34,1.08,0.77,2.11,1.31,3.09
							c0.26,0.49,0.55,0.96,0.86,1.42c1.24,1.83,2.82,3.42,4.65,4.65c2.75,1.86,6.07,2.94,9.63,2.94h79.92
							c3.57,0,6.88-1.08,9.63-2.94c1.83-1.24,3.42-2.82,4.65-4.65c0.31-0.46,0.6-0.93,0.86-1.42c0.53-0.98,0.97-2.01,1.31-3.09
							c0.5-1.62,0.77-3.34,0.77-5.12v-9.59v-74.27v-18.23C2145.81,948.2,2145.54,946.48,2145.03,944.87z M1898.98,921.58h36.14
							c-1.13,0-2.05,0.92-2.05,2.05v9.13h1.21c-9.52,0-17.23,7.71-17.23,17.23c0-1.78-0.27-3.51-0.77-5.12
							c-0.34-1.08-0.77-2.11-1.31-3.09c-0.26-0.49-0.55-0.96-0.86-1.42c-1.24-1.83-2.82-3.42-4.66-4.65
							c-2.75-1.86-6.07-2.94-9.63-2.94h1.21v-9.13C1901.03,922.5,1900.11,921.58,1898.98,921.58z M2047.45,923.63v9.13h1.21
							c-9.52,0-17.23,7.71-17.23,17.23c0-1.78-0.27-3.51-0.77-5.12c-0.34-1.08-0.77-2.11-1.31-3.09c-0.26-0.49-0.55-0.96-0.86-1.42
							c-1.24-1.83-2.82-3.42-4.65-4.65c-2.75-1.86-6.07-2.94-9.63-2.94h1.21v-9.13c0-1.13-0.92-2.05-2.05-2.05h36.14
							C2048.37,921.58,2047.45,922.5,2047.45,923.63z M1985.04,921.58h-30.49c9.52,0,17.23-7.71,17.23-17.23
							c0,3.57,1.09,6.88,2.94,9.63c1.24,1.83,2.82,3.42,4.65,4.65c0.46,0.31,0.93,0.6,1.42,0.86c0.98,0.53,2.01,0.97,3.09,1.31
							c1.62,0.5,3.34,0.77,5.12,0.77H1985.04z"/>
						<g>
							<path class="st5" d="M1188.97,452.83h-7.88l0,0h-110.82c-0.8,0-1.44,0.64-1.44,1.44v1.28v5.63v0c0,0.2,0.04,0.39,0.11,0.56
								c0.18,0.43,0.57,0.75,1.04,0.85c0.09,0.02,0.19,0.03,0.29,0.03l0,0h5.3l15.02,49.39h78.06l15.02-49.39h5.3l0,0
								c0.3,0,0.58-0.09,0.8-0.25c0.23-0.16,0.41-0.38,0.52-0.63c0.07-0.17,0.11-0.36,0.11-0.56v0v-6.91v0
								C1190.41,453.47,1189.76,452.83,1188.97,452.83z"/>
							<path class="st5" d="M1188.97,512h-7.88l0,0h-110.82c-0.8,0-1.44,0.64-1.44,1.44v1.28v5.63l0,0c0,0.2,0.04,0.39,0.11,0.56
								c0.07,0.17,0.18,0.33,0.31,0.46c0.2,0.2,0.45,0.33,0.73,0.39c0.09,0.02,0.19,0.03,0.29,0.03l0,0h5.3l15.02,49.39h78.06
								l15.02-49.39h5.3l0,0c0.3,0,0.58-0.09,0.8-0.25c0.08-0.05,0.15-0.11,0.21-0.18c0.13-0.13,0.24-0.29,0.31-0.46
								c0.07-0.17,0.11-0.36,0.11-0.56l0,0v-6.91l0,0C1190.41,512.65,1189.76,512,1188.97,512z"/>
						</g>
						<g>
							<path class="st5" d="M1310.54,452.83h-7.88l0,0h-110.82c-0.79,0-1.44,0.64-1.44,1.44v1.28v5.63v0c0,0.2,0.04,0.39,0.11,0.56
								c0.22,0.52,0.73,0.88,1.33,0.88h5.3l15.02,49.39h78.06l15.02-49.39h5.3l0,0c0.3,0,0.58-0.09,0.8-0.25
								c0.23-0.16,0.41-0.38,0.52-0.63c0.07-0.17,0.11-0.36,0.11-0.56v0v-6.91v0C1311.98,453.47,1311.34,452.83,1310.54,452.83z"/>
							<path class="st5" d="M1310.54,512h-7.88l0,0h-110.82c-0.79,0-1.44,0.64-1.44,1.44v1.28v5.63l0,0c0,0.2,0.04,0.39,0.11,0.56
								c0.07,0.17,0.18,0.33,0.31,0.46c0.26,0.26,0.62,0.42,1.02,0.42h5.3l15.02,49.39h78.06l15.02-49.39h5.3l0,0
								c0.3,0,0.58-0.09,0.8-0.25c0.08-0.05,0.15-0.11,0.21-0.18c0.13-0.13,0.24-0.29,0.31-0.46c0.07-0.17,0.11-0.36,0.11-0.56l0,0
								v-6.91l0,0C1311.98,512.65,1311.34,512,1310.54,512z"/>
						</g>
						<g>
							<path class="st5" d="M537.86,528.75c0-0.3,0-0.59,0-0.88c0-0.3,0-0.59-0.01-0.88c0-0.21-0.01-0.43-0.01-0.63
								c-0.01-0.5-0.03-0.98-0.06-1.43c-0.43-6.97-0.96-13.93-1.61-20.88v-1.84l0,0c0-1.78-0.12-3.54-0.35-5.28
								c-0.31-2.32-0.81-4.6-1.49-6.83c-1.54-5.01-3.99-9.75-7.17-14.02c-0.97-1.3-1.76-2.7-2.38-4.17
								c-1.03-2.45-1.57-5.1-1.57-7.78v-6.1c0-2.7,0.55-5.38,1.61-7.87l1.62-3.8c1.58-3.71,2.61-7.59,3.07-11.52
								c0.15-1.31,0.24-2.63,0.27-3.95c0.01-0.66,0.01-1.32,0-1.98c-0.12-4.62-1.01-9.22-2.67-13.62l-13.56-35.95
								c-0.17-0.47-0.55-0.81-1.01-0.96c-0.15-0.05-0.31-0.07-0.48-0.07v-2.99h0.92c0.35,0,0.67-0.11,0.94-0.29
								c0.18-0.12,0.33-0.27,0.45-0.45c0.12-0.18,0.21-0.38,0.25-0.6c0.02-0.11,0.03-0.22,0.03-0.34l0,0v-10.89v0
								c0-0.12-0.01-0.23-0.03-0.34c-0.04-0.22-0.13-0.42-0.25-0.6c-0.12-0.18-0.27-0.33-0.45-0.45c-0.27-0.18-0.59-0.29-0.94-0.29
								h-3.83h-28.36c-0.92,0-1.67,0.75-1.67,1.68v10.89c0,0.93,0.75,1.68,1.67,1.68h0.92v2.99l0,0c-0.66,0-1.26,0.41-1.49,1.03
								l-13.56,35.95c-1.9,5.03-2.79,10.33-2.67,15.6c0.01,0.66,0.04,1.32,0.09,1.98c0.18,2.63,0.61,5.25,1.29,7.82
								c0.51,1.93,1.16,3.82,1.95,5.68l1.62,3.8c0.53,1.24,0.93,2.53,1.2,3.85c0.27,1.32,0.41,2.66,0.41,4.02v6.1
								c0,2.06-0.33,4.08-0.95,6.02c-0.52,1.64-1.24,3.23-2.16,4.71c-1.86,2.98-3.45,6.09-4.81,9.3c-2.17,5.13-3.72,10.5-4.57,16.02
								c-0.2,1.28-0.35,2.57-0.48,3.87l0,0c-0.62,6.59-1.12,13.18-1.54,19.78v0c-0.02,0.37-0.05,0.73-0.08,1.1
								c-0.03,0.45-0.05,0.94-0.06,1.43c-0.01,0.21-0.01,0.42-0.01,0.63c0,0.29-0.01,0.57-0.01,0.87c0,0.13,0,0.24,0,0.37
								c0-0.13,0-0.24,0-0.36c0-0.3,0-0.59-0.01-0.88c0-0.21-0.01-0.43-0.01-0.63c-0.01-0.5-0.03-0.98-0.06-1.43
								c-0.43-6.97-0.96-13.93-1.61-20.88v-1.84l0,0c0-1.78-0.12-3.54-0.35-5.28c-0.31-2.32-0.81-4.6-1.49-6.83
								c-1.54-5.01-3.99-9.75-7.17-14.02c-0.97-1.3-1.76-2.7-2.38-4.17c-1.03-2.45-1.57-5.1-1.57-7.78v-6.1
								c0-2.7,0.55-5.38,1.61-7.87l1.62-3.8c1.58-3.71,2.61-7.59,3.07-11.52c0.15-1.31,0.24-2.63,0.27-3.95
								c0.01-0.66,0.01-1.32,0-1.98c-0.12-4.62-1.01-9.22-2.67-13.62l-13.56-35.95c-0.18-0.47-0.55-0.81-1.01-0.96
								c-0.15-0.05-0.31-0.07-0.48-0.07v-2.99H431c0.35,0,0.67-0.11,0.94-0.29c0.18-0.12,0.33-0.27,0.45-0.45
								c0.12-0.18,0.21-0.38,0.25-0.6c0.02-0.11,0.03-0.22,0.03-0.34l0,0v-10.89v0c0-0.12-0.01-0.23-0.03-0.34
								c-0.04-0.22-0.13-0.42-0.25-0.6c-0.12-0.18-0.27-0.33-0.45-0.45c-0.27-0.18-0.59-0.29-0.94-0.29h-3.83h-28.36
								c-0.93,0-1.68,0.75-1.68,1.68v10.89c0,0.93,0.75,1.68,1.68,1.68h0.92v2.99l0,0c-0.66,0-1.26,0.41-1.49,1.03l-13.56,35.95
								c-1.9,5.03-2.79,10.33-2.67,15.6c0.01,0.66,0.04,1.32,0.09,1.98c0.18,2.63,0.61,5.25,1.3,7.82c0.51,1.93,1.16,3.82,1.95,5.68
								l1.62,3.8c0.53,1.24,0.93,2.53,1.2,3.85c0.27,1.32,0.41,2.66,0.41,4.02v6.1c0,2.06-0.33,4.08-0.95,6.02
								c-0.52,1.64-1.24,3.23-2.17,4.71c-1.86,2.98-3.45,6.09-4.81,9.3c-2.17,5.13-3.72,10.5-4.57,16.02
								c-0.2,1.28-0.35,2.57-0.48,3.87l0,0c-0.62,6.59-1.12,13.18-1.54,19.78v0c-0.02,0.37-0.05,0.73-0.08,1.1
								c-0.03,0.45-0.05,0.94-0.06,1.43c-0.01,0.21-0.01,0.42-0.01,0.63c0,0.29-0.01,0.57-0.01,0.87c0,0.14,0,0.27,0,0.41
								c0,0.15,0.01,0.32,0.01,0.48c0,0.21,0.01,0.43,0.01,0.65c0.08,4.69,0.56,10.51,1.18,16.33c0.5,4.71,1.1,9.41,1.65,13.46
								c0.06,0.43,0.14,0.85,0.23,1.27c0.29,1.25,0.74,2.42,1.34,3.51c0.2,0.36,0.41,0.71,0.64,1.05c0.46,0.68,0.97,1.32,1.54,1.91
								c0.28,0.29,0.58,0.57,0.88,0.84c0.61,0.54,1.27,1.02,1.97,1.44c0.7,0.42,1.44,0.78,2.21,1.08c0.77,0.29,1.57,0.52,2.4,0.67
								c0.83,0.15,1.68,0.23,2.55,0.23h48.76c0.87,0,1.72-0.08,2.55-0.23c0.83-0.15,1.63-0.38,2.4-0.67
								c0.77-0.29,1.51-0.65,2.21-1.08c1.05-0.63,2.01-1.4,2.86-2.28c0.56-0.59,1.08-1.23,1.53-1.91c1.1-1.65,1.86-3.56,2.17-5.64
								c0.01-0.07,0.03-0.13,0.04-0.2c0.47-3.45,0.97-7.37,1.42-11.37c0.16-1.4,0.31-2.8,0.45-4.21c0.02-0.16,0.03-0.31,0.05-0.47
								c0.38-3.84,0.68-7.62,0.83-10.98c0.03-0.57,0.04-1.12,0.06-1.66l0,0c0,0,0,0,0,0c0.01-0.38,0.02-0.74,0.02-1.1
								c0-0.22,0.01-0.44,0.01-0.65c0-0.15,0.01-0.31,0.01-0.45c0,0.15,0.01,0.3,0.01,0.45c0,0.21,0.01,0.43,0.01,0.65
								c0.08,4.69,0.56,10.51,1.18,16.33c0.5,4.71,1.1,9.41,1.65,13.46c0.06,0.43,0.14,0.85,0.23,1.27
								c0.29,1.25,0.74,2.42,1.34,3.51c0.2,0.36,0.41,0.71,0.64,1.05c0.46,0.68,0.97,1.32,1.53,1.91c0.28,0.29,0.58,0.57,0.88,0.84
								c0.61,0.54,1.27,1.02,1.97,1.44c0.7,0.42,1.44,0.78,2.21,1.08c0.77,0.29,1.57,0.52,2.4,0.67c0.83,0.15,1.68,0.23,2.55,0.23
								h48.77c0.87,0,1.72-0.08,2.55-0.23c0.83-0.15,1.63-0.38,2.4-0.67c0.77-0.29,1.51-0.65,2.21-1.08
								c1.05-0.63,2.01-1.4,2.86-2.28c0.57-0.59,1.08-1.23,1.54-1.91c1.1-1.65,1.86-3.56,2.17-5.64c0.01-0.07,0.03-0.13,0.04-0.2
								c0.47-3.45,0.97-7.37,1.42-11.37c0.16-1.4,0.31-2.8,0.45-4.21c0.02-0.16,0.03-0.31,0.05-0.47c0.38-3.84,0.68-7.62,0.83-10.98
								c0.02-0.57,0.04-1.12,0.06-1.66l0,0c0,0,0,0,0,0c0.01-0.38,0.02-0.74,0.02-1.1C537.85,529.18,537.85,528.97,537.86,528.75z"
								/>
							<path class="st5" d="M701.81,527.87c0-0.3,0-0.59-0.01-0.87c0-0.15,0-0.32,0-0.47c0-0.06-0.01-0.11-0.01-0.16
								c-0.01-0.5-0.03-0.98-0.06-1.43c-0.43-6.97-0.96-13.93-1.61-20.88v-1.84l0,0c0-1.78-0.12-3.54-0.35-5.28
								c-0.31-2.32-0.81-4.6-1.49-6.83c-1.54-5.01-3.99-9.75-7.17-14.02c-0.97-1.3-1.76-2.7-2.38-4.17
								c-1.03-2.45-1.57-5.1-1.57-7.78v-6.1c0-2.7,0.55-5.38,1.61-7.87l1.62-3.8c1.58-3.71,2.61-7.59,3.07-11.52
								c0.15-1.31,0.24-2.63,0.27-3.95c0.01-0.66,0.01-1.32,0-1.98c-0.12-4.62-1.01-9.22-2.67-13.62l-13.56-35.95
								c-0.12-0.31-0.32-0.57-0.59-0.75c-0.26-0.18-0.58-0.28-0.91-0.28v-2.99h0.92c0.23,0,0.45-0.05,0.65-0.13
								c0.1-0.04,0.2-0.09,0.28-0.15c0.18-0.12,0.33-0.27,0.45-0.45c0.12-0.18,0.21-0.38,0.25-0.6c0.02-0.11,0.03-0.22,0.03-0.34
								l0,0v-10.89v0c0-0.12-0.01-0.23-0.03-0.34c-0.04-0.22-0.13-0.42-0.25-0.6c-0.12-0.18-0.27-0.33-0.45-0.45
								c-0.09-0.06-0.18-0.11-0.28-0.15c-0.2-0.08-0.42-0.13-0.65-0.13h-3.83h-28.36c-0.93,0-1.68,0.75-1.68,1.68v10.89
								c0,0.93,0.75,1.68,1.68,1.68h0.92v2.99l0,0c-0.66,0-1.26,0.41-1.49,1.03l-13.56,35.95c-1.9,5.03-2.79,10.33-2.67,15.6
								c0.04,1.98,0.23,3.95,0.55,5.91c0.22,1.3,0.49,2.6,0.84,3.88c0.51,1.93,1.16,3.82,1.95,5.68l1.62,3.8
								c0.53,1.24,0.93,2.53,1.2,3.85c0.27,1.32,0.41,2.66,0.41,4.02v6.1c0,2.06-0.33,4.08-0.95,6.02
								c-0.52,1.64-1.24,3.23-2.17,4.71c-1.38,2.21-2.62,4.49-3.73,6.83c-2.77,5.85-4.67,12.08-5.65,18.5
								c-0.2,1.28-0.35,2.57-0.48,3.87l0,0c-0.62,6.59-1.12,13.18-1.54,19.78v0c-0.02,0.37-0.05,0.73-0.08,1.1
								c-0.03,0.45-0.05,0.94-0.06,1.43c-0.01,0.21-0.01,0.42-0.01,0.63c0,0.29-0.01,0.57-0.01,0.87c0,0.12,0,0.24,0,0.36
								c0-0.13,0-0.24,0-0.36c0-0.3,0-0.59-0.01-0.87c0-0.15,0-0.32,0-0.47c0-0.06-0.01-0.11-0.01-0.16
								c-0.01-0.5-0.03-0.98-0.06-1.43c-0.43-6.97-0.96-13.93-1.61-20.88v-1.84l0,0c0-1.78-0.12-3.54-0.35-5.28
								c-0.31-2.32-0.81-4.6-1.49-6.83c-1.54-5.01-3.99-9.75-7.17-14.02c-0.97-1.3-1.76-2.7-2.38-4.17
								c-1.03-2.45-1.57-5.1-1.57-7.78v-6.1c0-2.7,0.55-5.38,1.61-7.87l1.62-3.8c1.58-3.71,2.61-7.59,3.07-11.52
								c0.15-1.31,0.24-2.63,0.27-3.95c0.01-0.66,0.01-1.32,0-1.98c-0.12-4.62-1.01-9.22-2.67-13.62l-13.56-35.95
								c-0.12-0.31-0.32-0.57-0.58-0.75c-0.26-0.18-0.58-0.28-0.91-0.28v-2.99h0.92c0.23,0,0.45-0.05,0.65-0.13
								c0.1-0.04,0.2-0.09,0.28-0.15c0.18-0.12,0.33-0.27,0.45-0.45c0.12-0.18,0.21-0.38,0.25-0.6c0.02-0.11,0.03-0.22,0.03-0.34
								l0,0v-10.89v0c0-0.12-0.01-0.23-0.03-0.34c-0.04-0.22-0.13-0.42-0.25-0.6c-0.12-0.18-0.27-0.33-0.45-0.45
								c-0.09-0.06-0.18-0.11-0.28-0.15c-0.2-0.08-0.42-0.13-0.65-0.13h-3.83h-28.36c-0.92,0-1.67,0.75-1.67,1.68v10.89
								c0,0.93,0.75,1.68,1.67,1.68h0.92v2.99l0,0c-0.66,0-1.26,0.41-1.49,1.03l-13.56,35.95c-1.9,5.03-2.79,10.33-2.67,15.6
								c0.04,1.98,0.23,3.95,0.55,5.91c0.22,1.3,0.49,2.6,0.84,3.88c0.51,1.93,1.16,3.82,1.95,5.68l1.62,3.8
								c0.53,1.24,0.93,2.53,1.2,3.85c0.27,1.32,0.41,2.66,0.41,4.02v6.1c0,2.06-0.33,4.08-0.95,6.02
								c-0.52,1.64-1.24,3.23-2.17,4.71c-1.38,2.21-2.62,4.49-3.73,6.83c-2.77,5.85-4.67,12.08-5.65,18.5
								c-0.2,1.28-0.35,2.57-0.48,3.87l0,0c-0.62,6.59-1.12,13.18-1.54,19.78v0c-0.02,0.37-0.05,0.73-0.08,1.1
								c-0.03,0.45-0.05,0.94-0.06,1.43c-0.01,0.21-0.01,0.42-0.01,0.63c0,0.29-0.01,0.57-0.01,0.87c0,0.29,0,0.58,0,0.88
								c0,0.22,0.01,0.44,0.01,0.66c0.01,0.36,0.01,0.72,0.02,1.09c0,0,0,0,0,0l0,0c0.05,1.86,0.16,3.86,0.31,5.96
								c0.11,1.49,0.23,3.02,0.38,4.57c0.07,0.78,0.15,1.56,0.22,2.34c0.39,3.92,0.86,7.9,1.33,11.57c0.19,1.47,0.38,2.89,0.56,4.24
								c0.06,0.43,0.14,0.85,0.23,1.27c0.29,1.25,0.74,2.42,1.34,3.51c0.2,0.36,0.41,0.71,0.64,1.05c0.46,0.68,0.97,1.32,1.53,1.91
								c0.28,0.29,0.58,0.57,0.88,0.84c0.61,0.54,1.27,1.02,1.97,1.44c0.7,0.42,1.44,0.78,2.21,1.08c0.77,0.29,1.57,0.52,2.4,0.67
								c0.83,0.15,1.68,0.23,2.55,0.23h48.77c0.87,0,1.72-0.08,2.55-0.23c0.83-0.15,1.63-0.38,2.4-0.67
								c0.77-0.29,1.51-0.65,2.21-1.08c1.05-0.63,2.01-1.4,2.86-2.28c0.57-0.59,1.08-1.23,1.53-1.91c1.1-1.65,1.86-3.56,2.17-5.64
								c0.01-0.07,0.03-0.13,0.04-0.2c0.83-6.08,1.75-13.6,2.32-20.46c0.24-2.92,0.41-5.71,0.49-8.22l0,0c0,0,0,0,0,0
								c0-0.11,0.01-0.23,0.01-0.34c0.01-0.26,0.01-0.51,0.01-0.76c0-0.22,0.01-0.43,0.01-0.64c0-0.15,0.01-0.31,0.01-0.45
								c0,0.14,0,0.3,0.01,0.45c0,0.22,0.01,0.44,0.01,0.66c0.01,0.36,0.01,0.72,0.02,1.09c0,0,0,0,0,0l0,0
								c0.05,1.86,0.16,3.86,0.31,5.96c0.11,1.49,0.23,3.02,0.38,4.57c0.07,0.78,0.15,1.56,0.22,2.34c0.39,3.92,0.86,7.9,1.33,11.57
								c0.19,1.47,0.38,2.89,0.56,4.24c0.06,0.43,0.14,0.85,0.23,1.27c0.29,1.25,0.74,2.42,1.34,3.51c0.2,0.36,0.41,0.71,0.64,1.05
								c0.46,0.68,0.97,1.32,1.54,1.91c0.28,0.29,0.58,0.57,0.88,0.84c0.61,0.54,1.27,1.02,1.97,1.44c0.7,0.42,1.44,0.78,2.21,1.08
								c0.77,0.29,1.57,0.52,2.4,0.67c0.83,0.15,1.68,0.23,2.55,0.23h48.77c0.87,0,1.72-0.08,2.55-0.23
								c0.83-0.15,1.63-0.38,2.4-0.67c0.77-0.29,1.51-0.65,2.21-1.08c1.05-0.63,2.01-1.4,2.86-2.28c0.56-0.59,1.08-1.23,1.53-1.91
								c1.1-1.65,1.86-3.56,2.17-5.64c0.01-0.07,0.03-0.13,0.04-0.2c0.83-6.08,1.75-13.6,2.32-20.46c0.24-2.92,0.41-5.71,0.49-8.22
								l0,0c0,0,0,0,0,0c0-0.11,0.01-0.23,0.01-0.34c0.01-0.26,0.01-0.51,0.01-0.76c0-0.22,0.01-0.43,0.01-0.64
								C701.81,528.45,701.81,528.16,701.81,527.87z"/>
							<path class="st5" d="M865.76,527.87c0-0.3,0-0.59-0.01-0.87c0-0.15,0-0.32,0-0.47c0-0.06,0-0.11-0.01-0.16
								c-0.01-0.5-0.03-0.98-0.06-1.43c-0.43-6.97-0.96-13.93-1.61-20.88v-1.84l0,0c0-1.78-0.12-3.54-0.35-5.28
								c-0.31-2.32-0.81-4.6-1.49-6.83c-1.54-5.01-3.99-9.75-7.17-14.02c-0.97-1.3-1.76-2.7-2.38-4.17
								c-1.03-2.45-1.57-5.1-1.57-7.78v-6.1c0-2.7,0.55-5.38,1.61-7.87l1.62-3.8c0.79-1.85,1.44-3.75,1.95-5.68
								c0.85-3.21,1.31-6.5,1.38-9.8c0.01-0.66,0.01-1.32,0-1.98c-0.12-4.62-1.01-9.22-2.67-13.62l-13.56-35.95
								c-0.12-0.31-0.32-0.57-0.58-0.75c-0.26-0.18-0.57-0.28-0.91-0.28v-2.99h0.92c0.23,0,0.45-0.05,0.65-0.13
								c0.1-0.04,0.2-0.09,0.28-0.15c0.18-0.12,0.33-0.27,0.45-0.45c0.12-0.18,0.21-0.38,0.25-0.6c0.02-0.11,0.03-0.22,0.03-0.34
								l0,0v-10.89v0c0-0.12-0.01-0.23-0.03-0.34c-0.04-0.22-0.13-0.42-0.25-0.6s-0.27-0.33-0.45-0.45
								c-0.09-0.06-0.18-0.11-0.28-0.15c-0.2-0.08-0.42-0.13-0.65-0.13h-3.83h-28.36c-0.92,0-1.67,0.75-1.67,1.68v10.89
								c0,0.93,0.75,1.68,1.67,1.68h0.92v2.99l0,0c-0.66,0-1.26,0.41-1.49,1.03l-13.56,35.95c-2.13,5.66-2.99,11.65-2.58,17.58
								c0.09,1.32,0.24,2.63,0.46,3.93c0.22,1.3,0.49,2.6,0.83,3.88c0.51,1.93,1.16,3.82,1.95,5.68l1.62,3.8
								c0.32,0.75,0.58,1.52,0.8,2.3c0.52,1.81,0.81,3.68,0.81,5.57v6.1c0,2.06-0.33,4.08-0.95,6.02c-0.52,1.64-1.24,3.23-2.17,4.71
								c-1.38,2.21-2.62,4.49-3.73,6.83c-2.77,5.85-4.67,12.08-5.65,18.5c-0.2,1.28-0.35,2.57-0.48,3.87l0,0
								c-0.62,6.59-1.12,13.18-1.54,19.78v0c-0.02,0.37-0.05,0.73-0.08,1.1c-0.03,0.45-0.05,0.94-0.06,1.43
								c-0.01,0.21-0.01,0.42-0.01,0.63c0,0.29-0.01,0.57-0.01,0.87c0,0.12,0,0.24,0,0.36c0-0.13,0-0.24,0-0.36
								c0-0.3,0-0.59-0.01-0.87c0-0.15,0-0.32,0-0.47c0-0.06,0-0.11-0.01-0.16c-0.01-0.5-0.03-0.98-0.06-1.43
								c-0.43-6.97-0.96-13.93-1.61-20.88v-1.84l0,0c0-1.78-0.12-3.54-0.35-5.28c-0.31-2.32-0.81-4.6-1.49-6.83
								c-1.54-5.01-3.99-9.75-7.17-14.02c-0.97-1.3-1.76-2.7-2.38-4.17c-1.03-2.45-1.57-5.1-1.57-7.78v-6.1
								c0-2.7,0.55-5.38,1.61-7.87l1.62-3.8c0.79-1.85,1.44-3.75,1.95-5.68c0.85-3.21,1.31-6.5,1.38-9.8c0.01-0.66,0.01-1.32,0-1.98
								c-0.12-4.62-1.01-9.22-2.67-13.62l-13.56-35.95c-0.12-0.31-0.32-0.57-0.59-0.75c-0.26-0.18-0.57-0.28-0.91-0.28v-2.99h0.92
								c0.23,0,0.45-0.05,0.65-0.13c0.1-0.04,0.2-0.09,0.28-0.15c0.18-0.12,0.33-0.27,0.45-0.45c0.12-0.18,0.21-0.38,0.25-0.6
								c0.02-0.11,0.03-0.22,0.03-0.34l0,0v-10.89v0c0-0.12-0.01-0.23-0.03-0.34c-0.04-0.22-0.13-0.42-0.25-0.6
								c-0.12-0.18-0.27-0.33-0.45-0.45c-0.09-0.06-0.18-0.11-0.28-0.15c-0.2-0.08-0.42-0.13-0.65-0.13h-3.83h-28.36
								c-0.93,0-1.68,0.75-1.68,1.68v10.89c0,0.93,0.75,1.68,1.68,1.68h0.92v2.99l0,0c-0.66,0-1.26,0.41-1.49,1.03l-13.56,35.95
								c-1.9,5.03-2.79,10.33-2.67,15.6c0.04,1.98,0.23,3.95,0.55,5.91c0.22,1.3,0.5,2.6,0.84,3.88c0.51,1.93,1.16,3.82,1.95,5.68
								l1.62,3.8c0.32,0.75,0.58,1.52,0.8,2.3c0.52,1.81,0.81,3.68,0.81,5.57v6.1c0,2.06-0.33,4.08-0.95,6.02
								c-0.52,1.64-1.24,3.23-2.17,4.71c-1.38,2.21-2.62,4.49-3.73,6.83c-2.77,5.85-4.67,12.08-5.65,18.5
								c-0.2,1.28-0.35,2.57-0.48,3.87l0,0c-0.62,6.59-1.12,13.18-1.54,19.78v0c-0.02,0.37-0.05,0.73-0.08,1.1
								c-0.03,0.45-0.05,0.94-0.06,1.43c-0.01,0.21-0.01,0.42-0.01,0.63c0,0.29-0.01,0.57-0.01,0.87c0,0.29,0,0.58,0,0.88
								c0,0.22,0.01,0.44,0.01,0.66c0.01,0.36,0.01,0.72,0.02,1.09c0,0,0,0,0,0h0c0.05,1.86,0.16,3.86,0.31,5.96
								c0.11,1.49,0.23,3.02,0.38,4.57c0.07,0.78,0.15,1.56,0.22,2.34c0.39,3.92,0.86,7.9,1.33,11.57c0.19,1.47,0.38,2.89,0.56,4.24
								c0.06,0.43,0.14,0.85,0.23,1.27c0.29,1.25,0.74,2.42,1.34,3.51c0.2,0.36,0.41,0.71,0.64,1.05c0.46,0.68,0.97,1.32,1.54,1.91
								c0.28,0.29,0.58,0.57,0.88,0.84c0.61,0.54,1.27,1.02,1.97,1.44c0.7,0.42,1.44,0.78,2.21,1.08c0.77,0.29,1.57,0.52,2.4,0.67
								c0.83,0.15,1.68,0.23,2.55,0.23h48.77c0.87,0,1.72-0.08,2.55-0.23c0.83-0.15,1.63-0.38,2.4-0.67
								c0.77-0.29,1.51-0.65,2.21-1.08c0.7-0.42,1.36-0.9,1.97-1.44c2.15-1.87,3.72-4.4,4.39-7.31c0.1-0.42,0.17-0.84,0.23-1.27
								c0.83-6.08,1.76-13.6,2.32-20.46c0.24-2.92,0.41-5.71,0.49-8.22l0,0c0,0,0,0,0,0c0-0.11,0.01-0.23,0.01-0.34
								c0.01-0.26,0.01-0.51,0.01-0.76c0-0.22,0.01-0.43,0.01-0.64c0-0.15,0.01-0.31,0.01-0.45c0,0.14,0.01,0.3,0.01,0.45
								c0,0.22,0.01,0.44,0.01,0.66c0.01,0.36,0.01,0.72,0.02,1.09c0,0,0,0,0,0h0c0.05,1.86,0.16,3.86,0.31,5.96
								c0.11,1.49,0.23,3.02,0.38,4.57c0.07,0.78,0.15,1.56,0.22,2.34c0.39,3.92,0.86,7.9,1.33,11.57c0.19,1.47,0.38,2.89,0.56,4.24
								c0.06,0.43,0.14,0.85,0.23,1.27c0.29,1.25,0.74,2.42,1.34,3.51c0.2,0.36,0.41,0.71,0.64,1.05c0.46,0.68,0.97,1.32,1.54,1.91
								c0.28,0.29,0.58,0.57,0.88,0.84c0.61,0.54,1.27,1.02,1.97,1.44c0.7,0.42,1.44,0.78,2.21,1.08c0.77,0.29,1.57,0.52,2.4,0.67
								c0.83,0.15,1.68,0.23,2.55,0.23h48.76c0.87,0,1.72-0.08,2.55-0.23c0.83-0.15,1.63-0.38,2.4-0.67
								c0.77-0.29,1.51-0.65,2.21-1.08c0.7-0.42,1.36-0.9,1.97-1.44c2.15-1.87,3.72-4.4,4.39-7.31c0.1-0.42,0.17-0.84,0.23-1.27
								c0.83-6.08,1.75-13.6,2.32-20.46c0.24-2.92,0.41-5.71,0.49-8.22l0,0c0,0,0,0,0,0c0-0.11,0.01-0.23,0.01-0.34
								c0.01-0.26,0.01-0.51,0.01-0.76c0-0.22,0.01-0.43,0.01-0.64C865.76,528.45,865.76,528.16,865.76,527.87z"/>
							<path class="st5" d="M1029.71,528.76c0-0.16,0.01-0.33,0.01-0.48c0-0.14,0-0.27,0-0.41c0-0.3,0-0.58-0.01-0.87
								c0-0.22-0.01-0.43-0.01-0.64c-0.01-0.5-0.03-0.98-0.06-1.43c-0.43-6.97-0.96-13.93-1.61-20.88v-1.84l0,0
								c0-1.78-0.12-3.54-0.35-5.28c-0.31-2.32-0.81-4.6-1.49-6.83c-1.54-5.01-3.99-9.75-7.17-14.02c-1.61-2.17-2.75-4.62-3.38-7.2
								c-0.38-1.55-0.57-3.14-0.57-4.75v-6.1c0-0.78,0.06-1.55,0.15-2.33c0.12-1.06,0.34-2.11,0.63-3.14
								c0.23-0.81,0.5-1.62,0.83-2.4l1.62-3.8c0.26-0.62,0.51-1.24,0.74-1.87c0.47-1.25,0.87-2.52,1.21-3.81
								c0.51-1.93,0.88-3.88,1.11-5.85c0.08-0.68,0.14-1.37,0.19-2.06c0.4-5.9-0.46-11.86-2.59-17.49l-13.56-35.95
								c-0.12-0.31-0.32-0.57-0.58-0.75c-0.26-0.18-0.58-0.28-0.91-0.28v-2.99h0.92c0.23,0,0.45-0.05,0.65-0.13
								c0.1-0.04,0.2-0.09,0.28-0.15c0.18-0.12,0.33-0.27,0.45-0.45c0.12-0.18,0.21-0.38,0.25-0.6c0.02-0.11,0.03-0.22,0.03-0.34
								l0,0v-10.89v0c0-0.12-0.01-0.23-0.03-0.34c-0.04-0.22-0.13-0.42-0.25-0.6c-0.12-0.18-0.27-0.33-0.45-0.45
								c-0.09-0.06-0.18-0.11-0.28-0.15c-0.2-0.08-0.42-0.13-0.65-0.13h-3.83h-28.36c-0.92,0-1.67,0.75-1.67,1.68v10.89
								c0,0.93,0.75,1.68,1.67,1.68h0.92v2.99l0,0c-0.66,0-1.26,0.41-1.49,1.03l-10.08,26.73l0,0l-3.48,9.22
								c-0.24,0.63-0.46,1.26-0.66,1.9c-1.65,5.09-2.28,10.41-1.92,15.68c0.05,0.74,0.13,1.48,0.22,2.21
								c0.47,3.85,1.48,7.65,3.03,11.28l1.62,3.8c0.32,0.75,0.58,1.52,0.8,2.3c0.52,1.81,0.81,3.68,0.81,5.57v6.1
								c0,2.06-0.33,4.08-0.95,6.02c-0.52,1.64-1.24,3.23-2.16,4.71c-1.38,2.21-2.62,4.49-3.73,6.83
								c-2.77,5.85-4.67,12.08-5.65,18.5c-0.2,1.28-0.35,2.57-0.48,3.87l0,0c-0.65,6.95-1.19,13.91-1.61,20.88
								c-0.03,0.45-0.05,0.94-0.06,1.43c-0.01,0.21-0.01,0.42-0.01,0.63c0,0.29-0.01,0.57-0.01,0.87c0,0.12,0,0.24,0,0.36
								c0-0.13,0-0.24,0-0.36c0-0.3,0-0.58-0.01-0.87c0-0.22-0.01-0.43-0.01-0.64c-0.01-0.5-0.03-0.98-0.06-1.43
								c-0.43-6.97-0.96-13.93-1.61-20.88v-1.84l0,0c0-1.78-0.12-3.54-0.35-5.28c-0.31-2.32-0.81-4.6-1.49-6.83
								c-1.54-5.01-3.99-9.75-7.17-14.02c-1.61-2.17-2.75-4.62-3.38-7.2c-0.38-1.55-0.57-3.14-0.57-4.75v-6.1
								c0-0.78,0.06-1.55,0.15-2.33c0.12-1.06,0.34-2.11,0.63-3.14c0.23-0.81,0.5-1.62,0.83-2.4l1.62-3.8
								c0.26-0.62,0.51-1.24,0.74-1.87c0.47-1.25,0.87-2.52,1.21-3.81c0.51-1.93,0.88-3.88,1.11-5.85c0.08-0.68,0.14-1.37,0.19-2.06
								c0.39-5.9-0.46-11.86-2.59-17.49l-13.56-35.95c-0.12-0.31-0.32-0.57-0.58-0.75c-0.26-0.18-0.57-0.28-0.91-0.28v-2.99h0.92
								c0.23,0,0.45-0.05,0.65-0.13c0.1-0.04,0.2-0.09,0.28-0.15c0.18-0.12,0.33-0.27,0.45-0.45c0.12-0.18,0.21-0.38,0.25-0.6
								c0.02-0.11,0.03-0.22,0.03-0.34l0,0v-10.89v0c0-0.12-0.01-0.23-0.03-0.34c-0.04-0.22-0.13-0.42-0.25-0.6
								s-0.27-0.33-0.45-0.45c-0.09-0.06-0.18-0.11-0.28-0.15c-0.2-0.08-0.42-0.13-0.65-0.13h-3.83h-28.36
								c-0.92,0-1.67,0.75-1.67,1.68v10.89c0,0.93,0.75,1.68,1.67,1.68h0.92v2.99l0,0c-0.66,0-1.26,0.41-1.49,1.03L880,406.06l0,0
								l-3.48,9.22c-0.24,0.63-0.46,1.26-0.66,1.9c-1.65,5.09-2.28,10.41-1.92,15.68c0.05,0.74,0.13,1.48,0.22,2.21
								c0.47,3.85,1.48,7.65,3.03,11.28l1.62,3.8c0.32,0.75,0.58,1.52,0.8,2.3c0.52,1.81,0.81,3.68,0.81,5.57v6.1
								c0,2.06-0.33,4.08-0.95,6.02c-0.52,1.64-1.24,3.23-2.17,4.71c-1.38,2.21-2.62,4.49-3.73,6.83
								c-2.77,5.85-4.67,12.08-5.65,18.5c-0.2,1.28-0.35,2.57-0.48,3.87l0,0c-0.65,6.95-1.19,13.91-1.61,20.88
								c-0.03,0.45-0.05,0.94-0.06,1.43c-0.01,0.21-0.01,0.42-0.01,0.63c0,0.29-0.01,0.57-0.01,0.87c0,0.29,0,0.58,0,0.88
								c0,0.22,0.01,0.44,0.01,0.66c0.01,0.36,0.01,0.72,0.02,1.09c0,0,0,0,0,0l0,0c0.05,1.86,0.16,3.86,0.31,5.96
								c0.11,1.49,0.23,3.02,0.38,4.57c0.07,0.78,0.15,1.56,0.22,2.34c0.39,3.92,0.86,7.9,1.33,11.57c0.19,1.47,0.38,2.89,0.56,4.24
								c0.06,0.43,0.14,0.85,0.23,1.27c0.38,1.66,1.06,3.2,1.98,4.56c0.46,0.68,0.97,1.32,1.53,1.91c0.51,0.53,1.06,1.01,1.65,1.45
								c0.17,0.13,0.35,0.26,0.54,0.38c1.01,0.69,2.11,1.25,3.28,1.65c0.56,0.2,1.14,0.36,1.73,0.48c0.92,0.19,1.86,0.3,2.83,0.3
								l0,0h48.76c0.87,0,1.72-0.08,2.55-0.23c0.83-0.15,1.63-0.38,2.4-0.67c0.77-0.29,1.51-0.65,2.21-1.08
								c0.7-0.42,1.36-0.9,1.97-1.44c2.15-1.87,3.72-4.4,4.39-7.31c0.1-0.42,0.17-0.84,0.23-1.27c0.83-6.08,1.75-13.6,2.32-20.46
								c0.13-1.52,0.23-3.02,0.32-4.45c0.1-1.73,0.17-3.36,0.19-4.88c0-0.21,0.01-0.43,0.01-0.63c0-0.15,0.01-0.31,0.01-0.46
								c0,0.14,0.01,0.3,0.01,0.45c0,0.22,0.01,0.44,0.01,0.66c0.01,0.36,0.01,0.72,0.02,1.09c0,0,0,0,0,0l0,0
								c0.05,1.86,0.16,3.86,0.31,5.96c0.11,1.49,0.23,3.02,0.38,4.57c0.07,0.78,0.15,1.56,0.22,2.34c0.39,3.92,0.86,7.9,1.33,11.57
								c0.19,1.47,0.38,2.89,0.56,4.24c0.06,0.43,0.14,0.85,0.23,1.27c0.38,1.66,1.06,3.2,1.98,4.56c0.46,0.68,0.97,1.32,1.53,1.91
								c0.51,0.53,1.06,1.01,1.65,1.45c0.17,0.13,0.35,0.26,0.54,0.38c1.01,0.69,2.11,1.25,3.28,1.65c0.56,0.2,1.14,0.36,1.73,0.48
								c0.92,0.19,1.86,0.3,2.83,0.3l0,0h48.77c0.87,0,1.72-0.08,2.55-0.23c0.83-0.15,1.63-0.38,2.4-0.67
								c0.77-0.29,1.51-0.65,2.21-1.08c0.7-0.42,1.36-0.9,1.97-1.44c2.15-1.87,3.72-4.4,4.39-7.31c0.1-0.42,0.17-0.84,0.23-1.27
								c0.83-6.08,1.75-13.6,2.32-20.46c0.13-1.52,0.23-3.02,0.32-4.45c0.1-1.73,0.17-3.36,0.19-4.88
								C1029.7,529.18,1029.7,528.97,1029.71,528.76z"/>
						</g>
						<g>
							<path class="st5" d="M1597.22,516.36c0-0.29,0.01-0.57,0.01-0.85c0-0.21,0.01-0.43,0.01-0.63c0-0.19,0-0.35,0-0.54
								c0-0.39,0-0.76-0.01-1.14c0-0.28-0.01-0.57-0.02-0.84c-0.02-0.65-0.04-1.28-0.08-1.88c-0.56-9.14-1.26-18.27-2.12-27.39
								v-2.42l0,0c0-4.66-0.62-9.24-1.79-13.68c-0.78-2.96-1.8-5.85-3.04-8.65c-0.47-1.06-0.98-2.1-1.51-3.14
								c-0.75-1.45-1.55-2.88-2.41-4.27c-0.35-0.56-0.7-1.12-1.07-1.67c-0.39-0.58-0.78-1.16-1.19-1.74
								c-0.27-0.38-0.54-0.77-0.82-1.14c-0.23-0.3-0.43-0.62-0.64-0.94c-0.79-1.17-1.48-2.39-2.07-3.65
								c-0.43-0.93-0.83-1.88-1.15-2.85c-0.88-2.65-1.33-5.43-1.33-8.25v-8c0-0.99,0.06-1.97,0.17-2.95
								c0.17-1.53,0.48-3.04,0.92-4.52c0.07-0.23,0.14-0.46,0.21-0.68c0.24-0.73,0.51-1.46,0.81-2.17l2.13-4.99
								c2.08-4.86,3.42-9.96,4.02-15.12c0.2-1.72,0.32-3.45,0.36-5.18c0.15-6.92-1.02-13.87-3.51-20.47l-17.8-47.17
								c-0.31-0.81-1.09-1.35-1.96-1.35v-3.92h1.21h0c0.46,0,0.88-0.14,1.23-0.38c0.12-0.08,0.23-0.17,0.33-0.27
								c0.2-0.2,0.36-0.44,0.47-0.7c0.11-0.26,0.17-0.55,0.17-0.86v0v-14.29l0,0c0-0.15-0.02-0.3-0.04-0.44
								c-0.03-0.14-0.07-0.28-0.13-0.41c-0.33-0.79-1.11-1.34-2.02-1.34h0h-5.02h-37.21c-1.21,0-2.2,0.98-2.2,2.2V312
								c0,1.21,0.98,2.2,2.2,2.2h1.21v3.92h0c-0.87,0-1.65,0.54-1.96,1.35l-13.23,35.07l0,0l-4.56,12.1
								c-2.8,7.42-3.93,15.29-3.39,23.06c0.12,1.73,0.32,3.45,0.6,5.16c0.71,4.28,1.93,8.49,3.66,12.54l2.13,4.99
								c1.39,3.26,2.11,6.78,2.11,10.32v8c0,3.74-0.81,7.41-2.33,10.79c-0.51,1.13-1.09,2.23-1.75,3.28
								c-2.05,3.29-3.87,6.71-5.47,10.23c-2.26,4.99-4.06,10.18-5.35,15.5c-0.4,1.65-0.75,3.31-1.06,4.98
								c-0.31,1.67-0.56,3.36-0.77,5.05c-0.1,0.85-0.2,1.69-0.28,2.54v0c-0.81,8.64-1.47,17.29-2.02,25.95v0
								c-0.03,0.48-0.07,0.96-0.1,1.44c-0.04,0.59-0.06,1.23-0.08,1.88c-0.01,0.27-0.01,0.55-0.02,0.83c0,0.38-0.01,0.76-0.01,1.15
								c0,0.16,0,0.31,0,0.48c0-0.17,0-0.32,0-0.48c0-0.39-0.01-0.77-0.01-1.14c0-0.28-0.01-0.56-0.01-0.83
								c-0.02-0.65-0.04-1.29-0.08-1.88c-0.56-9.14-1.26-18.27-2.12-27.39v-2.42l0,0c0-5.44-0.84-10.77-2.41-15.88
								c-0.22-0.73-0.46-1.46-0.72-2.18c-0.88-2.52-1.95-4.97-3.18-7.35c-1.58-3.09-3.42-6.06-5.51-8.87
								c-1.69-2.27-2.99-4.79-3.86-7.44c-0.88-2.65-1.33-5.43-1.33-8.25v-8c0-0.99,0.06-1.97,0.17-2.95
								c0.17-1.53,0.48-3.04,0.92-4.52c0.16-0.54,0.33-1.08,0.53-1.62c0.15-0.41,0.32-0.83,0.49-1.23l2.13-4.99
								c0.69-1.62,1.3-3.27,1.83-4.93c1.59-5,2.44-10.17,2.55-15.36c0,0,0,0,0-0.01c0.04-1.69-0.01-3.37-0.13-5.05
								c-0.37-5.23-1.5-10.42-3.38-15.41l-4.56-12.1l0,0l-13.23-35.07c-0.15-0.41-0.43-0.75-0.77-0.98
								c-0.34-0.24-0.75-0.37-1.19-0.37v-3.92h1.21c0.91,0,1.69-0.55,2.03-1.34c0.11-0.26,0.17-0.55,0.17-0.86v0v-14.29l0,0
								c0-0.15-0.02-0.3-0.04-0.44c-0.09-0.43-0.3-0.81-0.6-1.11c-0.2-0.2-0.44-0.36-0.7-0.47c-0.26-0.11-0.55-0.17-0.86-0.17h-5.02
								h-37.21c-1.21,0-2.2,0.98-2.2,2.2V312c0,1.21,0.98,2.2,2.2,2.2h1.21v3.92l0,0c-0.87,0-1.65,0.54-1.96,1.35l-17.79,47.17
								c-1.24,3.3-2.16,6.68-2.74,10.11c-0.15,0.86-0.27,1.72-0.38,2.58c-0.31,2.58-0.44,5.18-0.39,7.78
								c0.04,1.73,0.16,3.46,0.36,5.18c0.18,1.58,0.45,3.16,0.77,4.73c0.73,3.54,1.81,7.02,3.25,10.39l2.13,4.99
								c1.04,2.45,1.71,5.04,1.98,7.67c0.09,0.88,0.13,1.76,0.13,2.65v8c0,0.69-0.03,1.38-0.09,2.06c-0.08,1.06-0.24,2.1-0.45,3.14
								c-0.31,1.49-0.74,2.96-1.3,4.38c-0.61,1.56-1.35,3.07-2.25,4.5c-1.66,2.66-3.16,5.4-4.52,8.21
								c-4.19,8.66-6.95,17.97-8.13,27.55c-0.1,0.85-0.2,1.69-0.28,2.54v0c-0.85,9.12-1.56,18.25-2.12,27.39
								c-0.04,0.59-0.06,1.23-0.08,1.88c-0.01,0.27-0.01,0.56-0.01,0.84c-0.01,0.37-0.01,0.75-0.01,1.14c0,0.18-0.01,0.35,0,0.54
								c0,0.2,0.01,0.42,0.01,0.63c0,0.28,0.01,0.57,0.01,0.85c0.01,0.48,0.02,0.95,0.03,1.45c0,0,0,0,0,0l0,0
								c0.3,10.19,1.86,23.92,3.31,34.91c0.12,0.93,0.25,1.84,0.37,2.73c0.08,0.56,0.18,1.12,0.3,1.66
								c0.31,1.36,0.79,2.64,1.39,3.86c0.22,0.44,0.45,0.87,0.7,1.29c0.37,0.62,0.77,1.22,1.21,1.79c0.41,0.54,0.84,1.06,1.31,1.55
								c0.02,0.02,0.04,0.03,0.05,0.05c0.52,0.54,1.08,1.03,1.66,1.5c0.92,0.74,1.9,1.39,2.95,1.94c0.64,0.34,1.3,0.65,1.98,0.91
								c2.02,0.77,4.21,1.19,6.49,1.19h63.98c2.28,0,4.47-0.42,6.49-1.19c1.01-0.39,1.98-0.86,2.9-1.41
								c0.46-0.28,0.91-0.57,1.34-0.89c3.89-2.83,6.63-7.18,7.32-12.26c0.23-1.66,0.46-3.4,0.69-5.2c0.17-1.32,0.34-2.67,0.51-4.04
								c0.19-1.52,0.37-3.07,0.55-4.63c0.05-0.46,0.1-0.92,0.16-1.39c0.19-1.71,0.38-3.43,0.55-5.14c0.02-0.23,0.05-0.45,0.07-0.68
								c0.18-1.85,0.35-3.68,0.5-5.48c0.18-2.15,0.33-4.25,0.45-6.27c0.1-1.8,0.18-3.53,0.23-5.16c0.01-0.37,0.01-0.73,0.02-1.09
								c0-0.29,0.01-0.57,0.01-0.85c0-0.19,0.01-0.4,0.01-0.59c0,0.19,0.01,0.4,0.01,0.59c0,0.28,0.01,0.56,0.01,0.85
								c0.06,3.66,0.31,7.83,0.67,12.24c0.16,2,0.35,4.04,0.56,6.1c0.41,4.11,0.89,8.27,1.38,12.25c0.37,2.98,0.75,5.85,1.11,8.51
								c0.08,0.56,0.18,1.12,0.31,1.66c0.46,1.97,1.24,3.79,2.26,5.44c0.19,0.3,0.38,0.6,0.58,0.89c1.77,2.52,4.15,4.57,6.93,5.92
								c2.42,1.18,5.13,1.83,7.97,1.83l0,0h63.98c7.97,0,14.87-5.14,17.3-12.48c0.35-1.05,0.6-2.14,0.75-3.27
								c1.33-9.79,2.86-22.45,3.47-32.83c0.1-1.8,0.18-3.53,0.23-5.16C1597.21,517.08,1597.22,516.73,1597.22,516.36z"/>
							<path class="st5" d="M1812.33,515.51c0-0.21,0.01-0.43,0.01-0.63c0-0.19,0-0.35,0-0.54c0-0.39-0.01-0.76-0.01-1.14
								c0-0.28-0.01-0.57-0.02-0.84c-0.02-0.65-0.04-1.28-0.08-1.88c-0.56-9.14-1.26-18.27-2.12-27.39v-2.42l0,0
								c0-4.66-0.62-9.24-1.79-13.68c-0.78-2.96-1.8-5.85-3.04-8.65c-1.86-4.21-4.22-8.21-7-11.95c-1.69-2.27-2.99-4.79-3.86-7.44
								c-0.88-2.65-1.33-5.43-1.33-8.25v-8c0-0.99,0.06-1.97,0.17-2.95c0.17-1.53,0.48-3.04,0.92-4.52
								c0.16-0.54,0.33-1.08,0.53-1.62c0.15-0.41,0.32-0.83,0.49-1.23l2.13-4.99c2.08-4.86,3.42-9.96,4.02-15.12
								c0.2-1.72,0.32-3.45,0.36-5.18c0.15-6.92-1.02-13.87-3.51-20.47l-4.56-12.1l0,0l-13.23-35.07c-0.15-0.41-0.43-0.75-0.77-0.98
								c-0.34-0.24-0.75-0.37-1.19-0.37v-3.92h1.21c0.91,0,1.69-0.55,2.03-1.34c0.11-0.26,0.17-0.55,0.17-0.86v0v-14.29l0,0
								c0-0.15-0.02-0.3-0.04-0.44c-0.09-0.43-0.3-0.81-0.6-1.11c-0.2-0.2-0.44-0.36-0.7-0.47c-0.26-0.11-0.55-0.17-0.86-0.17h-5.02
								h-37.21c-1.21,0-2.2,0.98-2.2,2.2V312c0,1.21,0.98,2.2,2.2,2.2h1.21v3.92h0c-0.87,0-1.65,0.54-1.96,1.35l-17.79,47.17
								c-1.25,3.3-2.16,6.68-2.74,10.11c-0.15,0.86-0.27,1.72-0.38,2.58c-0.31,2.58-0.44,5.18-0.39,7.78
								c0.04,1.73,0.16,3.46,0.36,5.18c0.18,1.58,0.45,3.16,0.77,4.73c0.73,3.54,1.81,7.02,3.25,10.39l2.13,4.99
								c1.39,3.26,2.11,6.78,2.11,10.32v8c0,3.74-0.81,7.41-2.33,10.79c-0.51,1.13-1.09,2.23-1.75,3.28
								c-1.66,2.66-3.16,5.4-4.52,8.21c-2.71,5.6-4.83,11.48-6.3,17.52c-0.4,1.65-0.75,3.31-1.06,4.98
								c-0.3,1.67-0.56,3.36-0.77,5.05c-0.1,0.85-0.2,1.69-0.28,2.54v0c-0.81,8.64-1.47,17.29-2.02,25.95v0
								c-0.03,0.48-0.07,0.96-0.1,1.44c-0.04,0.59-0.06,1.23-0.08,1.88c-0.01,0.27-0.01,0.55-0.01,0.83
								c-0.01,0.38-0.01,0.76-0.01,1.15c0,0.16,0,0.31,0,0.48c0-0.17,0-0.32,0-0.48c0-0.39-0.01-0.77-0.01-1.14
								c0-0.28-0.01-0.56-0.02-0.83c-0.02-0.65-0.04-1.29-0.08-1.88c-0.56-9.14-1.26-18.27-2.12-27.39v-2.42l0,0
								c0-4.66-0.62-9.24-1.79-13.68c-0.78-2.96-1.8-5.85-3.04-8.65c-1.86-4.21-4.22-8.21-7-11.95c-1.69-2.27-2.99-4.79-3.86-7.44
								c-0.88-2.65-1.33-5.43-1.33-8.25v-8c0-3.11,0.55-6.18,1.62-9.09c0.15-0.41,0.32-0.83,0.49-1.23l2.13-4.99
								c2.08-4.86,3.42-9.96,4.02-15.12c0.2-1.72,0.32-3.45,0.36-5.18c0.15-6.92-1.02-13.87-3.51-20.47l-17.79-47.17
								c-0.31-0.81-1.09-1.35-1.96-1.35v-3.92h1.21l0,0c0.46,0,0.88-0.14,1.23-0.38c0.12-0.08,0.23-0.17,0.33-0.27
								c0.2-0.2,0.36-0.44,0.47-0.7c0.11-0.26,0.17-0.55,0.17-0.86v0v-14.29l0,0c0-0.15-0.02-0.3-0.05-0.44
								c-0.03-0.14-0.07-0.28-0.13-0.41c-0.33-0.79-1.12-1.34-2.03-1.34l0,0h-5.02h-37.21c-1.21,0-2.2,0.98-2.2,2.2V312
								c0,1.21,0.98,2.2,2.2,2.2h1.21v3.92l0,0c-0.87,0-1.65,0.54-1.96,1.35l-17.79,47.17c-0.93,2.47-1.68,5-2.24,7.55
								c-0.56,2.55-0.94,5.14-1.13,7.73c-0.13,1.73-0.17,3.46-0.13,5.19c0.15,6.92,1.61,13.82,4.38,20.3l2.13,4.99
								c0.52,1.22,0.95,2.48,1.28,3.77c0.55,2.14,0.83,4.34,0.83,6.56v8c0,3.74-0.81,7.41-2.33,10.79
								c-0.51,1.13-1.09,2.23-1.75,3.28c-1.36,2.17-2.61,4.4-3.77,6.67c-3.08,6.06-5.45,12.46-7.05,19.06
								c-0.4,1.65-0.75,3.31-1.06,4.98c-0.31,1.67-0.56,3.36-0.77,5.05c-0.1,0.85-0.2,1.69-0.28,2.54v0
								c-0.81,8.64-1.47,17.29-2.02,25.95v0c-0.03,0.48-0.07,0.96-0.1,1.44c-0.04,0.59-0.06,1.23-0.08,1.88
								c-0.01,0.27-0.01,0.55-0.02,0.83c-0.01,0.38-0.01,0.76-0.01,1.15c0,0.18-0.01,0.35-0.01,0.53c0,0.2,0.01,0.42,0.01,0.63
								c0,0.28,0.01,0.56,0.01,0.85c0.06,3.66,0.31,7.83,0.67,12.24c0.16,2,0.35,4.04,0.56,6.1c0.21,2.06,0.43,4.12,0.66,6.18
								c0.58,5.13,1.22,10.15,1.83,14.58c0.08,0.56,0.18,1.12,0.31,1.66c0.31,1.36,0.79,2.64,1.39,3.86
								c0.22,0.44,0.45,0.87,0.7,1.29c0.37,0.62,0.77,1.22,1.21,1.79c0.41,0.54,0.84,1.06,1.31,1.55c0.02,0.02,0.04,0.03,0.06,0.05
								c0.65,0.67,1.36,1.29,2.1,1.85c0.79,0.6,1.63,1.12,2.51,1.59c2.54,1.34,5.43,2.1,8.47,2.1l0,0h63.98
								c7.97,0,14.87-5.14,17.29-12.48c0.35-1.05,0.6-2.14,0.76-3.27c1.33-9.79,2.86-22.45,3.47-32.83c0.1-1.8,0.18-3.53,0.23-5.16
								c0.01-0.37,0.01-0.73,0.02-1.09c0-0.29,0.01-0.57,0.01-0.85c0-0.19,0.01-0.4,0.01-0.59c0,0.19,0.01,0.4,0.01,0.59
								c0,0.28,0.01,0.57,0.01,0.86c0.18,10.3,1.82,24.83,3.35,36.35c0.12,0.93,0.25,1.84,0.37,2.73c0.08,0.56,0.18,1.12,0.31,1.66
								c0.45,1.97,1.24,3.79,2.26,5.44c0.19,0.3,0.38,0.6,0.58,0.89c1.77,2.52,4.15,4.57,6.93,5.92c2.42,1.18,5.13,1.83,7.98,1.83
								l0,0h63.98c1.71,0,3.37-0.24,4.94-0.68c1.05-0.3,2.07-0.68,3.03-1.15c1.45-0.71,2.8-1.6,4-2.65
								c3.22-2.81,5.46-6.74,6.07-11.26c0.23-1.66,0.46-3.4,0.69-5.2c0.17-1.32,0.34-2.67,0.51-4.04c0.19-1.52,0.37-3.07,0.55-4.63
								c0.17-1.45,0.33-2.91,0.48-4.37c0.18-1.69,0.35-3.37,0.5-5.04c0.47-5.1,0.83-10.04,0.95-14.35l0,0l0,0
								c0.01-0.5,0.02-0.97,0.03-1.45C1812.33,516.08,1812.33,515.79,1812.33,515.51z"/>
							<path class="st5" d="M1919.85,517.45c0.01-0.37,0.01-0.73,0.02-1.09c0.01-0.29,0.01-0.57,0.01-0.85
								c0-0.21,0.01-0.43,0.01-0.63c0-0.19,0-0.35,0-0.54c0-0.39-0.01-0.76-0.01-1.14c0-0.28-0.01-0.57-0.01-0.84
								c-0.02-0.65-0.04-1.28-0.08-1.88c-0.56-9.14-1.26-18.27-2.12-27.39v-2.42l0,0c0-4.66-0.62-9.24-1.79-13.68
								c-0.78-2.96-1.8-5.85-3.04-8.65c-0.47-1.06-0.98-2.1-1.51-3.14c-0.75-1.45-1.55-2.88-2.41-4.27
								c-0.35-0.56-0.7-1.12-1.07-1.67c-0.39-0.58-0.78-1.16-1.19-1.74c-0.27-0.38-0.54-0.77-0.82-1.14
								c-0.23-0.3-0.43-0.62-0.64-0.94c-0.79-1.17-1.48-2.39-2.07-3.65c-0.43-0.93-0.83-1.88-1.15-2.85
								c-0.88-2.65-1.33-5.43-1.33-8.25v-8c0-0.99,0.06-1.97,0.17-2.95c0.17-1.53,0.48-3.04,0.92-4.52
								c0.07-0.23,0.14-0.46,0.21-0.68c0.24-0.73,0.51-1.46,0.81-2.17l2.13-4.99c2.08-4.86,3.42-9.96,4.02-15.12
								c0.2-1.72,0.32-3.45,0.36-5.18c0.15-6.92-1.02-13.87-3.51-20.47l-17.79-47.17c-0.23-0.61-0.73-1.07-1.33-1.26
								c-0.2-0.06-0.41-0.1-0.63-0.1v-3.92h1.21c0.15,0,0.3-0.02,0.44-0.04c0.29-0.06,0.55-0.17,0.79-0.33
								c0.12-0.08,0.23-0.17,0.33-0.27c0.2-0.2,0.36-0.44,0.47-0.7c0.11-0.26,0.17-0.55,0.17-0.86v0v-14.29l0,0
								c0-0.15-0.02-0.3-0.04-0.44c-0.03-0.14-0.07-0.28-0.13-0.41c-0.28-0.66-0.87-1.15-1.58-1.3c-0.14-0.03-0.29-0.05-0.44-0.05
								h-5.02h-37.21c-1.21,0-2.2,0.98-2.2,2.2V312c0,1.21,0.98,2.2,2.2,2.2h1.21v3.92l0,0c-0.87,0-1.65,0.54-1.96,1.35
								l-17.79,47.17c-1.24,3.3-2.16,6.68-2.74,10.11c-0.15,0.86-0.27,1.72-0.38,2.58c-0.31,2.58-0.44,5.18-0.39,7.78
								c0.06,2.6,0.3,5.19,0.72,7.75c0.71,4.28,1.93,8.49,3.66,12.54l2.13,4.99c1.39,3.26,2.11,6.78,2.11,10.32v8
								c0,3.74-0.81,7.41-2.33,10.79c-0.51,1.13-1.09,2.23-1.75,3.28c-2.05,3.29-3.87,6.71-5.47,10.23
								c-2.26,4.99-4.06,10.18-5.36,15.5c-0.4,1.65-0.75,3.31-1.06,4.98c-0.31,1.67-0.56,3.36-0.77,5.05
								c-0.1,0.85-0.2,1.69-0.27,2.54v0c-0.81,8.64-1.47,17.29-2.02,25.95v0c-0.03,0.48-0.07,0.96-0.1,1.44
								c-0.04,0.59-0.06,1.23-0.08,1.88c-0.01,0.27-0.01,0.55-0.01,0.83c-0.01,0.38-0.01,0.76-0.01,1.15c0,0.18-0.01,0.35-0.01,0.53
								c0,0.2,0.01,0.42,0.01,0.63c0,0.28,0.01,0.56,0.01,0.85c0.06,3.66,0.31,7.83,0.67,12.24c0.17,2,0.35,4.04,0.56,6.1
								c0.41,4.11,0.89,8.27,1.38,12.25c0.37,2.98,0.74,5.85,1.11,8.51c0.08,0.56,0.18,1.12,0.31,1.66
								c0.46,1.97,1.24,3.79,2.26,5.44c0.19,0.3,0.38,0.6,0.58,0.89c1.77,2.52,4.15,4.57,6.93,5.92c2.42,1.18,5.13,1.83,7.98,1.83
								l0,0h63.98c7.97,0,14.87-5.14,17.29-12.48c0.35-1.05,0.6-2.14,0.75-3.27c0.99-7.23,2.08-16.02,2.82-24.31
								C1919.42,526.26,1919.74,521.56,1919.85,517.45z"/>
						</g>
						<polygon class="st5" points="380.88,1249.12 380.88,1240.45 331,1240.45 331,1249.12 321.39,1249.12 321.39,1558.1 
							498.92,1558.1 498.92,1249.12 						"/>
						<polygon class="st5" points="580.52,1249.12 580.52,1240.45 530.64,1240.45 530.64,1249.12 521.03,1249.12 521.03,1558.1 
							698.57,1558.1 698.57,1249.12 						"/>
						<polygon class="st5" points="780.94,1249.12 780.94,1240.45 731.05,1240.45 731.05,1249.12 721.45,1249.12 721.45,1558.1 
							898.98,1558.1 898.98,1249.12 						"/>
						<polygon class="st5" points="981.36,1249.12 981.36,1240.45 931.47,1240.45 931.47,1249.12 921.87,1249.12 921.87,1558.1 
							1099.4,1558.1 1099.4,1249.12 						"/>
						<polygon class="st5" points="1181.77,1249.12 1181.77,1240.45 1131.89,1240.45 1131.89,1249.12 1122.28,1249.12 
							1122.28,1558.1 1299.81,1558.1 1299.81,1249.12 						"/>
					</g>
				</g>
			</g>
			<linearGradient id="SVGID_3_" gradientUnits="userSpaceOnUse" x1="235.115" y1="976.3701" x2="2036.9558" y2="976.3701">
				<stop  offset="0" style="stop-color:#1F90F2"/>
				<stop  offset="1" style="stop-color:#A3D6FF"/>
			</linearGradient>
			<path class="st8" d="M1194.55,259.86C632.93,367.61,396.61,499.45,352.72,949.99c-32,328.49-389.91,808.37,325.88,768.56
				c883.02-49.11,833.14-190.69,1152.99-532.89C2201.21,790.21,2119.06,82.5,1194.55,259.86z"/>
		</g>
		<g>
			<path class="st9" d="M575.72,1768.85c0,33.47-27.13,60.6-60.6,60.6c-33.47,0-60.6-27.13-60.6-60.6c0-33.47,27.13-60.6,60.6-60.6
				C548.59,1708.25,575.72,1735.38,575.72,1768.85z"/>
			<path class="st9" d="M1077.76,1768.85c0,33.47-27.13,60.6-60.6,60.6c-33.47,0-60.6-27.13-60.6-60.6c0-33.47,27.13-60.6,60.6-60.6
				C1050.63,1708.25,1077.76,1735.38,1077.76,1768.85z"/>
			<path class="st10" d="M485.4,1767.65l-4.91,0.86c-12.28,2.15-23.98-6.06-26.14-18.34l-11.86-67.66l50.89-0.08l10.36,59.09
				C505.89,1753.79,497.68,1765.49,485.4,1767.65z"/>
			<path class="st10" d="M987.43,1767.65l-4.91,0.86c-12.28,2.15-23.99-6.06-26.14-18.34l-11.86-67.66l50.89-0.08l10.36,59.09
				C1007.93,1753.79,999.71,1765.49,987.43,1767.65z"/>
			<g>
				<path class="st10" d="M1003.32,1686.38H423.29c-4.27,0-7.73-3.46-7.73-7.74c0-4.27,3.46-7.73,7.73-7.73h580.03
					c42.77,0,64.52-52.13,34.17-82.48c-33-33-76.8-53.32-123.31-57.19l-157.05-13.09c-4.26-0.36-7.42-4.09-7.07-8.35
					c0.35-4.26,4.43-7.05,8.71-6.7l156.69,12.73c50.15,4.18,97.38,26.08,132.96,61.67c12.05,12.05,18.69,28.06,18.69,45.1
					C1067.11,1657.76,1038.49,1686.38,1003.32,1686.38z"/>
			</g>
			<g>
				<path class="st10" d="M1016.84,1518.17c-4.27,0-7.73-3.46-7.73-7.73v-355.44c0-68.22,53.35-124.73,121.47-128.65l110.09-6.33
					c4.31-0.27,7.92,3.01,8.17,7.28c0.24,4.26-3.01,7.92-7.28,8.16l-110.09,6.33c-59.94,3.44-106.89,53.17-106.89,113.21v355.44
					C1024.57,1514.71,1021.11,1518.17,1016.84,1518.17z"/>
			</g>
			<path class="st10" d="M1025.99,1193.03l-1.41-1.6H499.52c-6.6,0-11.58,5.98-10.4,12.47l56.06,307.68
				c0.69,3.82,4.02,6.59,7.9,6.59h471.5l1.41-1.6V1193.03z M535.47,1372.05h67.13l9.08,59.7h-65.33L535.47,1372.05z
				 M1009.11,1273.76h-51.95v-66.86h51.95V1273.76z M957.15,1431.75v-59.7h51.95v59.7H957.15z M1009.11,1442.71v60h-51.95v-60
				H1009.11z M957.15,1361.09v-76.37h51.95v76.37H957.15z M946.2,1273.76h-89.31v-66.86h89.31V1273.76z M946.2,1284.72v76.37h-89.31
				v-76.37H946.2z M946.2,1372.05v59.7h-89.31v-59.7H946.2z M946.2,1442.71v60h-89.31v-60H946.2z M848.55,1273.76H706.53
				l-7.68-66.86h149.69V1273.76z M848.55,1284.72v76.37H716.56l-8.77-76.37H848.55z M848.55,1372.05v59.7H724.67l-6.85-59.7H848.55z
				 M848.55,1442.71v60H732.81l-6.89-60H848.55z M686.5,1206.9l7.67,66.86h-92.22l-10.17-66.86H686.5z M695.43,1284.72l8.77,76.37
				h-88.97l-11.62-76.37H695.43z M600.94,1361.09h-67.46l-13.92-76.37h69.76L600.94,1361.09z M616.9,1372.05h88.56l6.85,59.7h-86.33
				L616.9,1372.05z M713.57,1442.71l6.89,60h-83.68l-9.12-60H713.57z M577.49,1206.9l10.17,66.86h-70.09l-12.18-66.86H577.49z
				 M548.35,1442.71h65l9.13,60h-63.2L548.35,1442.71z"/>
			<path class="st11" d="M1507.79,1743.12l-16.12,44.81l-37.9-20.42c0,0,1.92-6.47,5.81-9.14c3.89-2.67,14.86-60.06,14.86-60.06
				L1507.79,1743.12z"/>
			<path class="st12" d="M1853.81,1693.55l36.13-27.57c0,0-105.61-233.04-105.61-288.33c0-55.29,30.46-344.75-6.28-381.49
				c-36.74-36.74-35.94-77.4-35.94-77.4l-133.44,66.35c0,0,14.57,312.38,53.28,428.48
				C1700.65,1529.69,1853.81,1693.55,1853.81,1693.55z"/>
			<path class="st13" d="M1778.05,996.17c-28.21-28.21-34.28-58.71-35.58-71.37c-1.35-1.57-2.62-3.02-3.79-4.33l-130.01,64.64
				c0,0,10.38,222.38,36.87,361.62c52.54-86.93,156.93-174.22,149.21-279.92C1792.55,1031.99,1787.54,1005.65,1778.05,996.17z"/>
			<path class="st14" d="M1637.45,993.4c0,0-191.12,298.55-202.18,356.61c-11.06,58.05,26.81,375.63,26.81,375.63l52.97,17.48
				c0,0,32.87-324.69,72.26-364.08c39.39-39.39,181.29-225.88,197.02-261.24c25.79-57.98-20.1-165.86-20.1-165.86L1637.45,993.4z"/>
			<path class="st13" d="M1764.23,951.94l-126.79,41.46c0,0-23.18,36.2-53.85,85.84c4.04,2.97,8.22,5.51,12.54,7.57
				c50.15,23.84,145.98-30.7,181.91-68.53c2.05-2.15,3.57-5.67,4.6-10.36C1774.55,976.21,1764.23,951.94,1764.23,951.94z"/>
			<path class="st15" d="M1488.44,445.59c0,0-33.03,4.19-40.94,18.14c-7.91,13.96-10.23,109.8,8.84,118.64
				c19.08,8.84,70.72-23.73,73.97-63.27C1533.57,479.55,1488.44,445.59,1488.44,445.59z"/>
			<path class="st16" d="M1447.49,463.73c7.91-13.96,40.94-18.14,40.94-18.14s21.2,15.95,33.49,38.73
				c-4.65,3.4-8.32,4.94-10.04,3.21c-6.13-6.13-48.41-3.3-68.3-7.31C1444.6,472.41,1445.94,466.48,1447.49,463.73z"/>
			<polygon class="st15" points="1605.68,583.83 1530.31,519.1 1481.92,562.83 1522.4,624.24 			"/>
			<path class="st16" d="M1481.92,562.83l48.38-43.73l11.32,9.72l-2.33,1.15c-4.9,2.42-7.33,8.01-5.74,13.23
				c5.4,17.74,13.35,57.27-16.37,73.14L1481.92,562.83z"/>
			<path class="st17" d="M1468.9,545.62c10,10,43.44-38.33,43.44-55.54c0-17.21-52.08-13.92-70.7-22.76
				c-18.61-8.84-30.51-44.99,0-58.01c30.51-13.03,47.72,1.4,47.72,1.4s28.84-8.38,54.43,0.93c25.59,9.31,28.38,29.31,28.38,29.31
				s15.35,0.47,19.07,28.84c3.72,28.38-21.21,83.44-21.21,83.44l-39.57-30.41l-0.75,0.45c-6.61,3.98-9.25,12.24-6.14,19.32
				c3.36,7.65,6.89,17.55,6.89,25.36c0,9.12-8.61,28.7-27.14,40.91c-21.78,14.35-51.51,4.18-60.74-20.21
				c-5.06-13.38-8.95-27.42-5.8-33.25C1443.58,542.82,1458.89,535.61,1468.9,545.62z"/>
			<path class="st15" d="M1511.89,487.53c0,0,14.88-12.82,25.02-2.68c10.14,10.14,8.56,19.78-2.37,27.43
				c-10.93,7.65-27.24-5.29-27.24-5.29L1511.89,487.53z"/>
			<path class="st18" d="M1559.67,581.51c0,0-69.11,121.63-69.11,204.57c0,82.93,33.43,242.61,105.58,275.19
				c50.15,22.65,145.98-29.16,181.91-65.1C1813.99,960.23,1689.59,528.98,1559.67,581.51z"/>
			<path class="st19" d="M1539.73,999.79c30.06-9.29,58.65-31.59,72.96-79.32c37.98-126.57-0.09-323.71-0.09-323.71l-10.76-16.13
				l-106.66,267.08C1502.07,898.18,1516.73,956.12,1539.73,999.79z"/>
			<path class="st11" d="M1888.89,1663.03l27.12,27.42l-24.94,28.11c0,0-7.48-9.69-9.33-14.03c-1.85-4.34-24.53-20.76-24.53-20.76
				L1888.89,1663.03z"/>
			<path class="st20" d="M1956.21,1700.46c0,0-3.15-10.97-15.54-15.94c-12.39-4.97-28.06-8.02-30.23-7.09
				c-2.17,0.93-9.19,22.92-16.79,26.16c-7.59,3.25-25.5-1.42-25.5-1.42s-6.58,11.02-2.45,33.89c4.13,22.87-16.54,60.96-20.02,69.63
				c-3.48,8.67,9.4,15.99,9.4,15.99S1900.21,1816.78,1956.21,1700.46z"/>
			<polygon class="st21" points="1900.6,1665.21 1852.92,1695.34 1838.62,1687.09 1889.03,1650.14 			"/>
			<path class="st20" d="M1484.32,1827.82c0,0,10.14-5.25,12.57-18.37c2.44-13.12,2.35-29.09,1.01-31.04
				c-1.33-1.94-24.28-4.51-28.95-11.31c-4.68-6.81-3.62-25.28-3.62-25.28s-12.1-4.29-33.71,4.26c-21.61,8.54-63.02-4.23-72.21-5.94
				c-9.19-1.71-13.84,12.36-13.84,12.36S1359.26,1795.77,1484.32,1827.82z"/>
			<polygon class="st21" points="1515.95,1758.36 1453.77,1730.16 1455.9,1706.87 1528.16,1738.12 			"/>
			<path class="st15" d="M1265.97,994.92c-4.65,4.65-58.48,4.88-71.31,4.88c-12.83,0-36.38,21.57-33.18,24.78
				c3.2,3.21,32.8-1.88,32.8-1.88s15.4,10.14,0.76,15.45c-14.64,5.3,5.01,7.8,12.83,7.8c7.82,0,67.01-13.91,67.01-13.91
				L1265.97,994.92z"/>
			<path class="st18" d="M1612.61,596.76c0,0,3.73,251.51-37.73,322.01c-41.47,70.49-299.99,119.03-299.99,119.03l-26.04-58.47
				c0,0,204.39-63.32,218.21-100.64c13.82-37.32,40.95-221.26,55.34-254.44C1539.31,585.26,1602.93,545.61,1612.61,596.76z"/>
		</g>
	</g>
</g>
</svg>
