<?xml version="1.0" encoding="utf-8"?>
<!-- Generator: Adobe Illustrator 24.2.1, SVG Export Plug-In . SVG Version: 6.00 Build 0)  -->
<svg version="1.1" xmlns="http://www.w3.org/2000/svg" xmlns:xlink="http://www.w3.org/1999/xlink" x="0px" y="0px"
	 viewBox="0 0 500 500" style="enable-background:new 0 0 500 500;" xml:space="preserve">
<style type="text/css">
	.st0{fill:#FFFFFF;}
	.st1{clip-path:url(#SVGID_2_);}
	.st2{fill:#EAEAEA;}
	.st3{fill:#03091C;}
	.st4{fill:#FFFFFF;stroke:#03091C;stroke-width:0.8633;stroke-linecap:round;stroke-linejoin:round;stroke-miterlimit:10;}
	.st5{fill:none;stroke:#03091C;stroke-width:0.8633;stroke-linecap:round;stroke-linejoin:round;stroke-miterlimit:10;}
	.st6{fill:#F94E4E;}
	.st7{fill:none;stroke:#FFFFFF;stroke-width:1.586;stroke-linecap:round;stroke-linejoin:round;stroke-miterlimit:10;}
	.st8{fill:none;stroke:#FFFFFF;stroke-width:1.0249;stroke-linecap:round;stroke-linejoin:round;stroke-miterlimit:10;}
	.st9{clip-path:url(#SVGID_4_);}
	.st10{fill:#683424;}
	.st11{fill:none;stroke:#03091C;stroke-width:0.8701;stroke-linecap:round;stroke-linejoin:round;stroke-miterlimit:10;}
	.st12{fill:#FDBE8B;}
	.st13{fill:#FFAA71;}
	.st14{fill:none;stroke:#683424;stroke-width:0.8701;stroke-linecap:round;stroke-linejoin:round;stroke-miterlimit:10;}
	.st15{fill:none;stroke:#03091C;stroke-width:1.5;stroke-linecap:round;stroke-linejoin:round;stroke-miterlimit:10;}
	.st16{fill:none;stroke:#FFFFFF;stroke-width:0.8701;stroke-linecap:round;stroke-linejoin:round;stroke-miterlimit:10;}
	.st17{fill:none;stroke:#03091C;stroke-width:0.8909;stroke-linecap:round;stroke-linejoin:round;stroke-miterlimit:10;}
	.st18{fill:#265472;}
	.st19{fill:none;stroke:#03091C;stroke-width:0.8475;stroke-linecap:round;stroke-linejoin:round;stroke-miterlimit:10;}
	.st20{fill:#528869;}
	.st21{fill:#1C2B1C;}
	.st22{fill:none;stroke:#683424;stroke-width:0.8475;stroke-linecap:round;stroke-linejoin:round;stroke-miterlimit:10;}
</style>
<g id="BACKGROUND">
	<rect class="st0" width="500" height="500"/>
</g>
<g id="OBJECTS">
	<g>
		<defs>
			<rect id="SVGID_1_" x="1" width="500" height="500"/>
		</defs>
		<clipPath id="SVGID_2_">
			<use xlink:href="#SVGID_1_"  style="overflow:visible;"/>
		</clipPath>
		<g class="st1">
			<g>
				<g>
					<g>
						<path class="st2" d="M461.11,271.46l-13.72-6.65v-4.52c0-8.5-6.89-15.38-15.38-15.38H325.7c-8.5,0-15.38,6.89-15.38,15.38
							v51.76c0,8.5,6.89,15.38,15.38,15.38H432c8.5,0,15.38-6.89,15.38-15.38v-35.57L461.11,271.46z"/>
					</g>
					<g>
						<path class="st2" d="M197.81,399.54l-13.72-6.65v-4.52c0-8.5-6.89-15.38-15.38-15.38H62.4c-8.5,0-15.38,6.89-15.38,15.38
							v51.76c0,8.5,6.89,15.38,15.38,15.38h106.3c8.5,0,15.38-6.89,15.38-15.38v-35.57L197.81,399.54z"/>
					</g>
					<polygon class="st2" points="457.21,330.55 459.42,335.03 464.36,335.75 460.78,339.23 461.63,344.15 457.21,341.83 
						452.79,344.15 453.63,339.23 450.06,335.75 455,335.03 					"/>
					<polygon class="st2" points="71.69,245.71 73.9,250.19 78.84,250.9 75.26,254.39 76.11,259.31 71.69,256.99 67.27,259.31 
						68.11,254.39 64.54,250.9 69.48,250.19 					"/>
					<polygon class="st2" points="89.24,245.71 91.45,250.19 96.39,250.9 92.82,254.39 93.66,259.31 89.24,256.99 84.82,259.31 
						85.67,254.39 82.09,250.9 87.03,250.19 					"/>
				</g>
				<g>
					<rect x="325.42" y="109.66" class="st3" width="8.09" height="18.44"/>
					<rect x="325.42" y="140.59" class="st3" width="8.09" height="44.5"/>
					<path class="st3" d="M317.32,425.14H131.33c-6.33,0-11.46-5.13-11.46-11.46V79.78c0-6.33,5.13-11.46,11.46-11.46h185.99
						c6.33,0,11.46,5.13,11.46,11.46v333.9C328.78,420.01,323.65,425.14,317.32,425.14z"/>
					<g>
						<path class="st4" d="M275.69,76.9L275.69,76.9c0,10.83-8.78,10.99-19.62,10.99h-63.49c-10.83,0-19.62-0.15-19.62-10.99l0,0
							h-33.57c-6.33,0-11.46,5.13-11.46,11.46v317.6c0,6.33,5.13,11.46,11.46,11.46h169.87c6.33,0,11.46-5.13,11.46-11.46V88.36
							c0-6.33-5.13-11.46-11.46-11.46H275.69z"/>
					</g>
					<path class="st5" d="M317.32,425.14H131.33c-6.33,0-11.46-5.13-11.46-11.46V79.78c0-6.33,5.13-11.46,11.46-11.46h185.99
						c6.33,0,11.46,5.13,11.46,11.46v333.9C328.78,420.01,323.65,425.14,317.32,425.14z"/>
					<path class="st0" d="M250.84,81.84h-42.33c-1.35,0-2.44-1.09-2.44-2.44l0,0c0-1.35,1.09-2.44,2.44-2.44h42.33
						c1.35,0,2.44,1.09,2.44,2.44l0,0C253.29,80.75,252.19,81.84,250.84,81.84z"/>
					<path class="st0" d="M200.62,79.4c0,1.45-1.18,2.63-2.63,2.63c-1.45,0-2.63-1.18-2.63-2.63c0-1.45,1.18-2.63,2.63-2.63
						C199.44,76.77,200.62,77.95,200.62,79.4z"/>
				</g>
				<g>
					<path class="st6" d="M342.48,67.91l10.11-4.9v-3.33c0-6.26,5.07-11.33,11.33-11.33h78.31c6.26,0,11.33,5.07,11.33,11.33v38.13
						c0,6.26-5.07,11.33-11.33,11.33h-78.31c-6.26,0-11.33-5.07-11.33-11.33v-26.2L342.48,67.91z"/>
					<polygon class="st0" points="373.31,60.98 375.01,66.24 380.54,66.24 376.07,69.49 377.78,74.74 373.31,71.5 368.83,74.74 
						370.54,69.49 366.07,66.24 371.6,66.24 					"/>
					<line class="st7" x1="439.16" y1="82.67" x2="366.04" y2="82.67"/>
					<line class="st7" x1="439.16" y1="88.22" x2="366.04" y2="88.22"/>
					<line class="st7" x1="439.16" y1="93.77" x2="376.35" y2="93.77"/>
					<g>
						<path class="st0" d="M433.11,63.83l0.87,2.68c0.12,0.36,0.46,0.61,0.84,0.61h2.82l-2.28,1.66c-0.31,0.22-0.44,0.62-0.32,0.98
							l0.87,2.68l-2.28-1.66c-0.15-0.11-0.34-0.17-0.52-0.17c-0.18,0-0.36,0.06-0.52,0.17l-2.28,1.66l0.87-2.68
							c0.12-0.36-0.01-0.76-0.32-0.98l-2.28-1.66h2.82c0.38,0,0.72-0.25,0.84-0.61L433.11,63.83 M433.11,60.98l-1.71,5.26h-5.53
							l4.47,3.25l-1.71,5.26l4.47-3.25l4.47,3.25l-1.71-5.26l4.47-3.25h-5.53L433.11,60.98L433.11,60.98z M440.35,66.24
							L440.35,66.24L440.35,66.24z"/>
					</g>
					<g>
						<path class="st0" d="M388.26,63.83l0.87,2.68c0.12,0.36,0.46,0.61,0.84,0.61h2.82l-2.28,1.66c-0.31,0.22-0.44,0.62-0.32,0.98
							l0.87,2.68l-2.28-1.66c-0.15-0.11-0.34-0.17-0.52-0.17c-0.18,0-0.36,0.06-0.52,0.17l-2.28,1.66l0.87-2.68
							c0.12-0.36-0.01-0.76-0.32-0.98l-2.28-1.66h2.82c0.38,0,0.72-0.25,0.84-0.61L388.26,63.83 M388.26,60.98l-1.71,5.26h-5.53
							l4.47,3.25l-1.71,5.26l4.47-3.25l4.47,3.25l-1.71-5.26l4.47-3.25h-5.53L388.26,60.98L388.26,60.98z M395.49,66.24
							L395.49,66.24L395.49,66.24z"/>
					</g>
					<g>
						<path class="st0" d="M403.21,63.83l0.87,2.68c0.12,0.36,0.46,0.61,0.84,0.61h2.82l-2.28,1.66c-0.31,0.22-0.44,0.62-0.32,0.98
							l0.87,2.68l-2.28-1.66c-0.15-0.11-0.34-0.17-0.52-0.17c-0.18,0-0.36,0.06-0.52,0.17l-2.28,1.66l0.87-2.68
							c0.12-0.36-0.01-0.76-0.32-0.98l-2.28-1.66h2.82c0.38,0,0.72-0.25,0.84-0.61L403.21,63.83 M403.21,60.98l-1.71,5.26h-5.53
							l4.47,3.25l-1.71,5.26l4.47-3.25l4.47,3.25l-1.71-5.26l4.47-3.25h-5.53L403.21,60.98L403.21,60.98z M410.45,66.24
							L410.45,66.24L410.45,66.24z"/>
					</g>
					<g>
						<path class="st0" d="M418.16,63.83l0.87,2.68c0.12,0.36,0.46,0.61,0.84,0.61h2.82l-2.28,1.66c-0.31,0.22-0.44,0.62-0.32,0.98
							l0.87,2.68l-2.28-1.66c-0.15-0.11-0.34-0.17-0.52-0.17c-0.18,0-0.36,0.06-0.52,0.17l-2.28,1.66l0.87-2.68
							c0.12-0.36-0.01-0.76-0.32-0.98l-2.28-1.66h2.82c0.38,0,0.72-0.25,0.84-0.61L418.16,63.83 M418.16,60.98l-1.71,5.26h-5.53
							l4.47,3.25l-1.71,5.26l4.47-3.25l4.47,3.25l-1.71-5.26l4.47-3.25h-5.53L418.16,60.98L418.16,60.98z M425.4,66.24L425.4,66.24
							L425.4,66.24z"/>
					</g>
				</g>
				<g>
					<path class="st6" d="M342.48,133.65l10.34-5.01v-3.41c0-6.4,5.19-11.59,11.59-11.59h20.64c6.4,0,11.59,5.19,11.59,11.59v18.5
						c0,6.4-5.19,11.59-11.59,11.59h-20.64c-6.4,0-11.59-5.19-11.59-11.59v-6.3L342.48,133.65z"/>
					<g>
						<path class="st8" d="M363.99,134.48c0,5.17,4.19,9.35,9.35,9.35c5.17,0,9.35-4.19,9.35-9.35c0-5.17-4.19-9.35-9.35-9.35
							C368.18,125.13,363.99,129.32,363.99,134.48z"/>
						<path class="st8" d="M377.86,139.28c-2.99-0.44-6.05-0.45-9.04-0.03"/>
						<g>
							<path class="st0" d="M374.77,132.58c0,1.07,0.87,1.94,1.94,1.94c1.07,0,1.94-0.87,1.94-1.94c0-1.07-0.87-1.94-1.94-1.94
								C375.64,130.64,374.77,131.51,374.77,132.58z"/>
							<path class="st0" d="M368.02,132.58c0,1.07,0.87,1.94,1.94,1.94c1.07,0,1.94-0.87,1.94-1.94c0-1.07-0.87-1.94-1.94-1.94
								C368.89,130.64,368.02,131.51,368.02,132.58z"/>
						</g>
					</g>
				</g>
				<g>
					<path class="st6" d="M399.23,133.65l10.34-5.01v-3.41c0-6.4,5.19-11.59,11.59-11.59h20.64c6.4,0,11.59,5.19,11.59,11.59v18.5
						c0,6.4-5.19,11.59-11.59,11.59h-20.64c-6.4,0-11.59-5.19-11.59-11.59v-6.3L399.23,133.65z"/>
					<g>
						<path class="st8" d="M420.74,134.48c0,5.17,4.19,9.35,9.35,9.35c5.17,0,9.35-4.19,9.35-9.35c0-5.17-4.19-9.35-9.35-9.35
							C424.93,125.13,420.74,129.32,420.74,134.48z"/>
						<path class="st8" d="M434.61,139.28c-2.99-0.44-6.05-0.45-9.04-0.03"/>
						<g>
							<path class="st0" d="M431.53,132.58c-0.86,0.65,0.87,1.94,1.94,1.94c1.07,0,1.94-0.87,1.94-1.94c0-1.07-0.87-1.94-1.94-1.94
								C432.4,130.64,432.16,132.1,431.53,132.58z"/>
						</g>
						<g>
							<path class="st0" d="M428.51,132.58c0.86,0.65-0.87,1.94-1.94,1.94c-1.07,0-1.94-0.87-1.94-1.94c0-1.07,0.87-1.94,1.94-1.94
								C427.64,130.64,427.88,132.1,428.51,132.58z"/>
						</g>
					</g>
				</g>
				<g>
					<g>
						<path class="st6" d="M141.93,205.26l-7.7-3.73V199c0-4.76-3.86-8.63-8.63-8.63h-59.6c-4.76,0-8.63,3.86-8.63,8.63v29.02
							c0,4.76,3.86,8.63,8.63,8.63h59.6c4.76,0,8.63-3.86,8.63-8.63v-19.94L141.93,205.26z"/>
						<path class="st0" d="M83.16,214.46c0,3.57-2.89,6.46-6.46,6.46c-3.57,0-6.46-2.89-6.46-6.46c0-3.57,2.89-6.46,6.46-6.46
							C80.26,208,83.16,210.89,83.16,214.46z"/>
						<path class="st0" d="M101.7,214.46c0,3.57-2.89,6.46-6.46,6.46c-3.57,0-6.46-2.89-6.46-6.46c0-3.57,2.89-6.46,6.46-6.46
							C98.81,208,101.7,210.89,101.7,214.46z"/>
						<path class="st0" d="M120.24,214.46c0,3.57-2.89,6.46-6.46,6.46c-3.57,0-6.46-2.89-6.46-6.46c0-3.57,2.89-6.46,6.46-6.46
							C117.35,208,120.24,210.89,120.24,214.46z"/>
					</g>
					<g>
						<defs>
							<path id="SVGID_3_" d="M177.41,124.22v-58.4c0-12.02-9.74-21.76-21.76-21.76H73.21c-12.02,0-21.76,9.74-21.76,21.76v96.19
								c0,12.02,9.74,21.76,21.76,21.76h82.45c12.02,0,21.76-9.74,21.76-21.76v-22.36l14.89,4.29L177.41,124.22z"/>
						</defs>
						<use xlink:href="#SVGID_3_"  style="overflow:visible;fill:#F94E4E;"/>
						<clipPath id="SVGID_4_">
							<use xlink:href="#SVGID_3_"  style="overflow:visible;"/>
						</clipPath>
						<g class="st9">
							<g>
								<g>
									<path class="st10" d="M179.56,197.06v-39.1c-5.2-0.02-7.4-3.62-9.21-3.42c-1.81,0.2-7.64-1.21-7.64-1.21
										c-5.6-1.57-11.21-3.22-16.66-5.19c-1.75-0.63-3.51-1.27-5.33-1.63c-2.21-0.43-4.47-0.45-6.72-0.47
										c-11.88-0.09-23.77-0.18-35.65-0.27c-1.52-0.01-3.04-0.02-4.53,0.28c-1.7,0.34-3.28,1.07-4.93,1.59
										c-1.46,0.46-3.06,0.3-4.43,0.72c-1.71,0.53-3.38,1.49-5.09,2.07c-3.09,1.06-6.22,2.01-9.37,2.89c0,0-5.83,1.41-7.64,1.21
										c-1.81-0.2-4.11,2.47-9.25,3.42c-0.14,0.03-3.48,0.11-3.72,0.22l0.12,38.88H179.56z"/>
									<path class="st11" d="M168.27,188.31c-1.35-9.37,0.9-19.22,6.2-27.07"/>
									<path class="st11" d="M73.97,155.15c0.12,10.97-0.64,21.95-2.29,32.79"/>
								</g>
								<g>
									<g>
										<path class="st12" d="M146.02,150.12c0,0-11.56-3.62-12.47-8.95v-15.89l-16.74,2.08l-16.74-2.08v15.89
											c-0.9,5.33-12.47,8.95-12.47,8.95c6.69,17.87,25.65,20.37,28.96,20.67v0.04c0,0,0.09,0,0.25-0.02
											c0.16,0.01,0.25,0.02,0.25,0.02v-0.04C120.37,170.49,139.33,167.99,146.02,150.12z"/>
										<path class="st13" d="M133.55,141.17v-19.32c0,0-0.04,0-0.04,0l-16.72,2.08l-4.27-0.53c0,0-12.45-1.55-12.45-1.54l-0.04,0
											v17.85v1.39c0,0,0.04,0.03,0.04,0.03c3.81,2.64,8.29,4.28,12.5,6.21c2.15,0.99,4.38,2.03,5.89,3.85
											c1.45,1.74,2.1,4,2.57,6.22c0.55,2.55,0.93,5.14,1.26,7.73c0.13,1.01-0.01,2.68,0.41,3.59c0.48,1.03,0.08,0.8,1.26,0.73
											c2.53-0.15,5.76-2.05,7.93-3.24c2.99-1.64,5.74-3.71,8.07-6.22c0.69-0.75,6.76-9.65,6.05-9.87
											C146.02,150.12,134.45,146.5,133.55,141.17z"/>
										<g>
											<path class="st12" d="M146.55,85.69c1.1-0.13,2.26,0.3,3.02,1.11c0.63,0.68,0.98,1.58,1.18,2.48
												c0.55,2.43,0.17,5.06-1.05,7.23c-1.25,2.22-3.36,4.03-3.87,6.52c-0.23,1.13-0.11,2.32-0.49,3.4
												c-0.54,1.53-2.15,2.61-3.77,2.53c0.17-4.51,0.38-9.01,0.62-13.52C142.37,92.32,142.26,86.18,146.55,85.69z"/>
											<path class="st13" d="M143.96,96.9c-0.01-0.31,0-0.63,0.01-0.94c0.14-3.57,1.54-6.99,3.04-10.29c-0.15,0-0.3,0-0.45,0.02
												c-4.29,0.49-4.19,6.63-4.36,9.76c-0.25,4.5-0.45,9.01-0.62,13.52c0.48,0.02,0.96-0.07,1.41-0.23
												c0.2-1.45,0.49-2.9,0.78-4.34c0.19-0.95,0.39-1.91,0.44-2.88c0.05-0.88-0.03-1.75-0.11-2.63
												C144.04,98.23,143.97,97.56,143.96,96.9z"/>
											<path class="st11" d="M145.1,94.13c-0.71,1.12-1.4,2.25-2.04,3.41c-0.03,0.05-0.06,0.1-0.05,0.16
												c0,0.08,0.07,0.14,0.13,0.2c0.79,0.74,1.52,1.55,2.19,2.4"/>
											<path class="st11" d="M148.59,88.13c0.7,1.05,1.04,2.33,1.04,3.6c0.01,1.27-0.31,2.52-0.81,3.68"/>
										</g>
										<g>
											<path class="st12" d="M86.93,85.69c-1.1-0.13-2.26,0.3-3.02,1.11c-0.63,0.68-0.98,1.58-1.18,2.48
												c-0.55,2.43-0.17,5.06,1.05,7.23c1.25,2.22,3.36,4.03,3.87,6.52c0.23,1.13,0.11,2.32,0.49,3.4
												c0.54,1.53,2.15,2.61,3.77,2.53c-0.17-4.51-0.38-9.01-0.62-13.52C91.12,92.32,91.23,86.18,86.93,85.69z"/>
											<path class="st13" d="M89.53,96.9c0.01-0.31,0-0.63-0.01-0.94c-0.14-3.57-1.54-6.99-3.04-10.29c0.15,0,0.3,0,0.45,0.02
												c4.29,0.49,4.19,6.63,4.36,9.76c0.25,4.5,0.46,9.01,0.62,13.52c-0.48,0.02-0.96-0.07-1.41-0.23
												c-0.2-1.45-0.49-2.9-0.78-4.34c-0.19-0.95-0.39-1.91-0.44-2.88c-0.05-0.88,0.03-1.75,0.11-2.63
												C89.45,98.23,89.51,97.56,89.53,96.9z"/>
											<path class="st11" d="M88.39,94.13c0.71,1.12,1.4,2.25,2.04,3.41c0.03,0.05,0.06,0.1,0.05,0.16
												c0,0.08-0.07,0.14-0.13,0.2c-0.79,0.74-1.52,1.55-2.19,2.4"/>
											<path class="st11" d="M84.9,88.13c-0.7,1.05-1.04,2.33-1.04,3.6c-0.01,1.27,0.31,2.52,0.81,3.68"/>
										</g>
										<g>
											<path class="st12" d="M143.81,88.13c0-17.24-12.12-31.22-27.07-31.22S89.67,70.89,89.67,88.13c0,1.28,0.07,2.53,0.2,3.77
												l1.65,18.21c0.19,2.13,0.89,4.17,2.05,5.97c3.33,5.2,11.22,15.25,22.8,15.97v0.05c0.13,0,0.25-0.02,0.38-0.02
												c0.13,0.01,0.25,0.02,0.38,0.02v-0.05c11.58-0.72,19.47-10.78,22.8-15.97c1.15-1.8,1.85-3.84,2.05-5.97l1.65-18.21
												C143.74,90.67,143.81,89.41,143.81,88.13z"/>
											<path class="st11" d="M127.1,117.47c-1.35,1.25-3.35,1.75-5.13,1.28"/>
										</g>
										<g>
											<path class="st3" d="M107.46,94.09c0,2-1.13,3.62-2.53,3.62c-1.4,0-2.53-1.62-2.53-3.62s1.13-3.62,2.53-3.62
												C106.33,90.47,107.46,92.09,107.46,94.09z"/>
											<path class="st0" d="M107.61,91.91c0,0.5-0.41,0.9-0.9,0.9c-0.5,0-0.9-0.41-0.9-0.9c0-0.5,0.41-0.9,0.9-0.9
												C107.21,91,107.61,91.41,107.61,91.91z"/>
											<path class="st0" d="M105.8,92.91c0,0.14-0.11,0.25-0.25,0.25c-0.14,0-0.25-0.11-0.25-0.25c0-0.14,0.11-0.25,0.25-0.25
												C105.69,92.66,105.8,92.77,105.8,92.91z"/>
											<ellipse class="st3" cx="129.07" cy="94.09" rx="2.53" ry="3.62"/>
											<path class="st0" d="M131.75,91.91c0,0.5-0.41,0.9-0.9,0.9s-0.9-0.41-0.9-0.9c0-0.5,0.41-0.9,0.9-0.9
												S131.75,91.41,131.75,91.91z"/>
											<path class="st0" d="M129.94,92.91c0,0.14-0.11,0.25-0.25,0.25c-0.14,0-0.25-0.11-0.25-0.25c0-0.14,0.11-0.25,0.25-0.25
												C129.82,92.66,129.94,92.77,129.94,92.91z"/>
											<polyline class="st11" points="116.56,89.74 116.81,93.41 114.55,108.19 117.27,108.29 117.27,109.25 											"/>
										</g>
										<path class="st10" d="M139.9,62.76c-2.06-5.62-11.73-9.87-23.35-9.87c-12.28,0-22.39,4.75-23.63,10.85
											c-6.98,9.6-2.12,37.42-2.12,37.42l0.86,0.09c0.52-2.1,1.04-4.2,1.57-6.31c0.77-3.11,1.9-6.22,1.35-9.43
											c-0.19-1.12-1-3.29-0.57-4.34c0.2-0.48,1.03-1.09,1.4-1.49c1.23-1.32,2.45-2.64,3.68-3.97c1.79-1.93,3.58-3.86,5.37-5.79
											c3.54,1.07,7.67,3.75,12.09,3.75c4.31,0,8.35-2.65,11.83-3.67c0.66-0.19,4.97,4.65,5.52,5.17
											c1.94,1.82,3.87,3.66,5.83,5.46c-0.87,1.82-0.39,4.22-0.7,6.23c-0.2,1.26,2.33,14.45,2.93,14.39l0.86-0.09
											C142.83,101.15,148.05,71.27,139.9,62.76z"/>
										<path class="st10" d="M113.43,73.92c2.67,1.45,5.98,1.35,8.82,0.28c1.97-0.74,3.74-1.9,5.36-3.23
											c0.38-0.31,1.92-1.3,0.89-1.59c-0.44-0.13-2.37,1.24-2.85,1.46c-1.94,0.9-3.96,1.61-6.04,2.13
											C118.37,73.29,114.61,74.56,113.43,73.92z"/>
										<path class="st14" d="M138.95,64.19c0.3-0.3,0.36-0.75,0.4-1.17c0.17-1.59,0.34-3.19,0.5-4.78"/>
										<path class="st14" d="M138.88,63.48c1.44-0.54,2.95-0.87,4.49-0.95"/>
										<path class="st11" d="M128.49,69.73c3.51-1.64,6.65-4.05,9.14-7.02"/>
										<path class="st11" d="M94.73,62.99c0.44,1.11,1.35,1.98,2.38,2.59c1.03,0.61,2.17,0.99,3.3,1.36"/>
										<path class="st11" d="M117.41,54.78c1.35-0.19,2.74-0.07,4.03,0.35"/>
										<path class="st11" d="M92.63,83.03c0.06,1.14,0.08,2.29,0.04,3.44"/>
										<path class="st11" d="M140.34,84.15c-0.18,0.61-0.24,1.25-0.17,1.89"/>
										<path class="st11" d="M127.84,98.2c0.95-0.39,1.99-0.58,3.02-0.56"/>
										<path class="st11" d="M102.32,96.95c1.04,0.32,2.02,0.84,2.88,1.51"/>
										<g>
											<line class="st15" x1="123.65" y1="87.75" x2="135.16" y2="87.75"/>
											<line class="st15" x1="108.88" y1="88.32" x2="100.4" y2="88.32"/>
										</g>
									</g>
									<path class="st3" d="M118.38,173.35c1.21,0.06,26.49,1.08,31.47-23.92c-1.25-0.42-2.49-0.84-3.73-1.29
										c-0.56-0.2-1.12-0.4-1.68-0.6c-0.34,6.83-3.99,16.69-21.43,19.51c-3.11,0.5-6.28,0.49-9.39-0.02
										c-18.25-3-21.31-13.74-21.33-20.55c-1.12,0.36-2.21,0.81-3.33,1.16c-0.97,0.31-1.99,0.34-2.97,0.45
										c-0.29,0.04-0.58-0.05-0.97,0.15C90.32,172.91,117.17,173.41,118.38,173.35z"/>
									<g>
										<g>
											<path class="st0" d="M87.32,108.65h4.01V83.8h-4.01c-3.04,0-5.5,2.46-5.5,5.5v13.86
												C81.82,106.19,84.28,108.65,87.32,108.65z"/>
											<polyline class="st11" points="87.66,100.86 87.32,117.81 113.42,122.96 											"/>
											<path class="st3" d="M108.87,122.28c-0.15,1.41,2.04,2.81,4.9,3.13c2.86,0.31,5.3-0.58,5.46-2
												c0.15-1.41-2.04-2.81-4.9-3.13C111.47,119.97,109.03,120.87,108.87,122.28z"/>
											<line class="st11" x1="89.75" y1="85" x2="89.75" y2="106.93"/>
											<path class="st16" d="M112.71,120.84c0,0,5.73,0,5.73,2.69"/>
										</g>
										<g>
											<path class="st17" d="M143.88,83.13c2.29-11.18,4.2-31.7-27.08-31.7"/>
											<g>
												<rect x="143.25" y="83.04" class="st0" width="1.21" height="14.68"/>
												<path class="st17" d="M88.65,83.13c-1.8-11.18-3.31-31.7,28.46-31.7"/>
											</g>
										</g>
									</g>
								</g>
							</g>
						</g>
					</g>
				</g>
			</g>
			<g>
				<g>
					<path class="st3" d="M161.18,472.96c0,0,2.69,11.7,23.5,10.61l1.1-11.5C185.77,472.07,168.9,467.28,161.18,472.96z"/>
					<path class="st3" d="M358.82,470.42c0,0-2.19,6.43-19.03,6.3l-0.14-8.35L358.82,470.42z"/>
				</g>
				<g>
					<path class="st18" d="M341.5,446.84c0,0.62,7.33,61.34,7.33,61.34H174.27l11.5-63.18L341.5,446.84z"/>
					<path class="st18" d="M343.41,457.76l-158.08-1.77l-5.54,20.96c0.3,0,0.61-0.01,0.92-0.01c18.08-0.23,119.12,0.33,131.68-1.93
						c8.31-1.49,19.45-4.89,27.92-2.94c1.15,0.26,3.19,0.47,4.26,0.64C343.49,464.76,343.41,458.01,343.41,457.76z"/>
					<line class="st19" x1="261.5" y1="469.35" x2="261.5" y2="520.34"/>
					<path class="st19" d="M321.14,456.25c0.49,14.63,8.51,28.8,20.8,36.75"/>
					<path class="st19" d="M205.09,461.62c0.07,2.5-0.97,4.9-2.09,7.14c-4.78,9.57-11.96,18.55-21.92,22.44"/>
				</g>
				<g>
					<path class="st3" d="M339.95,367.94c0,0,10.39,7.43,26.27-10.36l-14.99-22.81C351.22,334.77,344.74,350.69,339.95,367.94z"/>
					<path class="st3" d="M388.12,302.26c0,0-2.88,9.19-6.85,12.43l-4.21-9.02C377.06,305.68,380.54,301.97,388.12,302.26z"/>
					<path class="st3" d="M152.36,349.08c0,0-39.77-47.73-12.32-74.75C140.04,274.33,189.47,297.6,152.36,349.08z"/>
				</g>
				<g>
					<path class="st12" d="M180.19,306.56l-66.15,37.61c0,0-24.53,4.99-31.2-14.09c-2.39-6.83,0.81-14.82,7.31-19.03l53.92-34.86
						l33.07-19.77C177.16,256.43,216.3,260.8,180.19,306.56z"/>
					<g>
						<g>
							<g>
								<path class="st13" d="M177.16,256.43l-33.07,19.77l-1.66,1.07c4.61,15.61,6.05,32.17,4.23,48.36l33.53-19.07
									C216.3,260.8,177.16,256.43,177.16,256.43z"/>
							</g>
						</g>
					</g>
				</g>
				<g>
					<path class="st12" d="M353.89,297.33c0,0-18.89,22.18-10.95,44.63l29.32,54.46c0,0,17.25,24.92,35.87,6.57
						c0,0,6.51-10.66,9.15-24.27c0.87-4.48,0.04-9.13-2.24-13.09l-41.17-68.03C373.88,297.61,364.85,285.01,353.89,297.33z"/>
					<g>
						<g>
							<g>
								<path class="st13" d="M369.73,325.62c2.75-4.92,6.62-9.12,10.65-13.06c0.45-0.44,0.9-0.87,1.35-1.3l-7.85-13.65
									c0,0-9.04-12.6-19.99-0.27c0,0-18.89,22.18-10.95,44.63l16.71,31.42c0.03-11.2,1.74-23.4,4.9-34.24
									C365.91,334.51,367.37,329.85,369.73,325.62z"/>
							</g>
						</g>
					</g>
				</g>
				<g>
					<path class="st20" d="M176.46,249.69c7-1.29,10.13-4.93,12.6-4.66c2.46,0.27,10.41-1.64,10.41-1.64
						c4.28-1.2,8.55-2.49,12.75-3.94c2.33-0.8,4.61-2.11,6.93-2.83c1.86-0.58,4.04-0.35,6.03-0.98c2.24-0.71,4.39-1.7,6.71-2.17
						c2.02-0.41,4.11-0.39,6.17-0.38c16.18,0.12,32.36,0.25,48.54,0.37c3.06,0.02,6.14,0.05,9.15,0.64
						c2.49,0.49,4.88,1.35,7.26,2.22c7.42,2.68,15.06,4.93,22.69,7.07c0,0,7.94,1.92,10.41,1.64c2.46-0.27,5.48,4.66,12.6,4.66
						c7.12,0,8.21,2.74,8.21,2.74l31.22,49.84l-2.19,0.27c-33.95,10.41-45.45,65.72-45.45,65.72s3.83,57.43,4.38,67.56
						s13.96,34.78,13.96,34.78s-7.39,1.92-18.07-0.55c-8.48-1.96-141.52,4.63-159.61,4.86c-6.04,0.08-12.14,0.33-18.07-0.83
						c-0.71-0.14-1.49-0.35-1.9-0.95c-0.38-0.57-0.31-1.33-0.19-2.01c0.37-2.02,1.06-3.97,2.04-5.78l19.73-102.57v-38.61
						l-30.39,24.92c0,0,23-27.38,0.27-60.79c0,0-6.02-9.31-12.6-13.96C140.04,274.33,172.74,250.37,176.46,249.69z"/>
					<polygon class="st21" points="319.76,304.91 319.76,339.14 296.76,352.69 272.93,340.78 272.39,304.77 					"/>
					<line class="st19" x1="276.9" y1="311.75" x2="316.17" y2="311.75"/>
					<rect x="300.59" y="304.98" class="st3" width="13.83" height="5.34"/>
					<path class="st19" d="M333.25,291.01c-1.84-12.76,1.23-26.17,8.45-36.85"/>
					<path class="st19" d="M333.12,323.07c1.83,15.99,4.34,31.9,7.51,47.67"/>
					<path class="st19" d="M196.37,313.83c-2.15,6.4-10.75,43.26-13.14,49.58"/>
					<path class="st19" d="M185.26,322.31c2.37-1.38,4.36-3.42,5.68-5.83"/>
					<path class="st19" d="M204.86,245.85c0.17,14.93-0.88,29.88-3.12,44.65"/>
					<path class="st19" d="M344.18,436.28c-0.78,6.71,3,13.26,2.53,20"/>
					<path class="st19" d="M340.09,353.58c0,0,9.95-46.14,41.16-55.9"/>
					<path class="st19" d="M148.25,271.59c0,0,31.76,16.16,15.61,64.07"/>
					<line class="st19" x1="210.28" y1="299.32" x2="321.42" y2="299.32"/>
					<path class="st19" d="M171.96,468.82c16.99-1.77,35.65-0.76,51.9-1.01c12.46-0.19,69.81-1.6,86.73-3.48
						c10.73-1.19,21.58-0.69,32.3,0.61"/>
				</g>
				<g>
					<g>
						<path class="st12" d="M222.09,151.28c-1.5-0.17-3.07,0.41-4.11,1.52c-0.86,0.92-1.33,2.14-1.61,3.37
							c-0.76,3.31-0.23,6.89,1.43,9.84c1.7,3.02,4.58,5.48,5.27,8.88c0.31,1.53,0.14,3.16,0.67,4.63c0.74,2.08,2.93,3.55,5.13,3.44
							c-0.23-6.14-0.51-12.27-0.85-18.4C227.8,160.3,227.94,151.94,222.09,151.28z"/>
						<path class="st13" d="M225.63,166.53c0.01-0.43,0-0.85-0.01-1.28c-0.19-4.86-2.09-9.52-4.14-14.01c0.21,0,0.41,0,0.62,0.03
							c5.85,0.66,5.7,9.02,5.94,13.28c0.34,6.13,0.62,12.27,0.85,18.4c-0.66,0.03-1.31-0.09-1.93-0.31
							c-0.28-1.98-0.66-3.96-1.06-5.91c-0.26-1.3-0.53-2.6-0.6-3.92c-0.06-1.2,0.04-2.39,0.15-3.58
							C225.52,168.34,225.61,167.44,225.63,166.53z"/>
						<path class="st19" d="M224.08,162.77c0.97,1.52,1.9,3.07,2.78,4.64c0.04,0.07,0.08,0.14,0.07,0.22
							c-0.01,0.11-0.09,0.19-0.17,0.27c-1.08,1.01-2.08,2.11-2.98,3.27"/>
						<path class="st19" d="M219.32,154.59c-0.96,1.44-1.41,3.17-1.42,4.9c-0.01,1.73,0.42,3.44,1.11,5.02"/>
					</g>
					<polygon class="st12" points="192.34,219.57 207.43,209.95 216.57,186.13 197.68,185.92 190.9,218.37 					"/>
					<g>
						<polygon class="st3" points="218.56,211.12 202.44,207.82 205.87,138.84 208.13,138.41 220.26,145.55 						"/>
						<polygon class="st0" points="208.28,140.6 205.32,205.84 217.18,208.4 219.16,146.31 						"/>
					</g>
					<path class="st12" d="M225.74,175.62l-1.64-2.88l-0.68-13.96l-18.35-4.66l2.74-17.39c0,0-0.41-8.76-4.79-2.19
						c-4.38,6.57-11.91,36.97-11.91,36.97s-2.74,4.38-3.29,8.49c-0.55,4.11-8.49,21.63-8.49,21.63l-5.24,6.88
						c0,0.01,0.02,0.02,0.02,0.03l-63.93,66.33c0,0-19.99,11.77-24.37,33.41c0,0-13.97,16.16,4.65,33.41c0,0,17.8,9.04,27.66-4.38
						c0,0,22.18-16.43,27.38-26.83c5.2-10.41,46.82-90.91,46.82-90.91l-0.39-0.3c1.96-4.43,5.11-11.56,5.12-11.58
						c0.08-0.19,0.08-0.49,0.11-0.69c0.1-0.61,0.19-1.22,0.29-1.83c0.44-2.79,0.88-5.58,1.32-8.37c0.2-1.28,0.4-2.55,0.6-3.83
						c0.07-0.44,0.14-0.89,0.21-1.33c0.02-0.15,0.06-0.31,0.07-0.46c0.01-0.13-0.04-0.42-0.02-0.5c0.24-0.69,0.79-1.23,1.32-1.73
						c0.24-0.23,0.5-0.47,0.8-0.61c0.33-0.15,0.69-0.17,1.05-0.2c2.44-0.19,4.86-0.61,7.23-1.25c0.15-0.04,0.31-0.08,0.46-0.05
						c0.12,0.03,0.22,0.1,0.31,0.16c1.42,0.98,2.94,1.64,4.52,2.3c2.04,0.85,4.03,1.84,6.04,2.76c0,0-3.42,9.45-2.33,11.23
						c0,0,4.38-3.83,8.63-13.28L225.74,175.62z M209.08,163.74l10.06,2.98l0.96,4.45l-8.85-5.24l-5.77,2.54L209.08,163.74z
						 M214.93,178.12l-8.39,0.2l6.95-3.28l7.8,4.62l0.18,4.8L214.93,178.12z"/>
					<polyline class="st19" points="191.21,183.56 195.62,178.32 214.93,178.12 227.66,189.99 					"/>
					<path class="st19" d="M209.27,185.73c1.71,1.31,3.58,2.41,5.56,3.25"/>
					<path class="st19" d="M202.09,188.4c2.21,0,6.04-0.68,8.09-1.51"/>
					<polyline class="st19" points="189.67,174.62 211.23,166 224.17,173.08 					"/>
					<line class="st19" x1="194.06" y1="172.94" x2="205.07" y2="154.12"/>
					<polyline class="st19" points="205.6,168.15 209.08,163.74 219.14,166.72 219.86,170.41 					"/>
					<polyline class="st19" points="206.3,178.01 213.49,175.04 221.29,179.66 221.73,184.42 					"/>
					<path class="st19" d="M148.53,304.73c0,0-13.59,20.8-29.57,31.62c0,0-3.23,4.73-7.27,6.5"/>
					<path class="st19" d="M193.13,218.85c-3.13,2.74-6.08,5.7-8.82,8.83"/>
				</g>
				<g>
					<g>
						<path class="st12" d="M401.85,249.58c-0.04,0.09-0.08,0.17-0.13,0.25c-0.66,1-4.42,0.17-5.63,0.13c-2.7-0.1-5.4-0.2-8.1-0.31
							c-3.29-0.12-6.59-0.25-9.88-0.37l-4.1-15.57l1.63-14.64c0,0-3.28-1.64-3.75-2.76c-0.47-1.12-0.7-15.68-0.7-15.68l-0.14-4.38
							c0,0,0.25-3.7,4.28-3.54l2.42-0.28c0,0,1.6-4.37,2.48-4.42c3.75,0.25,7.53,1.46,11.18,2.28c0.85-3.16,1.45-6.38,1.79-9.64
							c0.38-3.6,0.43-12.23,0.84-15.83c0.14-1.28,0.34-2.59,0.97-3.71c0.57-1.03,3.47-3.48,4.19-1.39
							c0.6,7.39,1.19,19.78,1.79,27.16c0.14,1.76,0.28,3.52,0.43,5.28c0.04,0.46-0.07,1.46,0.13,1.85c0.62,1.23,3.3,1.53,4.4,2.45
							c2.05,1.72,2.23,4.85,1.55,7.43c-0.68,2.58-2.04,4.97-2.54,7.59c-0.23,1.19-0.27,2.41-0.32,3.63
							c-0.41,11.12-1.94,22.23-2.59,33.34C402.02,248.83,402,249.23,401.85,249.58z"/>
						<path class="st19" d="M382.55,218.66c-2.29,0.23-4.26,0.36-6.89,0.38"/>
						<path class="st19" d="M383.66,213.43c0.41-0.65,0.99-0.97,1.69-1.31c1.12-0.54,2.41-0.56,3.61-0.91"/>
						<path class="st19" d="M384.11,214.3c-0.41-1.1-1.43-1.84-2.39-2.52c-0.27-0.19-0.55-0.33-0.87-0.4
							c0.21-1.76,0.68-3.51,1.55-5.05c0.88-1.54,2.19-2.86,3.82-3.57"/>
						<path class="st19" d="M374.84,207.15c0.61,1.09,1.53,1.98,2.58,2.67c1.04,0.69,2.21,1.17,3.39,1.57"/>
						<path class="st19" d="M371.26,199.59c8.02-2.41,17.46-2.04,25.68-3.58c0.55-0.1,1.11-0.22,1.67-0.13
							c0.4,0.06,0.77,0.22,1.14,0.37c0.83,0.35,1.66,0.7,2.48,1.05c0.4,0.17,0.82,0.35,1.11,0.67c0.3,0.34,0.44,0.79,0.56,1.23
							c0.45,1.61,0.91,3.23,1.36,4.84"/>
						<path class="st19" d="M401.79,194.28c-1.06-0.14-2-0.24-2.56-0.26c-2.12-0.08-4.69-0.22-6.8-0.4
							c-7.69-0.64-19.14-0.57-19.14-0.57s-1.62,0.55-1.99,2"/>
						<path class="st19" d="M376.68,234.3c1.46-6.09,7.03-13.89,7.46-20.14"/>
						<path class="st19" d="M378.4,214.07c0.16-0.04,0.31-0.13,0.45-0.23c0.84-0.59,1.58-1.31,2.18-2.14"/>
						<polyline class="st19" points="380.23,188 398.98,191.93 400.98,192.23 						"/>
					</g>
					<g>
						<path class="st12" d="M409.52,329.99l-7.76-81.82c0.09-0.09,0.17-0.19,0.25-0.29l-23.83-0.42l-0.23,9.05l-5.97,100.77
							c-5.76,13.53,2.08,36.66,2.08,36.66c14.67,35.87,40.55,0.58,40.55,0.58C427.36,360.05,409.52,329.99,409.52,329.99z"/>
					</g>
					<path class="st19" d="M376.37,294.92l-4.38,62.37c0,0-9.26,30.85,11.11,49.9"/>
					<path class="st19" d="M401.68,247.72c-0.23,5.11-0.46,10.22-0.68,15.33"/>
				</g>
				<g>
					<path class="st12" d="M302.95,239.01c0,0-15.74-4.93-16.98-12.19v-21.63l-22.8,2.83l-22.8-2.83v21.63
						c-1.23,7.26-16.98,12.19-16.98,12.19c9.11,24.33,34.93,27.74,39.43,28.15v0.05c0,0,0.12-0.01,0.34-0.02
						c0.22,0.02,0.34,0.02,0.34,0.02v-0.05C268.03,266.75,293.84,263.34,302.95,239.01z"/>
					<path class="st13" d="M285.98,226.82v-21.63c0,0-0.05,0.01-0.05,0l-22.77,2.83l-5.82-0.72c0,0-16.95-2.11-16.95-2.1l-0.05-0.01
						v19.63v1.9c0,0,0.05,0.03,0.05,0.04c5.18,3.59,11.29,5.83,17.02,8.46c2.93,1.34,5.96,2.77,8.02,5.24
						c1.98,2.37,2.85,5.45,3.51,8.46c0.75,3.48,1.27,6.99,1.71,10.52c0.17,1.38-0.02,3.64,0.56,4.89c0.65,1.41,0.11,1.08,1.72,0.99
						c3.45-0.2,7.84-2.79,10.8-4.41c4.07-2.23,7.82-5.06,10.99-8.47c0.94-1.02,9.2-13.14,8.24-13.44
						C302.95,239.01,287.21,234.08,285.98,226.82z"/>
					<g>
						<path class="st12" d="M303.68,151.28c1.5-0.17,3.07,0.41,4.11,1.52c0.86,0.92,1.33,2.14,1.61,3.37
							c0.76,3.31,0.23,6.89-1.43,9.84c-1.7,3.02-4.58,5.48-5.27,8.88c-0.31,1.53-0.14,3.16-0.67,4.63
							c-0.74,2.08-2.93,3.55-5.13,3.44c0.23-6.14,0.51-12.27,0.85-18.4C297.98,160.3,297.84,151.94,303.68,151.28z"/>
						<path class="st13" d="M300.15,166.53c-0.01-0.43,0-0.85,0.01-1.28c0.19-4.86,2.09-9.52,4.14-14.01c-0.21,0-0.41,0-0.62,0.03
							c-5.85,0.66-5.7,9.02-5.94,13.28c-0.34,6.13-0.62,12.27-0.85,18.4c0.66,0.03,1.31-0.09,1.93-0.31
							c0.28-1.98,0.66-3.96,1.06-5.91c0.26-1.3,0.53-2.6,0.6-3.92c0.06-1.2-0.04-2.39-0.15-3.58
							C300.26,168.34,300.17,167.44,300.15,166.53z"/>
						<path class="st19" d="M301.7,162.77c-0.97,1.52-1.9,3.07-2.78,4.64c-0.04,0.07-0.08,0.14-0.07,0.22
							c0.01,0.11,0.09,0.19,0.17,0.27c1.08,1.01,2.08,2.11,2.98,3.27"/>
						<path class="st19" d="M306.45,154.59c0.96,1.44,1.41,3.17,1.42,4.9c0.01,1.73-0.42,3.44-1.11,5.02"/>
					</g>
					<g>
						<path class="st12" d="M299.95,154.6c0-23.48-16.5-42.51-36.86-42.51c-20.36,0-36.86,19.03-36.86,42.51
							c0,1.74,0.1,3.45,0.28,5.13l2.6,37.17c0,0,12.14,23.66,33.47,24.99v0.06c0.17,0,0.34-0.02,0.51-0.03
							c0.17,0.01,0.34,0.03,0.51,0.03v-0.06c21.33-1.34,33.47-24.99,33.47-24.99l2.6-37.17
							C299.85,158.05,299.95,156.34,299.95,154.6z"/>
						<path class="st13" d="M269.42,112.98c-4.23-0.11-7.79,3.03-11.37,5.31c-6.93,4.42-15.23,6.67-23.44,6.35
							c4.83,3.19,9.67,6.37,14.5,9.56c1.86,1.23,3.73,2.46,5.72,3.47c1.95,0.99,4,1.76,6.06,2.5c7.53,2.7,15.08,4.68,22.86,6.47
							c0.78,0.18,1.6,0.37,2.24,0.86c0.7,0.53,1.11,1.35,1.5,2.14c1.35,2.75,2.71,5.52,3.49,8.48c1.67,6.43-1.29,10.96-4.08,16.53
							c-2.94,5.86-6.23,11.54-9.85,17c-5.33,8.05-5.78,19.14-5.82,28.56c16.3-5.62,25.41-23.35,25.41-23.35l2.6-37.17
							c0.18-1.68,0.28-3.4,0.28-5.13c0-4.74-0.68-9.47-2.05-14.01c-2.56-8.47-7.6-16.28-14.71-21.62
							c-3.36-2.52-7.15-4.46-11.19-5.62C270.83,113.11,270.12,113,269.42,112.98z"/>
						<path class="st10" d="M304.46,129.91c0.32-0.23,0.65-0.46,0.97-0.71c0,0,16.02-23.96-5.75-27.25c0,0-13.42,2.74-19.03,0.14
							c-5.61-2.6-11.36-3.97-17.25-1.51c0,0-15.88-7.53-24.51,1.78c0,0-6.98,5.48-7.94,13.69c0,0-8.21,3.83-8.63,11.36
							c-0.41,7.53-1.1,13.97,0.55,19.03c1.64,5.07,3.42,11.91,3.42,11.91l0.04-0.18l2.7,37.71c0.05,0.69,0.25,1.35,0.59,1.95
							c2.52,4.43,14.19,23.01,33.27,24.07l0,0.02c0.03,0,0.07-0.01,0.1-0.01c0.03,0,0.07,0.01,0.1,0.01v-0.02
							c19.04-1.05,30.91-19.55,33.51-24.03c0.36-0.62,0.56-1.31,0.61-2.02l2.31-36l1.39-1.64c0,0,3.97-10.27,6.02-15.88
							c2.05-5.61-1.64-10.68-1.64-10.68L304.46,129.91z M293.38,180.14c-0.96,3.29-12.19,14.65-12.19,14.65s-1.64-1.64-2.6-3.97
							c-0.96-2.33-3.15-3.15-3.15-3.15l-12.19-0.79l0-0.04l-0.27,0.02l-0.27-0.02l0,0.04l-12.19,0.79c0,0-2.19,0.82-3.15,3.15
							c-0.96,2.33-2.6,3.97-2.6,3.97s-11.23-11.36-12.19-14.65c-0.96-3.29-5.48-21.77-2.74-30.67l4.65-3.01l1.58-18.65
							c0,0,28.71,15.6,55.11,8.38l0.27,10.26l4.65,3.01C298.86,158.37,294.34,176.85,293.38,180.14z"/>
						<path class="st19" d="M294,135.99c0.77,0.2,1.57-0.18,2.27-0.56c2.01-1.07,4.07-2.19,5.52-3.94"/>
						<path class="st19" d="M263.5,101.88c0.7,0.12,1.3,0.58,1.85,1.03c3,2.43,5.82,5.09,8.43,7.93"/>
						<path class="st19" d="M285.29,104.64c2.48,1.26,4.59,3.22,6.02,5.6"/>
						<path class="st19" d="M305.5,106.3c0.33,0.09,0.54,0.42,0.69,0.73c2.46,4.89,1.47,11.29-2.35,15.22"/>
						<path class="st19" d="M231.15,121.02c0.38,0.94,0.99,1.79,1.75,2.46"/>
						<path class="st19" d="M257.77,199.42c4-1.81,8.71-1.96,12.82-0.41"/>
					</g>
					<g>
						<path class="st3" d="M250.46,162.71c0,2.72-1.54,4.93-3.44,4.93c-1.9,0-3.44-2.21-3.44-4.93c0-2.72,1.54-4.93,3.44-4.93
							C248.92,157.78,250.46,159.99,250.46,162.71z"/>
						<path class="st0" d="M250.66,159.74c0,0.68-0.55,1.23-1.23,1.23c-0.68,0-1.23-0.55-1.23-1.23c0-0.68,0.55-1.23,1.23-1.23
							C250.11,158.5,250.66,159.06,250.66,159.74z"/>
						<path class="st0" d="M248.2,161.1c0,0.19-0.15,0.34-0.34,0.34c-0.19,0-0.34-0.15-0.34-0.34c0-0.19,0.15-0.34,0.34-0.34
							C248.04,160.76,248.2,160.92,248.2,161.1z"/>
						<path class="st19" d="M242.51,167.79c2.92-0.4,5.94-0.8,8.79-0.05"/>
						<path class="st3" d="M283.32,162.71c0,2.72-1.54,4.93-3.44,4.93c-1.9,0-3.44-2.21-3.44-4.93c0-2.72,1.54-4.93,3.44-4.93
							C281.78,157.78,283.32,159.99,283.32,162.71z"/>
						<path class="st0" d="M283.52,159.74c0,0.68-0.55,1.23-1.23,1.23c-0.68,0-1.23-0.55-1.23-1.23c0-0.68,0.55-1.23,1.23-1.23
							C282.97,158.5,283.52,159.06,283.52,159.74z"/>
						<path class="st0" d="M281.06,161.1c0,0.19-0.15,0.34-0.34,0.34c-0.19,0-0.34-0.15-0.34-0.34c0-0.19,0.15-0.34,0.34-0.34
							C280.9,160.76,281.06,160.92,281.06,161.1z"/>
						<path class="st19" d="M275.37,167.79c2.92-0.4,5.94-0.8,8.79-0.05"/>
						<polyline class="st19" points="262.85,156.79 263.19,161.79 260.11,181.92 263.81,182.05 263.81,183.35 						"/>
					</g>
					<path class="st3" d="M289.17,157.2l-3.01-4.86l-16.91,2.19c0.07,0.34,0.48,5.2,0.48,5.2l14.17-5.07L289.17,157.2z"/>
					<path class="st3" d="M235.12,154.43l3.01-4.86l16.91,2.19c-0.07,0.34-0.48,5.2-0.48,5.2l-14.17-5.07L235.12,154.43z"/>
					<path class="st10" d="M278.08,141.74c-4.38-2.22-8.88-4.54-12.08-8.27c-0.19-0.22-0.38-0.45-0.63-0.6
						c-0.3-0.18-0.65-0.23-1-0.28c-7.49-1.1-14.88-2.9-22.05-5.36c-1.18-0.41-6.31-3.23-7.09-2.63c4.38,3.95,10.17,6.97,15.48,9.47
						c5.49,2.59,11.25,4.59,17.17,5.96C271.24,140.81,274.65,141.38,278.08,141.74z"/>
					<path class="st22" d="M263.22,100.88c4.94-2.97,11.11-3.82,16.67-2.29c5.42,1.49,10.13,5.08,15.63,6.23
						c0.44,0.09,1.06,0.04,1.1-0.4"/>
					<path class="st22" d="M303.5,129.27c1.35,1.03,2.71,2.07,3.79,3.37c1.08,1.3,1.88,2.92,1.9,4.61
						c0.05,4.08-4.16,7.02-4.95,11.01"/>
					<path class="st22" d="M231.26,118.04c-1.51-2.46-0.73-5.69,0.61-8.25c1.1-2.1,2.64-4.1,4.8-5.06c3.11-1.38,6.72-0.36,10.1-0.71
						"/>
					<path class="st21" d="M265.32,270.64c1.65,0.09,36.08,1.47,42.85-32.57c-1.7-0.57-3.4-1.15-5.08-1.75
						c-0.76-0.28-1.53-0.55-2.29-0.81c-0.46,9.3-5.43,22.72-29.18,26.57c-4.24,0.69-8.56,0.67-12.79-0.03
						c-24.85-4.09-29.02-18.71-29.04-27.98c-1.52,0.49-3,1.1-4.53,1.58c-1.31,0.42-2.71,0.46-4.05,0.61
						c-0.4,0.05-0.79-0.06-1.32,0.2C227.11,270.04,263.68,270.72,265.32,270.64z"/>
				</g>
			</g>
		</g>
	</g>
</g>
</svg>
