<?xml version="1.0" encoding="utf-8"?>
<!-- Generator: Adobe Illustrator 24.2.1, SVG Export Plug-In . SVG Version: 6.00 Build 0)  -->
<svg version="1.1" xmlns="http://www.w3.org/2000/svg" xmlns:xlink="http://www.w3.org/1999/xlink" x="0px" y="0px"
	 viewBox="0 0 750 500" style="enable-background:new 0 0 750 500;" xml:space="preserve">
<style type="text/css">
	.st0{fill:#F5F5F5;}
	.st1{fill:#E0E0E0;}
	.st2{fill:#EBEBEB;}
	.st3{display:none;}
	.st4{display:inline;fill:#EBEBEB;}
	.st5{fill:#263238;}
	.st6{fill:#455A64;}
	.st7{fill:#E8505B;}
	.st8{opacity:0.3;}
	.st9{fill:#FAFAFA;}
	.st10{fill:#FFBE9D;}
	.st11{fill:#EB996E;}
	.st12{opacity:0.4;}
	.st13{fill:#FFFFFF;}
	.st14{opacity:0.2;}
	.st15{clip-path:url(#SVGID_2_);}
</style>
<g id="Background_Complete">
	<g>
		<g>
			<path class="st0" d="M76.69,139.25c0,0-11.64,4.41,1.11,29.2c12.75,24.79,21.57,37.05,21.57,37.05s2.27,5.76-2.58,6.67
				c-4.85,0.91-15.54-0.76-17.68,5.19c-2.22,6.17,2.27,11.96,11.36,17.03c9.09,5.07,28.59,16.9,30.35,17.97
				c1.73,1.06,3.47,3.73,0.26,4.88c-3.2,1.15-27.23,3.74-25.32,15.07c1.91,11.33,29.55,21.28,32.55,22.43
				c3,1.15,3.72,2.41,3.48,4.06c-0.24,1.65-8.4,1.75-15.2,2.77c-6.8,1.02-14.51,3.39-12.86,9.83c1.65,6.44,18.05,19.93,57.76,23.69
				l18.52,0.54l10.02-15.68c19.4-34.85,17.57-56.01,13.2-61.02c-4.37-5.01-10.7,0-15.39,5.03c-4.69,5.03-9.4,11.69-10.89,10.95
				c-1.49-0.74-2.13-2.05-1.37-5.17c0.76-3.12,8.21-31.53-0.04-39.52c-8.25-7.99-24,10.34-26.76,12.33
				c-2.76,1.99-3.98-0.96-3.88-2.98c0.11-2.06,1.41-24.83,2.39-35.19c0.97-10.36-1.26-17.34-7.6-19.01
				c-6.11-1.6-10.8,8.15-14.29,11.63c-3.5,3.48-6.96-1.65-6.96-1.65s-5.11-14.22-18.31-38.77c-13.2-24.55-23.65-17.23-23.65-17.23"
				/>
		</g>
		<g>
			<g>
				<path class="st1" d="M180.97,339.98c-9.62-18.07-26.19-50.48-40.56-78.22c-14.36-27.74-27.39-52.84-36.92-70.96
					c-4.77-9.04-8.63-16.36-11.31-21.44c-1.32-2.52-2.36-4.48-3.07-5.83c-0.34-0.65-0.6-1.16-0.79-1.52
					c-0.17-0.34-0.25-0.53-0.25-0.53s0.11,0.16,0.3,0.5c0.2,0.36,0.48,0.85,0.84,1.5c0.74,1.34,1.8,3.29,3.17,5.78
					c2.74,5.02,6.66,12.32,11.47,21.36c9.62,18.07,22.71,43.14,37.07,70.88c14.37,27.75,30.88,60.18,40.41,78.3"/>
			</g>
		</g>
		<g>
			<g>
				<path class="st1" d="M93.97,220.29c0.01-0.04,0.47,0.09,1.29,0.36c0.82,0.26,2,0.67,3.44,1.19c2.89,1.05,6.85,2.6,11.19,4.39
					c4.27,1.78,8.13,3.4,11.09,4.63c1.33,0.55,2.46,1.01,3.37,1.38c0.8,0.32,1.23,0.52,1.22,0.56c-0.01,0.04-0.47-0.09-1.3-0.35
					c-0.82-0.26-2-0.68-3.44-1.21c-2.88-1.08-6.82-2.68-11.16-4.48c-4.28-1.75-8.15-3.34-11.12-4.55c-1.34-0.54-2.47-1-3.38-1.36
					C94.39,220.53,93.96,220.33,93.97,220.29z"/>
			</g>
		</g>
		<g>
			<g>
				<path class="st1" d="M126.83,231.62c-0.15-0.05,2.69-8.36,6.35-18.54c3.65-10.19,6.74-18.4,6.89-18.35
					c0.15,0.05-2.69,8.36-6.35,18.55C130.07,223.45,126.98,231.67,126.83,231.62z"/>
			</g>
		</g>
		<g>
			<g>
				<path class="st1" d="M146.97,275.22c-0.03-0.02,0.24-0.43,0.75-1.15c0.59-0.81,1.32-1.81,2.18-3.01
					c1.84-2.54,4.36-6.06,7.01-10.05c2.65-3.98,4.93-7.67,6.56-10.35c0.77-1.26,1.41-2.33,1.93-3.18c0.46-0.75,0.73-1.15,0.77-1.13
					c0.03,0.02-0.17,0.46-0.57,1.24c-0.4,0.78-1,1.9-1.77,3.27c-1.54,2.74-3.77,6.47-6.43,10.47c-2.65,4-5.24,7.49-7.16,9.98
					c-0.97,1.24-1.76,2.23-2.33,2.9C147.33,274.88,147.01,275.24,146.97,275.22z"/>
			</g>
		</g>
		<g>
			<g>
				<path class="st1" d="M115,271.52c0-0.04,0.45-0.03,1.26,0.02c0.93,0.07,2.08,0.16,3.43,0.26c2.89,0.24,6.88,0.62,11.28,1.07
					c4.4,0.45,8.39,0.89,11.27,1.24c1.34,0.17,2.48,0.32,3.41,0.44c0.8,0.12,1.25,0.2,1.24,0.24c0,0.04-0.45,0.03-1.26-0.02
					c-0.93-0.07-2.08-0.16-3.43-0.26c-2.89-0.24-6.88-0.62-11.29-1.07c-4.4-0.45-8.39-0.89-11.27-1.24
					c-1.34-0.17-2.48-0.32-3.41-0.44C115.43,271.64,114.99,271.56,115,271.52z"/>
			</g>
		</g>
		<g>
			<g>
				<path class="st1" d="M127.89,312.26c0-0.04,0.58-0.02,1.62,0.04c1.14,0.08,2.62,0.19,4.39,0.32c3.71,0.29,8.83,0.74,14.47,1.26
					c5.65,0.53,10.76,1.03,14.46,1.43c1.77,0.2,3.24,0.37,4.38,0.5c1.03,0.13,1.6,0.22,1.6,0.26c0,0.04-0.58,0.02-1.62-0.04
					c-1.14-0.08-2.62-0.19-4.39-0.32c-3.71-0.29-8.83-0.74-14.48-1.26c-5.65-0.53-10.76-1.03-14.46-1.43
					c-1.77-0.2-3.24-0.37-4.38-0.5C128.45,312.39,127.88,312.3,127.89,312.26z"/>
			</g>
		</g>
		<g>
			<g>
				<path class="st1" d="M167.85,315.71c-0.03-0.02,0.29-0.55,0.91-1.48c0.68-1.01,1.56-2.33,2.63-3.91
					c2.22-3.31,5.26-7.89,8.48-13.04c3.23-5.15,6.02-9.88,8.03-13.32c0.96-1.65,1.76-3.02,2.37-4.08c0.56-0.96,0.89-1.48,0.93-1.46
					c0.03,0.02-0.23,0.58-0.73,1.57c-0.5,0.99-1.26,2.42-2.22,4.17c-1.91,3.5-4.66,8.27-7.89,13.43c-3.22,5.16-6.33,9.71-8.63,12.96
					c-1.16,1.62-2.11,2.93-2.78,3.81C168.27,315.25,167.89,315.73,167.85,315.71z"/>
			</g>
		</g>
	</g>
	<g>
		<g>
			<g>
				<g>
					<g>
						<path class="st0" d="M523.71,373.82c-26.68-17.43-33.65-51.1-33.57-81.57c0.01-5.09-0.71-10.42,1.57-14.96
							c2.28-4.53,7.82-7.75,12.44-5.75c3.83,1.66,5.61,6,7.83,9.56c2.96,4.74,7.27,8.61,12.27,11.01c3.29,1.58,7.32,2.48,10.46,0.62
							c4.31-2.55,4.64-8.62,4.45-13.68c-0.35-9.42-0.7-18.83-1.06-28.25c-0.19-5.05-0.36-10.21,1.06-15.06
							c1.42-4.84,4.76-9.41,9.52-10.9c4.77-1.5,10.8,1.09,11.96,6.01c0.49,2.04,0.13,4.19,0.34,6.29c0.21,2.09,1.25,4.38,3.27,4.91
							c2.04,0.53,4.01-0.97,5.48-2.49c5.06-5.26,8.39-11.95,11.5-18.59c3.1-6.64,6.11-13.43,10.67-19.14
							c4.56-5.71,10.97-10.33,18.19-10.96c7.22-0.63,15.07,3.59,17.12,10.64c2.06,7.07-1.88,14.42-6.22,20.33
							c-6.44,8.76-14.15,16.58-22.79,23.12c-1.56,1.18-3.25,2.46-3.8,4.35c-0.99,3.4,2.3,6.65,5.66,7.65
							c3.81,1.14,7.88,0.62,11.83,0.96c3.95,0.34,8.28,1.95,9.88,5.62c2.23,5.1-1.92,10.65-6.06,14.33
							c-8.29,7.37-17.83,13.28-28.08,17.4c-3.67,1.48-7.55,2.79-10.47,5.5c-2.92,2.71-4.58,7.3-2.66,10.81
							c1.92,3.51,6.61,4.5,10.48,3.66c3.87-0.84,7.29-3.07,10.96-4.58c6.86-2.84,15.84-2.64,20.48,3.23
							c3.05,3.85,3.47,9.34,2.14,14.09c-1.33,4.75-4.2,8.89-7.27,12.73c-10.72,13.4-24.64,24.36-40.58,30.45
							C554.78,377.2,539.9,379.17,523.71,373.82"/>
					</g>
				</g>
			</g>
		</g>
		<g>
			<g>
				<g>
					<g>
						<g>
							<path class="st1" d="M530.97,354.49c4-15.5,9.8-32.13,16.46-49.31c1.68-4.29,3.34-8.53,4.98-12.7
								c1.64-4.17,3.27-8.3,5.12-12.24c3.65-7.9,7.77-15.22,11.89-22.04c4.12-6.83,8.28-13.16,12.21-19.05
								c3.95-5.88,7.73-11.3,11.39-16.09c7.29-9.61,14.07-16.65,18.92-21.29c2.42-2.33,4.36-4.08,5.69-5.24
								c0.64-0.55,1.14-0.99,1.52-1.32c0.35-0.29,0.53-0.44,0.54-0.42c0.01,0.01-0.15,0.18-0.48,0.5c-0.36,0.34-0.85,0.8-1.46,1.38
								c-1.29,1.21-3.18,3-5.57,5.36c-4.77,4.72-11.45,11.8-18.65,21.43c-3.61,4.8-7.36,10.22-11.27,16.12
								c-3.9,5.91-8.03,12.24-12.12,19.06c-4.09,6.82-8.17,14.12-11.79,21.98c-1.83,3.92-3.44,8.02-5.08,12.2
								c-1.63,4.17-3.29,8.41-4.97,12.7c-6.65,17.17-12.46,33.74-16.49,49.19"/>
						</g>
					</g>
				</g>
			</g>
		</g>
		<g>
			<g>
				<g>
					<g>
						<g>
							<path class="st1" d="M557.78,280.2c-0.06,0.01-0.26-0.75-0.56-2.14c-0.31-1.39-0.69-3.41-1.12-5.92
								c-0.87-5.01-1.84-11.97-2.87-19.64c-1.04-7.68-2.1-14.6-3.04-19.59c-0.47-2.49-0.86-4.51-1.15-5.89
								c-0.28-1.39-0.41-2.17-0.35-2.18c0.06-0.02,0.31,0.73,0.7,2.1c0.4,1.36,0.9,3.36,1.45,5.85c1.11,4.97,2.29,11.9,3.32,19.59
								c1,7.58,1.91,14.43,2.6,19.67c0.33,2.36,0.61,4.36,0.83,5.96C557.77,279.4,557.85,280.19,557.78,280.2z"/>
						</g>
					</g>
				</g>
			</g>
		</g>
		<g>
			<g>
				<g>
					<g>
						<g>
							<path class="st1" d="M622.37,266.04c0,0.06-0.92,0.2-2.58,0.39c-1.66,0.2-4.07,0.48-7.03,0.91
								c-5.93,0.83-14.08,2.26-23.01,4.23c-8.92,1.99-16.92,4.13-22.66,5.85c-2.88,0.84-5.19,1.58-6.79,2.08
								c-1.6,0.51-2.49,0.76-2.52,0.7c-0.02-0.06,0.83-0.43,2.4-1.05c1.57-0.61,3.85-1.45,6.71-2.37
								c5.71-1.88,13.71-4.14,22.66-6.13c8.95-1.98,17.15-3.31,23.12-3.97c2.98-0.35,5.41-0.53,7.08-0.62
								C621.44,265.99,622.37,265.97,622.37,266.04z"/>
						</g>
					</g>
				</g>
			</g>
		</g>
		<g>
			<g>
				<g>
					<g>
						<g>
							<path class="st1" d="M531.73,353.27c-0.03,0.01-0.19-0.25-0.47-0.78c-0.32-0.63-0.71-1.39-1.18-2.32
								c-1.02-2.02-2.42-4.97-4.1-8.64c-3.37-7.34-7.7-17.64-12.32-29.06c-4.63-11.43-8.86-21.74-12.06-29.15
								c-1.57-3.6-2.86-6.56-3.82-8.76c-0.41-0.96-0.75-1.74-1.03-2.39c-0.23-0.55-0.33-0.85-0.3-0.86
								c0.03-0.01,0.19,0.26,0.47,0.78c0.32,0.63,0.71,1.39,1.18,2.31c1.02,2.02,2.42,4.97,4.1,8.64
								c3.37,7.34,7.7,17.64,12.32,29.06c4.63,11.42,8.85,21.74,12.06,29.15c1.57,3.6,2.86,6.56,3.82,8.76
								c0.41,0.96,0.75,1.74,1.03,2.39C531.66,352.96,531.76,353.26,531.73,353.27z"/>
						</g>
					</g>
				</g>
			</g>
		</g>
		<g>
			<g>
				<g>
					<g>
						<g>
							<path class="st1" d="M617.19,322.76c0.01,0.03-0.28,0.16-0.85,0.38c-0.67,0.25-1.49,0.55-2.48,0.92
								c-2.29,0.82-5.39,1.93-9.15,3.28c-7.73,2.77-18.35,6.73-30.09,11.11c-11.74,4.39-22.42,8.25-30.2,10.86
								c-3.89,1.31-7.05,2.34-9.25,3c-1.02,0.3-1.85,0.55-2.54,0.75c-0.58,0.16-0.89,0.23-0.9,0.2c-0.01-0.03,0.28-0.16,0.85-0.38
								c0.67-0.25,1.49-0.55,2.48-0.92c2.29-0.82,5.39-1.93,9.15-3.28c7.73-2.77,18.36-6.73,30.1-11.11
								c11.74-4.39,22.41-8.25,30.2-10.86c3.89-1.31,7.05-2.34,9.25-3c1.02-0.3,1.85-0.55,2.54-0.75
								C616.87,322.8,617.18,322.73,617.19,322.76z"/>
						</g>
					</g>
				</g>
			</g>
		</g>
	</g>
	<g>
		<path class="st2" d="M151.6,97.55c0.81-5.86-7.46-10.68-13.67-11.18c-2.96-0.24-6.04,0.21-8.85-0.76
			c-6.08-2.12-8.51-9.98-14.44-12.48c-4.44-1.87-9.54-0.21-13.84,1.96c-4.3,2.16-8.55,4.89-13.35,5.2
			c-4.18,0.27-8.72-1.28-12.37,0.76c-2.72,1.52-4.15,4.66-6.66,6.51c-2.46,1.81-5.66,2.2-8.71,2.36c-3.05,0.17-6.2,0.2-8.98,1.47
			c-2.78,1.27-5.07,4.21-4.5,7.2L151.6,97.55z"/>
	</g>
	<g>
		<path class="st0" d="M564.83,151.22c0.83-6.06-7.72-11.05-14.15-11.57c-3.07-0.25-6.25,0.22-9.15-0.79
			c-6.29-2.19-8.8-10.32-14.94-12.91c-4.59-1.94-9.87-0.21-14.32,2.03c-4.45,2.24-8.85,5.06-13.82,5.38
			c-4.32,0.28-9.02-1.33-12.8,0.79c-2.82,1.57-4.3,4.82-6.89,6.74c-2.54,1.88-5.86,2.27-9.01,2.44c-3.15,0.17-6.42,0.2-9.29,1.52
			c-2.87,1.32-5.25,4.35-4.65,7.45L564.83,151.22z"/>
	</g>
	<g>
		<path class="st0" d="M693.15,177.83c0.51-3.73-4.75-6.8-8.71-7.12c-1.89-0.15-3.85,0.14-5.64-0.49c-3.87-1.35-5.42-6.36-9.2-7.95
			c-2.83-1.19-6.08-0.13-8.82,1.25c-2.74,1.38-5.45,3.11-8.51,3.31c-2.66,0.17-5.55-0.82-7.88,0.48c-1.74,0.97-2.65,2.97-4.25,4.15
			c-1.57,1.15-3.61,1.4-5.55,1.5c-1.94,0.11-3.95,0.13-5.72,0.94c-1.77,0.81-3.23,2.68-2.86,4.59L693.15,177.83z"/>
	</g>
	<g>
		<path class="st2" d="M673.9,92.54c0.93-6.79-8.65-12.38-15.85-12.96c-3.43-0.28-7,0.25-10.26-0.89
			c-7.05-2.46-9.87-11.57-16.75-14.47c-5.14-2.17-11.06-0.24-16.05,2.27c-4.99,2.51-9.91,5.67-15.48,6.02
			c-4.85,0.31-10.11-1.49-14.35,0.88c-3.16,1.76-4.81,5.4-7.73,7.55c-2.85,2.1-6.56,2.55-10.1,2.74c-3.53,0.19-7.19,0.23-10.41,1.7
			c-3.22,1.47-5.88,4.88-5.21,8.35L673.9,92.54z"/>
	</g>
</g>
<g id="Background_Simple" class="st3">
	<path class="st4" d="M607.4,158.12L607.4,158.12c-13.24-33.75-40.78-60.18-75.4-70.94c-12.92-4.02-26.46-5.97-40-5.55
		c-41.56,1.29-81.76,24.95-103.06,60.66c-12.53,21-19.54,46.51-38.86,61.5c-25.14,19.51-60.89,13.86-92.03,7.29
		c-31.14-6.57-66.92-12.13-91.98,7.49c-15.69,12.29-31.63,37.91-37.12,57.07c-17.22,60.15,22.07,113.62,62.58,146.41
		c41.01,33.2,109.58,28.6,162.34,27.58c73.91-1.42,148.76-28.28,200.35-81.23c49.33-50.63,74.37-126.22,58.11-194.72
		C611.07,168.38,609.39,163.19,607.4,158.12z"/>
</g>
<g id="Character">
	<g>
		<g>
			<path class="st5" d="M279.69,117.48c2.75-1.18,5.69,1.33,7.19,3.92c1.5,2.59,2.71,5.72,5.45,6.92c2.13,0.93,4.58,0.4,6.91,0.49
				c7.15,0.28,12.7,6.45,15.91,12.85c1.99,3.98,3.45,8.59,2.13,12.83c-1.17,3.74-4.31,6.52-7.6,8.66
				c-6.6,4.29-14.47,6.78-22.33,6.34c-7.85-0.44-15.63-3.97-20.6-10.06c-3.85-4.71-5.9-10.69-6.79-16.71
				c-0.89-6.02-0.69-12.14-0.49-18.22"/>
			<g>
				<path class="st6" d="M310.63,148.99c-0.05,0,0-0.64-0.12-1.78c-0.12-1.13-0.43-2.78-1.33-4.61c-0.88-1.83-2.35-3.83-4.51-5.44
					c-2.14-1.62-4.92-2.84-7.98-3.38c-3.05-0.55-6.1-0.27-8.82-0.85c-2.75-0.54-4.91-1.97-6.45-3.34c-1.56-1.39-2.59-2.72-3.26-3.66
					c-0.33-0.47-0.58-0.85-0.74-1.11c-0.16-0.26-0.23-0.4-0.22-0.41c0.03-0.02,0.41,0.5,1.12,1.4c0.72,0.89,1.78,2.18,3.34,3.5
					c1.55,1.3,3.66,2.66,6.3,3.15c2.64,0.54,5.67,0.25,8.82,0.81c3.14,0.55,5.99,1.82,8.18,3.51c2.21,1.68,3.7,3.77,4.56,5.66
					c0.88,1.9,1.14,3.6,1.2,4.76c0.03,0.58,0.02,1.03-0.02,1.34C310.67,148.83,310.65,148.99,310.63,148.99z"/>
			</g>
		</g>
		<g>
			<path class="st7" d="M338.46,135.93l-10.53,39.42l-21.37-23c-9.84-6.42-21.46-9.57-33.2-8.99l0,0l-33.26-1.54l-18.35,6.61
				c-4.42,1.6-8.67,3.67-12.66,6.16l-35.79,24.69c-7.57,5.47-13.78,9.64-15.25,18c-1.93,11.02,3.65,23.33,15.24,25.36l50.61,0.62
				l1.56,32.04l79.56-7.46l-2.13-48.29c16.24,12.51,23.87,17.38,36.09,15c4.07-0.79,9.89-5.07,11.78-11.41
				c6.75-22.61,7.9-58.15,7.9-58.15L338.46,135.93z M213.7,192.5l4.62-1.31l0.29,1.67L213.7,192.5z"/>
			<g>
				<path class="st5" d="M172.53,222.64c0-0.01,0.14-0.02,0.43-0.03c0.31-0.01,0.72-0.01,1.25-0.02c1.13-0.01,2.75-0.02,4.83-0.04
					c4.22-0.01,10.28-0.03,17.78-0.05c15.05,0.01,35.83,0.02,58.87,0.04l-0.26,0.25c0.03-0.57,0.06-1.19,0.08-1.82
					c0.37-7.95,0.73-15.64,1.06-22.79l0.23,0.26c-17.9-1.67-33.25-4.25-44.21-5.64c-5.48-0.72-9.85-1.2-12.85-1.55
					c-1.48-0.16-2.63-0.29-3.44-0.38c-0.37-0.05-0.67-0.08-0.89-0.11c-0.2-0.03-0.3-0.04-0.3-0.05c0-0.01,0.1,0,0.3,0.01
					c0.22,0.02,0.52,0.04,0.89,0.07c0.81,0.07,1.97,0.17,3.45,0.3c3.01,0.29,7.39,0.73,12.88,1.4c10.98,1.3,26.33,3.82,44.22,5.45
					l0.24,0.02l-0.01,0.24c-0.33,7.15-0.68,14.84-1.04,22.79c-0.03,0.62-0.06,1.24-0.08,1.82l-0.01,0.25l-0.25,0
					c-23.04-0.08-43.82-0.15-58.87-0.2c-7.49-0.05-13.56-0.09-17.78-0.12c-2.08-0.03-3.7-0.04-4.83-0.06
					c-0.53-0.01-0.95-0.02-1.25-0.03C172.68,222.66,172.53,222.65,172.53,222.64z"/>
			</g>
			<g>
				<path class="st5" d="M173.55,188.45c-0.01-0.03,0.28-0.17,0.81-0.4c0.53-0.24,1.33-0.51,2.34-0.77c2.01-0.54,4.91-0.92,8.1-0.61
					c3.18,0.32,5.95,1.27,7.82,2.2c0.93,0.46,1.67,0.88,2.14,1.22c0.48,0.33,0.74,0.52,0.72,0.55c-0.05,0.08-1.13-0.62-3.01-1.44
					c-1.88-0.83-4.6-1.7-7.71-2.02c-3.11-0.31-5.96,0.01-7.96,0.45C174.78,188.07,173.58,188.54,173.55,188.45z"/>
			</g>
			<g>
				<path class="st5" d="M184.56,179.26c0.03-0.06,0.88,0.35,2.18,1.16c1.29,0.8,3.02,2.01,4.79,3.52c1.75,1.51,3.34,2.98,4,4.43
					c0.33,0.71,0.43,1.36,0.4,1.8c-0.02,0.44-0.13,0.66-0.15,0.66c-0.1,0,0.15-0.99-0.58-2.29c-0.68-1.31-2.26-2.7-4.01-4.2
					c-1.75-1.49-3.43-2.74-4.66-3.61C185.3,179.85,184.52,179.33,184.56,179.26z"/>
			</g>
			<g>
				<path class="st5" d="M219.01,193.05c-0.07,0.02-0.41-1.18-0.9-3.12c-0.5-1.94-1.15-4.63-1.96-7.58
					c-0.81-2.94-1.66-5.57-2.34-7.45c-0.68-1.88-1.15-3.03-1.08-3.06c0.03-0.01,0.19,0.25,0.44,0.76c0.26,0.5,0.6,1.24,0.98,2.17
					c0.78,1.86,1.68,4.49,2.5,7.45c0.81,2.96,1.41,5.67,1.82,7.63C218.87,191.81,219.08,193.03,219.01,193.05z"/>
			</g>
			<g>
				<path class="st5" d="M303.9,221.94c-0.14,0.01-0.72-12.01-1.28-26.84c-0.57-14.83-0.91-26.85-0.76-26.86
					c0.14-0.01,0.72,12.01,1.28,26.84C303.71,209.91,304.05,221.94,303.9,221.94z"/>
			</g>
			<g class="st8">
				<path d="M302.29,173.76c0.82,5.17,3.04,9.99,4.79,14.92c1.75,4.93,3.04,10.25,1.94,15.37c-1.99-1.6-3.99-3.21-5.98-4.81"/>
			</g>
			<g>
				<path class="st5" d="M333.15,196.53c-0.03,0.02-0.19-0.25-0.46-0.75c-0.27-0.5-0.62-1.24-1.02-2.17
					c-0.8-1.85-1.75-4.49-2.48-7.5c-0.72-3.01-1.08-5.79-1.21-7.8c-0.07-1.01-0.09-1.83-0.08-2.39c0.01-0.57,0.03-0.88,0.06-0.88
					c0.08,0,0.16,1.24,0.38,3.24c0.22,1.99,0.63,4.74,1.35,7.71c0.72,2.97,1.6,5.6,2.31,7.48
					C332.72,195.35,333.22,196.49,333.15,196.53z"/>
			</g>
			<polygon class="st8" points="214.08,175.1 215.37,192.03 218.32,191.19 			"/>
			<g>
				<path class="st9" d="M300.47,175c0,0.01-0.09-0.03-0.26-0.11c-0.19-0.1-0.44-0.22-0.74-0.37c-0.66-0.3-1.63-0.75-2.95-1.16
					c-2.6-0.82-6.66-1.59-11.49-0.58c-2.41,0.49-4.91,1.53-7.4,3c-2.5,1.46-4.99,3.32-7.72,5.13c-2.72,1.8-5.79,3.54-9.3,4.38
					c-3.48,0.9-7.27,1.05-11.03,0.45c-1.88-0.31-3.7-0.83-5.44-1.47c-1.72-0.69-3.36-1.51-4.87-2.49c-1.49-1-2.88-2.1-4.1-3.33
					c-1.22-1.22-2.3-2.52-3.29-3.83c-1.99-2.61-3.67-5.23-5.39-7.56c-1.71-2.34-3.46-4.4-5.34-5.98c-1.89-1.56-3.8-2.74-5.61-3.45
					c-1.81-0.73-3.48-1.04-4.85-1.08c-2.77-0.1-4.19,0.72-4.21,0.6c0-0.01,0.08-0.05,0.26-0.11c0.2-0.07,0.46-0.16,0.78-0.28
					c0.35-0.1,0.8-0.19,1.32-0.3c0.53-0.05,1.15-0.15,1.85-0.12c1.39,0.01,3.1,0.3,4.95,1.02c1.85,0.7,3.81,1.88,5.74,3.44
					c1.93,1.58,3.73,3.66,5.45,6.01c1.75,2.33,3.44,4.94,5.42,7.53c0.99,1.29,2.06,2.57,3.27,3.77c1.2,1.21,2.56,2.27,4.02,3.26
					c1.48,0.96,3.09,1.76,4.78,2.44c1.71,0.63,3.49,1.14,5.33,1.44c3.69,0.59,7.41,0.44,10.82-0.43c3.44-0.82,6.45-2.51,9.17-4.29
					c2.72-1.79,5.23-3.64,7.77-5.1c2.52-1.47,5.09-2.52,7.54-2.99c4.92-0.98,9.03-0.14,11.63,0.75c1.32,0.44,2.29,0.92,2.94,1.26
					c0.3,0.17,0.53,0.3,0.72,0.41C300.39,174.94,300.47,174.99,300.47,175z"/>
			</g>
			<g>
				<path class="st9" d="M320,166.83c0.03,0,0.08,0.44,0.1,1.24c0.02,0.8-0.03,1.96-0.27,3.37c-0.25,1.41-0.75,3.07-1.59,4.77
					c-0.83,1.71-1.97,3.46-3.3,5.19c-2.71,3.47-6.1,5.73-8.68,6.93c-1.29,0.61-2.39,0.99-3.16,1.21c-0.77,0.22-1.2,0.3-1.21,0.27
					c-0.03-0.1,1.69-0.53,4.2-1.81c2.5-1.27,5.78-3.53,8.43-6.92c1.31-1.7,2.45-3.42,3.28-5.08c0.84-1.65,1.37-3.25,1.66-4.63
					C320.04,168.61,319.89,166.82,320,166.83z"/>
			</g>
			<g>
				<path class="st9" d="M332.1,214.56c-0.01,0.01-0.14-0.06-0.38-0.21c-0.23-0.16-0.61-0.36-1.03-0.71
					c-0.87-0.65-2.04-1.74-3.21-3.31c-2.38-3.1-4.43-8.36-4.47-14.35c-0.03-5.98,1.46-11.23,2.58-14.92
					c0.57-1.85,1.08-3.34,1.45-4.36c0.36-1.02,0.58-1.58,0.62-1.57c0.03,0.01-0.12,0.59-0.42,1.63c-0.33,1.12-0.76,2.61-1.29,4.4
					c-1.03,3.71-2.44,8.93-2.41,14.81c0.04,5.88,2,11.05,4.25,14.14C330.01,213.26,332.2,214.46,332.1,214.56z"/>
			</g>
			<g>
				<path class="st9" d="M355.68,169.77c0.01,0.03-0.32,0.22-0.96,0.53c-0.63,0.31-1.57,0.72-2.75,1.15
					c-2.35,0.86-5.79,1.83-9.69,1.65c-3.9-0.18-7.25-1.7-9.22-3.3c-0.99-0.79-1.69-1.56-2.11-2.13c-0.42-0.57-0.6-0.92-0.58-0.93
					c0.09-0.07,0.9,1.3,2.91,2.77c1.97,1.48,5.23,2.89,9.02,3.07c3.79,0.17,7.18-0.71,9.54-1.48
					C354.22,170.32,355.64,169.69,355.68,169.77z"/>
			</g>
			<g>
				<path class="st9" d="M206.89,191.85c-0.09,0.02-0.5-1.56-1.43-4.02c-0.93-2.46-2.46-5.77-4.68-9.1
					c-2.23-3.33-4.69-6.02-6.6-7.82c-1.91-1.8-3.22-2.79-3.16-2.86c0.02-0.03,0.36,0.19,0.97,0.62c0.61,0.42,1.45,1.09,2.44,1.97
					c1.99,1.74,4.53,4.43,6.79,7.8c2.25,3.38,3.75,6.76,4.59,9.27c0.42,1.26,0.72,2.29,0.88,3.01
					C206.85,191.44,206.93,191.84,206.89,191.85z"/>
			</g>
			<g>
				<path class="st9" d="M218.57,193.57c0.02,0.01-0.08,0.19-0.27,0.53c-0.18,0.35-0.5,0.82-0.95,1.42c-0.92,1.16-2.5,2.7-4.86,3.96
					c-2.34,1.28-5.38,2.3-8.84,2.89c-3.46,0.6-7.3,0.83-11.26,1.47c-1.97,0.33-3.89,0.76-5.66,1.4c-1.77,0.63-3.4,1.45-4.85,2.39
					c-2.92,1.87-5.07,4.2-6.6,6.32c-1.51,2.14-2.4,4.09-2.92,5.46c-0.53,1.37-0.71,2.17-0.77,2.15c-0.02,0,0.02-0.2,0.11-0.58
					c0.08-0.38,0.23-0.94,0.47-1.64c0.47-1.4,1.32-3.4,2.81-5.6c1.51-2.18,3.68-4.58,6.64-6.51c1.47-0.97,3.13-1.81,4.94-2.46
					c1.81-0.65,3.75-1.09,5.74-1.43c4-0.65,7.83-0.86,11.26-1.43c3.42-0.56,6.43-1.52,8.74-2.74c2.33-1.2,3.92-2.66,4.87-3.76
					C218.14,194.27,218.52,193.54,218.57,193.57z"/>
			</g>
			<g>
				<path class="st9" d="M239.92,196.32c0.03-0.01,0.16,0.34,0.35,0.98c0.2,0.64,0.41,1.59,0.59,2.78c0.19,1.19,0.28,2.62,0.26,4.22
					c-0.05,1.59-0.23,3.34-0.62,5.14c-0.4,1.8-0.97,3.46-1.6,4.92c-0.65,1.46-1.33,2.72-2,3.72c-0.66,1-1.25,1.78-1.7,2.28
					c-0.44,0.5-0.7,0.77-0.73,0.75c-0.08-0.06,0.89-1.19,2.12-3.22c0.62-1.01,1.26-2.27,1.87-3.71c0.59-1.45,1.13-3.09,1.53-4.85
					c0.38-1.77,0.57-3.48,0.65-5.04c0.05-1.56,0-2.98-0.14-4.15C240.23,197.77,239.82,196.34,239.92,196.32z"/>
			</g>
			<g>
				<path class="st9" d="M302.24,211.48c-0.07,0.16-2.86-1.48-6.72-1.92c-3.86-0.49-6.96,0.45-6.99,0.28
					c-0.02-0.06,0.72-0.37,2-0.63c1.27-0.26,3.08-0.41,5.05-0.18c1.97,0.24,3.7,0.81,4.87,1.36
					C301.63,210.95,302.27,211.43,302.24,211.48z"/>
			</g>
		</g>
		<g>
			<polygon class="st10" points="348.88,111.12 338.82,136.1 357.75,144.58 362.61,123.34 			"/>
			<path class="st6" d="M370.6,135.78l-17.03-21.1l0,0c-3.42-4.75-8.89-12.38-9.14-13.03c-0.35-0.96-0.48-7.83-0.33-9.55
				s-0.43-6.65-0.43-6.65l-14.01,5.31l-2.95-10.75l-1.91,0.6c0,0-5.07,8.77-3.51,13.77c1.57,5,8.2,7.24,9.84,8.26
				c1.65,1.02,7.86,3.69,14.89,14.3l1.13,1.64l0,0l0.01,0.01l2.85,4.12l0.01,0l12.98,18.7c1.5,2.08,4.39,2.57,6.51,1.12
				C371.74,141,372.23,137.93,370.6,135.78z"/>
			<g>
				<g>
					<g>
						<g>
							<g>
								<g>
									<path class="st6" d="M337.21,87.91l-3.66-10.32l1.33-0.43c0,0,6.45,3.95,7.85,8.65L337.21,87.91z"/>
								</g>
							</g>
						</g>
						<g>
							<g>
								<g>
									<g>
										<path class="st5" d="M333.3,101.54c0.01,0,0.06-0.02,0.16-0.07c0.11-0.05,0.26-0.12,0.44-0.2
											c0.4-0.18,0.95-0.43,1.65-0.75c1.43-0.65,3.46-1.58,5.96-2.71l-0.14-0.1c-0.03,0.59-0.04,1.2,0.01,1.84
											c0.06,0.63,0.11,1.31,0.44,1.94c0.69,1.18,1.53,2.34,2.39,3.58c1.73,2.46,3.65,5.11,5.68,7.88
											c0.29,0.37,0.52,0.72,0.58,1.16c0.06,0.42-0.01,0.86-0.21,1.23c-0.4,0.75-1.31,1.16-2.11,0.97
											c-0.4-0.08-0.76-0.3-1.04-0.59c-0.25-0.31-0.51-0.68-0.75-1.01c-0.5-0.67-0.99-1.34-1.46-1.98
											c-1.91-2.57-3.62-4.89-5.07-6.84c-0.35-0.5-0.82-0.89-1.25-1.22c-0.44-0.33-0.87-0.62-1.27-0.88
											c-0.81-0.52-1.53-0.94-2.12-1.27c-0.59-0.33-1.06-0.58-1.37-0.75c-0.15-0.07-0.27-0.13-0.36-0.18
											C333.35,101.55,333.31,101.54,333.3,101.54c-0.01,0,0.04,0.03,0.12,0.08c0.09,0.05,0.21,0.12,0.35,0.21
											c0.33,0.19,0.78,0.46,1.35,0.79c0.58,0.35,1.29,0.78,2.09,1.31c0.4,0.27,0.82,0.56,1.25,0.89c0.43,0.34,0.86,0.7,1.2,1.19
											c1.43,1.96,3.14,4.29,5.02,6.88c0.47,0.65,0.96,1.31,1.45,1.99c0.26,0.34,0.48,0.68,0.77,1.03
											c0.31,0.34,0.72,0.58,1.18,0.68c0.91,0.21,1.95-0.24,2.4-1.1c0.23-0.42,0.32-0.92,0.25-1.4
											c-0.06-0.49-0.36-0.93-0.63-1.28c-2.03-2.76-3.96-5.41-5.69-7.86c-0.86-1.23-1.71-2.4-2.39-3.54
											c-0.3-0.57-0.36-1.24-0.43-1.85c-0.05-0.62-0.05-1.23-0.02-1.81l0.01-0.17l-0.15,0.07c-2.51,1.2-4.54,2.18-5.98,2.86
											c-0.68,0.33-1.22,0.59-1.6,0.77c-0.17,0.08-0.3,0.15-0.41,0.2C333.34,101.51,333.3,101.54,333.3,101.54z"/>
									</g>
								</g>
							</g>
						</g>
					</g>
					<g>
						<g class="st8">
							<g>
								<g>
									<polygon points="332,96.51 338.29,94.18 338.25,90.66 331.9,93.08 									"/>
								</g>
							</g>
						</g>
						<g>
							<g>
								<g>
									<g>
										<path class="st5" d="M336.91,90.45c-0.15,0-0.26,1.16-0.24,2.6c0.02,1.43,0.15,2.59,0.3,2.59c0.15,0,0.26-1.16,0.24-2.6
											C337.19,91.61,337.06,90.45,336.91,90.45z"/>
									</g>
								</g>
							</g>
						</g>
						<g>
							<g>
								<g>
									<g>
										<path class="st5" d="M335,91.15c-0.15,0-0.26,1.16-0.24,2.6c0.02,1.43,0.15,2.59,0.3,2.59c0.15,0,0.26-1.16,0.24-2.6
											C335.29,92.31,335.15,91.15,335,91.15z"/>
									</g>
								</g>
							</g>
						</g>
						<g>
							<g>
								<g>
									<g>
										<path class="st5" d="M333.18,91.6c-0.15,0-0.26,1.16-0.24,2.6c0.02,1.43,0.15,2.59,0.3,2.59c0.15,0,0.26-1.16,0.24-2.6
											C333.46,92.76,333.33,91.6,333.18,91.6z"/>
									</g>
								</g>
							</g>
						</g>
					</g>
				</g>
			</g>
			<path class="st10" d="M339.47,134.49l0.68-4.89l0.47-12.97l-0.5-9.09c0,0,3.04,0.23,4.66,4.15c1.64,3.97,1.71,9.91,1.71,9.91
				s12.69,5,8.22,16.97"/>
			<g>
				<path class="st10" d="M356.66,114.66c0.06-1.01-0.04-2.08-0.58-2.93c-0.61-0.97-1.71-1.55-2.83-1.76s-1.97-0.23-3.1-0.04
					l2.39,3.33c-0.54,2.26-0.77,3.78-1.06,6.09c-0.13,1.06-0.12,2.36,0.79,2.91c0.74,0.45,1.76,0.11,2.34-0.54
					c0.58-0.64,0.84-1.51,1.07-2.35C356.13,117.83,356.57,116.27,356.66,114.66z"/>
				<path class="st10" d="M360.25,118.51c0.06-1.01-0.04-2.08-0.58-2.93c-0.61-0.97-1.71-1.55-2.83-1.76
					c-1.13-0.21-1.97-0.23-3.1-0.04l2.39,3.33c-0.54,2.26-0.77,3.78-1.06,6.09c-0.13,1.06-0.12,2.36,0.79,2.91
					c0.74,0.45,1.76,0.11,2.34-0.54c0.58-0.64,0.84-1.51,1.08-2.35C359.71,121.68,360.16,120.12,360.25,118.51z"/>
				<path class="st10" d="M364.01,122.31c0.06-1.01-0.04-2.08-0.58-2.93c-0.61-0.97-1.71-1.55-2.83-1.76
					c-1.13-0.21-1.97-0.23-3.1-0.04l2.39,3.33c-0.54,2.26-0.77,3.78-1.06,6.09c-0.13,1.06-0.12,2.36,0.79,2.91
					c0.74,0.45,1.76,0.11,2.34-0.54c0.58-0.64,0.84-1.51,1.08-2.35C363.48,125.47,363.92,123.91,364.01,122.31z"/>
				<g>
					<path class="st11" d="M356.4,112.31c0.13-0.03,0.55,1.97,0.19,4.44c-0.34,2.47-1.3,4.27-1.42,4.21
						c-0.14-0.06,0.57-1.9,0.9-4.28C356.43,114.29,356.25,112.33,356.4,112.31z"/>
				</g>
				<g>
					<path class="st11" d="M360.24,117.53c0.13-0.03,0.48,1.76,0.02,3.92c-0.45,2.16-1.5,3.65-1.6,3.58
						c-0.14-0.08,0.67-1.62,1.09-3.68C360.19,119.27,360.08,117.54,360.24,117.53z"/>
				</g>
			</g>
			<g>
				<path class="st11" d="M345.01,112.31c0.05-0.01,0.25,0.96,0.55,2.62c0.29,1.66,0.68,4.01,1.12,6.77l-0.16-0.19
					c1.7,0.57,3.44,1.58,4.94,3c1.57,1.47,2.67,3.26,3.34,4.98c0.69,1.72,0.97,3.4,1,4.79c0.04,1.4-0.14,2.52-0.3,3.28
					c-0.16,0.76-0.31,1.16-0.34,1.16c-0.12-0.02,0.41-1.69,0.27-4.42c-0.08-1.36-0.39-2.97-1.08-4.63
					c-0.68-1.66-1.74-3.36-3.25-4.78c-1.44-1.37-3.11-2.35-4.74-2.92l-0.14-0.05l-0.02-0.14c-0.4-2.77-0.72-5.13-0.93-6.8
					C345.06,113.3,344.96,112.32,345.01,112.31z"/>
			</g>
			<g>
				<path class="st5" d="M343.68,85.46c0,0.01-0.07,0.04-0.22,0.1c-0.2,0.07-0.41,0.15-0.64,0.24c-0.67,0.25-1.45,0.54-2.36,0.88
					c-2.12,0.81-4.8,1.83-7.76,2.95c-2.96,1.14-5.63,2.16-7.75,2.98c-0.9,0.34-1.69,0.63-2.36,0.89c-0.23,0.08-0.44,0.16-0.64,0.23
					c-0.15,0.05-0.23,0.07-0.23,0.07c0-0.01,0.07-0.04,0.21-0.11c0.2-0.08,0.4-0.17,0.63-0.27c0.66-0.27,1.44-0.58,2.33-0.95
					c1.97-0.79,4.7-1.87,7.73-3.03c3.03-1.16,5.78-2.19,7.78-2.9c1-0.35,1.82-0.63,2.38-0.81c0.23-0.07,0.45-0.14,0.65-0.2
					C343.59,85.47,343.67,85.45,343.68,85.46z"/>
			</g>
		</g>
		<g>
			<g>
				<g>
					<path class="st10" d="M256.83,201.82c0,0,12.46-3.42,14.59-3.49c1.63-0.06,11.09,1.55,15.43,2.3c1.67,0.29,2.94,1.83,2.67,3.5
						c-0.02,0.11-0.04,0.21-0.08,0.3c-0.61,1.72-2.4,1.84-2.4,1.84s2.16,0.99,1.82,3.46c-0.34,2.47-3.4,2.53-3.4,2.53
						s0.16,0.16,0.37,0.44c1.38,1.87,0.13,4.54-2.19,4.71l-1.39,0.1c0,0,1.7,1.03,1.42,2.72c-0.54,3.23-7.92,2.74-7.92,2.74
						l-19.82-0.38L256.83,201.82z"/>
				</g>
				<g>
					<path class="st10" d="M285.76,196.55c-0.24,1.06-0.84,3.29-2.81,4.04l-9.97-1.92c0,0,7.86-1.44,9.12-2.55
						c0.44-0.39,1.04-0.87,1.65-1.18C284.8,194.38,286.02,195.38,285.76,196.55z"/>
				</g>
			</g>
			<g>
				<g>
					<path class="st11" d="M277.71,199.29c-0.03,0.17,1.99,0.68,4.53,1.02c2.53,0.34,4.59,0.56,4.62,0.37
						c0.03-0.17-1.99-0.68-4.53-1.02C279.8,199.32,277.74,199.11,277.71,199.29z"/>
				</g>
			</g>
			<g>
				<g>
					<path class="st11" d="M279.11,205.23c-0.04,0.17,1.68,0.75,3.89,1.01c2.22,0.26,4.02,0.09,4.02-0.09
						c0-0.19-1.78-0.31-3.95-0.56C280.91,205.34,279.15,205.05,279.11,205.23z"/>
				</g>
			</g>
			<g>
				<g>
					<path class="st11" d="M274.11,203.74c-0.16,0.07-0.05,0.64,0.46,1.1c0.51,0.45,1.09,0.49,1.14,0.32
						c0.06-0.18-0.31-0.46-0.71-0.81C274.6,204,274.28,203.66,274.11,203.74z"/>
				</g>
			</g>
			<g>
				<g>
					<path class="st11" d="M277.04,211.42c-0.01,0.18,1.91,0.56,4.3,0.84c2.39,0.28,4.34,0.37,4.37,0.19s-1.89-0.56-4.3-0.84
						C279.01,211.32,277.05,211.24,277.04,211.42z"/>
				</g>
			</g>
			<g>
				<g>
					<path class="st11" d="M271.71,207.87c-0.08-0.04-0.26,0.14-0.37,0.53c-0.11,0.38-0.1,0.98,0.21,1.53
						c0.31,0.55,0.83,0.87,1.21,0.97c0.39,0.11,0.64,0.04,0.65-0.05c0.03-0.18-0.82-0.42-1.28-1.24
						C271.65,208.79,271.88,207.93,271.71,207.87z"/>
				</g>
			</g>
			<g>
				<g>
					<path class="st11" d="M274.57,217.41c-0.01,0.18,1.75,0.38,3.92,0.44c2.17,0.06,3.94-0.04,3.94-0.22
						c0.01-0.18-1.75-0.38-3.92-0.44C276.34,217.14,274.58,217.23,274.57,217.41z"/>
				</g>
			</g>
			<g>
				<g>
					<path class="st11" d="M269.46,213.4c-0.08-0.02-0.24,0.18-0.29,0.57c-0.05,0.39,0.04,0.94,0.33,1.44c0.6,1,1.37,1.45,1.48,1.34
						c0.15-0.13-0.42-0.82-0.91-1.66C269.57,214.25,269.62,213.45,269.46,213.4z"/>
				</g>
			</g>
		</g>
		<g>
			<path class="st5" d="M217.87,103.29c-0.4-3.2-3.92-5.46-7.11-4.98c-3.19,0.48-5.76,3.2-6.64,6.3c-0.88,3.1-0.27,6.48,1.05,9.42
				c1.04,2.32,2.76,4.61,5.25,5.12c2.28,0.47,4.65-0.73,6.2-2.47c1.55-1.74,2.44-3.95,3.3-6.12L217.87,103.29z"/>
			<path class="st7" d="M221.93,102.59c-1-0.66-2.44-0.22-3.2,0.71c-0.76,0.92-0.98,2.18-1.01,3.38c-0.05,1.99,0.33,3.99,1.12,5.81
				c0.24,0.55,0.57,1.14,1.14,1.31c0.55,0.17,1.16-0.12,1.52-0.56c0.37-0.44,0.54-1.01,0.67-1.57c0.8-3.32,0.63-6.87-0.49-10.1"/>
			<g>
				<path class="st7" d="M278.59,87.15c5.63-2.76,8.85-5.6,8.38-7.93c-0.47-2.33-11.78-5.94-14.43-6.92
					c-6.25-2.32-12.16,3.2-22.03,5.18c-19.17,3.85-33.93,10.87-32.96,15.68c0.47,2.32,4.5,3.7,10.7,4.08"/>
			</g>
			<g class="st12">
				<path d="M275.24,87.65c4.99-2.44,7.98-5,7.43-7.03c-1.52-5.66-15.32-4.95-32.32-1.54c-16.99,3.41-30.07,9.63-29.22,13.89
					c0.41,2.05,3.99,3.28,9.48,3.61"/>
			</g>
			<g>
				<g>
					<g>
						<g>
							<g>
								<g>
									<g>
										<g>
											<g>
												<g>
													<g>
														<path class="st10" d="M230.65,94.82c-2.38-13.23,6.6-25.92,20.06-27.93c12.68-1.9,24.52,6.99,27.11,19.55
															c2.27,11.01,4.31,22.14,4.47,26.21c0.5,12.28-6.43,17.44-9.26,19.03c-0.65,0.36-2.46,0.83-3.19,0.98l0,0
															c-0.05,0.01-0.07,0.05-0.06,0.1l3.48,13.94c1.73,9.16-2.98,17.67-12.13,19.51c-9.17,1.84-16.78-4.86-18.69-14.02
															L230.65,94.82z"/>
													</g>
													<g>
														<g>
															<g>
																<g>
																	<g>
																		<path class="st5" d="M274.07,94.08c0.24,1-0.41,2.03-1.46,2.3c-1.04,0.27-2.08-0.33-2.32-1.33
																			c-0.24-1,0.41-2.04,1.46-2.3C272.79,92.48,273.83,93.08,274.07,94.08z"/>
																	</g>
																</g>
															</g>
														</g>
														<g>
															<g>
																<g>
																	<g>
																		<g>
																			<path class="st5" d="M275.17,89.92c-0.19,0.3-1.85-0.48-3.92-0.07c-2.06,0.39-3.36,1.75-3.64,1.55
																				c-0.13-0.09,0.02-0.59,0.58-1.2c0.55-0.61,1.57-1.29,2.85-1.55c1.29-0.25,2.46,0,3.18,0.36
																				C274.96,89.37,275.26,89.78,275.17,89.92z"/>
																		</g>
																	</g>
																</g>
															</g>
														</g>
													</g>
													<g>
														<g>
															<g>
																<g>
																	<g>
																		<path class="st5" d="M253.81,98.15c0.24,1-0.41,2.03-1.46,2.3c-1.04,0.27-2.08-0.33-2.32-1.33
																			c-0.24-1,0.41-2.04,1.46-2.3C252.53,96.55,253.57,97.15,253.81,98.15z"/>
																	</g>
																</g>
															</g>
														</g>
														<g>
															<g>
																<g>
																	<g>
																		<g>
																			<path class="st5" d="M254.98,94.37c-0.19,0.3-1.86-0.48-3.92-0.07c-2.06,0.39-3.36,1.75-3.64,1.55
																				c-0.13-0.09,0.02-0.59,0.58-1.2c0.55-0.61,1.56-1.29,2.85-1.55c1.29-0.25,2.46,0,3.18,0.36
																				C254.77,93.83,255.08,94.23,254.98,94.37z"/>
																		</g>
																	</g>
																</g>
															</g>
														</g>
													</g>
													<g>
														<g>
															<g>
																<g>
																	<g>
																		<path class="st5" d="M265.54,108.15c-0.03-0.12,1.2-0.59,3.23-1.28c0.52-0.16,0.99-0.36,1.01-0.74
																			c0.05-0.41-0.29-0.93-0.66-1.49c-0.75-1.17-1.54-2.41-2.36-3.7c-3.31-5.27-5.81-9.65-5.6-9.78
																			c0.21-0.13,3.07,4.04,6.38,9.31c0.8,1.3,1.57,2.54,2.3,3.73c0.32,0.56,0.8,1.17,0.69,2.01
																			c-0.06,0.42-0.39,0.78-0.71,0.94c-0.32,0.17-0.61,0.24-0.87,0.3C266.86,108,265.57,108.27,265.54,108.15z"/>
																	</g>
																</g>
															</g>
														</g>
													</g>
													<g>
														<g>
															<g>
																<g>
																	<path class="st11" d="M269.77,132.68c0,0-7.83,2.25-18.98-1.73c0,0,5.25,9.89,19.92,5.49L269.77,132.68z"/>
																</g>
															</g>
														</g>
													</g>
													<g>
														<g>
															<g>
																<g>
																	<path class="st11" d="M265.66,113.3c-0.94-0.83-2.35-1.11-3.61-0.71c-0.88,0.28-1.69,0.89-2.09,1.73
																		c-0.4,0.84-0.3,1.89,0.33,2.49c0.71,0.67,1.91,0.62,2.84,0.14c0.93-0.48,1.64-1.29,2.32-2.1
																		c0.19-0.22,0.38-0.45,0.47-0.73c0.09-0.27,0.05-0.6-0.16-0.77"/>
																</g>
															</g>
														</g>
													</g>
													<g>
														<g>
															<g>
																<g>
																	<g>
																		<path class="st5" d="M259.76,110.8c0.33-0.09,0.78,2.15,3.02,3.35c2.23,1.21,4.57,0.48,4.65,0.79
																			c0.06,0.13-0.44,0.54-1.44,0.77c-0.98,0.23-2.49,0.2-3.85-0.53c-1.36-0.74-2.13-1.94-2.39-2.84
																			C259.46,111.42,259.6,110.82,259.76,110.8z"/>
																	</g>
																</g>
															</g>
														</g>
													</g>
												</g>
											</g>
										</g>
										<g>
											<g>
												<g>
													<g>
														<path class="st5" d="M254.45,87.72c-0.09,0.6-2.2,0.75-4.56,1.53c-2.38,0.73-4.18,1.83-4.61,1.39
															c-0.19-0.21,0.04-0.81,0.72-1.51c0.67-0.7,1.82-1.46,3.24-1.92c1.42-0.45,2.8-0.49,3.75-0.31
															C253.95,87.09,254.48,87.44,254.45,87.72z"/>
													</g>
												</g>
											</g>
										</g>
										<g>
											<g>
												<g>
													<g>
														<path class="st5" d="M273.35,84.76c-0.27,0.54-1.79,0.34-3.5,0.66c-1.72,0.26-3.09,0.95-3.52,0.53
															c-0.19-0.21-0.06-0.72,0.48-1.29c0.53-0.57,1.5-1.14,2.68-1.34c1.18-0.2,2.28,0.02,2.97,0.38
															C273.16,84.05,273.46,84.5,273.35,84.76z"/>
													</g>
												</g>
											</g>
										</g>
									</g>
								</g>
							</g>
						</g>
					</g>
				</g>
			</g>
			<g>
				<path class="st5" d="M259.63,75.1c-1.53,3.63-4.77,6.5-8.56,7.57c-2.49,0.71-5.45,0.84-7.03,2.89c-1.15,1.5-1.15,3.54-1.42,5.41
					c-0.41,2.84,0.32,6.12-1.86,8c-1.7,1.47-3.3,1.43-4.34,3.42c-1.1,2.1-0.84,4.8-0.41,7.13c0.43,2.33,0.97,6.05-0.92,7.48
					c-1.77-8.44-6.34-17.47-8.11-25.92c-0.26-1.26-0.53-2.55-0.31-3.82c0.49-2.86,3.23-4.72,5.83-6.02
					c7.35-3.68,15.44-5.57,23.45-7.43"/>
			</g>
			<g>
				<g>
					<g>
						<path class="st7" d="M281.74,77.92c0,0-9.06-19.41-9.69-20.32c-0.62-0.91-8.23-8.68-22.65-8.44l-11.49,2.31
							c0,0-15.26,8.52-17.44,13.09c-2.18,4.57,0.42,24.12,0.42,24.12l30.81-13.47l22.98,0.94L281.74,77.92z"/>
					</g>
					<g>
						<path class="st7" d="M245.18,47.58l3.17-0.64c1.3-0.26,2.64,0.26,3.38,1.35c0.5,0.74,1.02,1.75,1.38,3.09
							c0.95,3.53,6.68,27.87,6.68,27.87l-14.53,2.24l-5.62-30.36l-4.67,2.07l-0.1-0.91c-0.06-0.55,0.05-1.1,0.32-1.58l0,0
							c0.37-0.67,1.01-1.15,1.76-1.31L245.18,47.58z"/>
					</g>
					<g>
						<path class="st6" d="M278.11,80.77l-2.94-6.79l-23.93-2.48l-25.47,13.41l1.6,7.98C227.37,92.88,248.32,79.2,278.11,80.77z"/>
					</g>
					<g>
						<path class="st7" d="M272.54,72.3l1.14,0.73l8.74,4.15c0,0-15.78-2.02-31.26,1.26c-15.48,3.28-32.17,12.08-32.17,12.08
							l9.03-8.24l0,0c2.56-4.15,6.69-7.08,11.45-8.13l19.39-4.29C263.57,68.81,268.49,69.69,272.54,72.3z"/>
					</g>
					<g>
						<g>
							<path class="st5" d="M280.26,77.91c0.01-0.03-0.18-0.14-0.57-0.33c-0.38-0.21-0.97-0.44-1.76-0.67
								c-1.57-0.46-3.92-0.85-6.84-0.94c-5.82-0.17-13.93,0.6-22.45,3.14c-4.25,1.18-8.35,2.22-11.99,3.51
								c-3.64,1.33-6.77,2.74-9.39,4.04c-1.3,0.66-2.45,1.31-3.43,1.93c-0.98,0.6-1.82,1.26-2.26,2c-0.44,0.74-0.47,1.45-0.38,1.88
								c0.1,0.44,0.26,0.62,0.28,0.61c0.09,0.02-0.5-0.96,0.38-2.3c0.43-0.64,1.23-1.21,2.22-1.77c0.99-0.57,2.14-1.18,3.45-1.8
								c2.61-1.2,5.81-2.57,9.38-3.83c3.61-1.23,7.69-2.25,11.96-3.43c8.45-2.52,16.45-3.37,22.21-3.36c2.88,0.01,5.2,0.3,6.76,0.65
								C279.42,77.57,280.21,78.01,280.26,77.91z"/>
						</g>
					</g>
				</g>
			</g>
			<g>
				<path class="st5" d="M277.05,76.9"/>
				<path class="st5" d="M278.01,80.55c2.77,6.19,12.43,15,3.17,23.55c0,0-2.92-14.02-5.16-19.23c-0.66-1.53-1.42-3.12-2.68-4.22"/>
			</g>
			<path class="st5" d="M230.51,92.13c-6.35,0.96-11.19,7.75-10.02,14.07c0.31,1.65,0.96,3.28,0.79,4.95
				c-0.16,1.63-1.08,3.08-1.49,4.66c-0.81,3.14-0.96,8.32,0.11,11.38c2.54,7.3,11.8,16.3,20.19,14.62"/>
			<path class="st5" d="M236.72,135.81c1.72,0.43,3.59-0.26,4.88-1.47c1.3-1.21,2.09-2.87,2.59-4.57
				c1.62-5.46,0.36-11.69-3.25-16.09c4.23-7.48,4.36-17.12,0.32-24.71l-11.77,3.48L236.72,135.81z"/>
			<g>
				<path class="st6" d="M217.99,110.48c0.04,0.03-0.54,0.84-1.87,1.68c-1.31,0.83-3.48,1.61-5.9,1.29
					c-2.41-0.29-4.37-1.51-5.41-2.68c-1.08-1.19-1.2-2.24-1.14-2.23c0.08-0.04,0.32,0.93,1.41,1.98c1.06,1.04,2.94,2.14,5.21,2.42
					c2.28,0.3,4.34-0.37,5.65-1.09C217.27,111.11,217.93,110.41,217.99,110.48z"/>
			</g>
			<g>
				<path class="st6" d="M217.1,108.9c0.02,0.05-0.73,0.47-2.07,0.74c-1.33,0.28-3.3,0.34-5.31-0.31c-2.02-0.65-3.57-1.85-4.49-2.85
					c-0.93-1.01-1.3-1.79-1.25-1.82c0.07-0.05,0.54,0.65,1.51,1.56c0.96,0.91,2.47,2,4.39,2.62c1.92,0.62,3.79,0.62,5.09,0.44
					C216.28,109.1,217.07,108.82,217.1,108.9z"/>
			</g>
			<g>
				<path class="st6" d="M242.63,92.22c0.03,0,0.03,0.43-0.06,1.18c-0.09,0.76-0.31,1.85-0.75,3.14c-0.86,2.58-2.84,6.02-6.24,8.53
					c-3.41,2.51-7.28,3.39-10,3.45c-1.37,0.04-2.48-0.07-3.23-0.21c-0.75-0.13-1.16-0.26-1.15-0.29c0.01-0.11,1.67,0.3,4.36,0.13
					c2.66-0.15,6.4-1.07,9.7-3.5c3.3-2.44,5.28-5.74,6.2-8.24C242.42,93.9,242.52,92.2,242.63,92.22z"/>
			</g>
			<g>
				<path class="st6" d="M242.97,109.85c0.02,0.02-0.17,0.28-0.58,0.7c-0.41,0.42-1.07,0.96-1.97,1.5c-1.79,1.1-4.66,1.99-7.87,1.99
					c-3.21-0.01-6.03-0.71-8.03-1.24c-1-0.27-1.8-0.52-2.35-0.7c-0.55-0.18-0.85-0.3-0.84-0.33c0.02-0.07,1.27,0.22,3.28,0.68
					c2.01,0.44,4.81,1.07,7.94,1.08c3.12,0.01,5.9-0.81,7.69-1.79C242.04,110.75,242.9,109.77,242.97,109.85z"/>
			</g>
			<g>
				<path class="st5" d="M282.25,75.9c-0.01,0.02-0.24-0.05-0.69-0.2c-0.49-0.17-1.14-0.39-1.95-0.67
					c-1.74-0.62-4.16-1.49-7.13-2.56l-0.03-0.01l-0.03-0.03c-0.59-0.53-1.2-1.08-1.84-1.65c-0.65-0.57-1.27-1.2-2.06-1.62
					c-0.78-0.44-1.68-0.72-2.63-0.8c-0.95-0.11-1.92,0.11-2.95,0.27c-4.09,0.69-8.55,1.64-13.21,2.72c-4.34,1.01-8.47,2.03-12.25,3
					c-0.96,0.23-1.84,0.47-2.61,0.96c-0.77,0.46-1.42,1.08-1.92,1.76c-0.92,1.44-1.74,2.91-2.53,4.2l-0.02,0.04l-0.03,0.02
					c-2.88,2.13-5.24,3.88-6.93,5.12c-0.79,0.57-1.43,1.03-1.9,1.37c-0.44,0.31-0.68,0.46-0.69,0.45c-0.01-0.02,0.2-0.2,0.62-0.54
					c0.46-0.37,1.08-0.85,1.84-1.46c1.66-1.28,3.98-3.07,6.82-5.26l-0.05,0.06c0.78-1.32,1.55-2.74,2.5-4.26
					c0.53-0.74,1.21-1.4,2.03-1.9c0.81-0.52,1.8-0.81,2.73-1.03c3.78-0.99,7.91-2.03,12.26-3.04c4.67-1.08,9.14-2.02,13.25-2.68
					c1.02-0.15,2.05-0.37,3.07-0.25c1.01,0.1,1.97,0.41,2.8,0.88c0.84,0.46,1.49,1.13,2.12,1.7c0.63,0.58,1.24,1.14,1.82,1.67
					l-0.06-0.04c2.94,1.13,5.35,2.05,7.07,2.71c0.79,0.32,1.43,0.57,1.91,0.76C282.03,75.78,282.25,75.89,282.25,75.9z"/>
			</g>
			<g>
				<path class="st5" d="M243.58,72.54c-0.04,0.01-0.14-0.35-0.29-0.99c-0.15-0.64-0.35-1.58-0.59-2.73
					c-0.47-2.31-1.09-5.51-1.75-9.05c-0.32-1.76-0.62-3.44-0.9-4.99c-0.13-0.76-0.26-1.49-0.38-2.18c-0.07-0.59-0.7-0.92-1.17-0.76
					c-1,0.41-1.86,0.75-2.57,1.04c-0.62,0.24-0.96,0.35-0.98,0.32c-0.01-0.03,0.31-0.21,0.9-0.51c0.6-0.3,1.43-0.71,2.54-1.21
					c0.65-0.26,1.58,0.19,1.71,1.03c0.13,0.69,0.28,1.41,0.42,2.17c0.29,1.55,0.61,3.23,0.94,4.99c0.65,3.54,1.21,6.75,1.6,9.08
					c0.19,1.16,0.34,2.11,0.42,2.76C243.59,72.16,243.62,72.53,243.58,72.54z"/>
			</g>
			<g>
				<path class="st5" d="M257.47,69.45c-0.06,0.02-0.5-1.07-1.04-2.89c-0.55-1.82-1.19-4.36-1.85-7.17
					c-0.67-2.81-1.24-5.37-1.63-7.22c-0.39-1.85-0.6-3.01-0.53-3.03c0.07-0.02,0.4,1.11,0.89,2.94c0.48,1.83,1.11,4.37,1.78,7.18
					c0.64,2.73,1.23,5.2,1.7,7.2C257.23,68.3,257.54,69.43,257.47,69.45z"/>
			</g>
			<g>
				<path class="st5" d="M282.01,109.64c-0.03-0.13,2.46,0.16,5.94-1.43c1.7-0.78,3.69-2.02,5.13-4.03
					c1.45-1.99,1.89-4.92,1.25-7.68c-0.64-2.79-2.39-5.12-4.51-6.38c-2.14-1.27-4.38-1.84-6.12-2.68c-1.76-0.8-3.02-1.8-3.71-2.64
					c-0.35-0.42-0.56-0.79-0.69-1.04c-0.12-0.26-0.17-0.4-0.16-0.4c0.04-0.03,0.29,0.53,1,1.31c0.71,0.78,1.96,1.7,3.71,2.44
					c1.72,0.78,3.97,1.31,6.22,2.6c2.25,1.29,4.11,3.75,4.77,6.67c0.67,2.9,0.2,5.96-1.37,8.08c-1.55,2.11-3.61,3.33-5.37,4.09
					c-1.78,0.76-3.34,1.04-4.42,1.12c-0.54,0.03-0.96,0.04-1.24,0.02C282.16,109.68,282.01,109.66,282.01,109.64z"/>
			</g>
			<g>
				<path class="st5" d="M207.15,105.66c-0.01,0.01-0.09-0.05-0.23-0.17c-0.14-0.12-0.33-0.32-0.55-0.6
					c-0.43-0.56-0.93-1.49-1.14-2.75c-0.19-1.25-0.08-2.86,0.8-4.34c0.85-1.5,2.57-2.63,4.51-2.92c1.94-0.29,3.92,0.28,5.18,1.46
					c1.28,1.16,1.86,2.67,2.05,3.92c0.17,1.27-0.03,2.31-0.27,2.97c-0.13,0.33-0.24,0.58-0.34,0.73c-0.09,0.16-0.15,0.24-0.17,0.23
					c-0.05-0.02,0.14-0.36,0.32-1.02c0.18-0.65,0.31-1.65,0.1-2.85c-0.22-1.18-0.81-2.57-2-3.62c-1.17-1.06-2.98-1.57-4.78-1.3
					c-1.8,0.28-3.38,1.3-4.18,2.66c-0.83,1.35-0.98,2.86-0.84,4.05c0.16,1.2,0.57,2.12,0.94,2.69
					C206.91,105.35,207.18,105.62,207.15,105.66z"/>
			</g>
			<g>
				<path class="st5" d="M238.27,140.2c0,0.02-0.14,0.07-0.42,0.15c-0.28,0.08-0.69,0.19-1.23,0.32c-1.08,0.24-2.65,0.57-4.63,0.69
					c-1.97,0.11-4.42-0.01-6.88-1.06c-2.46-1.03-4.7-3.14-6.18-5.82c-1.48-2.68-2.09-5.62-2.09-8.25c-0.02-2.64,0.48-4.98,1.03-6.88
					c0.56-1.9,1.18-3.38,1.64-4.39c0.23-0.5,0.42-0.89,0.56-1.14c0.14-0.26,0.22-0.39,0.23-0.38c0.04,0.02-0.2,0.58-0.61,1.6
					c-0.4,1.02-0.97,2.51-1.47,4.41c-0.5,1.89-0.94,4.2-0.9,6.78c0.03,2.57,0.63,5.41,2.06,8.01c1.43,2.59,3.56,4.62,5.91,5.63
					c2.35,1.04,4.73,1.2,6.67,1.14c1.95-0.07,3.53-0.34,4.61-0.52C237.66,140.28,238.26,140.16,238.27,140.2z"/>
			</g>
			<g>
				<path class="st5" d="M216.93,115.51c0.02,0.01-0.03,0.17-0.12,0.48c-0.11,0.3-0.3,0.74-0.64,1.26
					c-0.67,1.01-2.03,2.36-4.19,2.98c-1.06,0.32-2.32,0.42-3.61,0.16c-1.29-0.25-2.6-0.85-3.76-1.76c-1.15-0.91-2.17-2.13-2.86-3.57
					c-0.69-1.45-1.05-3.1-1.06-4.79c-0.01-3.39,1.24-6.55,3.12-8.8c1.86-2.27,4.5-3.51,6.74-3.42c2.24,0.04,3.92,1.01,4.77,1.88
					c0.88,0.88,1.07,1.57,1.07,1.57c-0.06,0.04-0.31-0.62-1.21-1.42c-0.87-0.8-2.5-1.66-4.64-1.66c-2.13-0.04-4.6,1.16-6.37,3.36
					c-1.78,2.17-2.98,5.23-2.97,8.49c0.01,1.62,0.35,3.2,1,4.58c0.65,1.38,1.61,2.54,2.7,3.42c1.1,0.87,2.33,1.46,3.54,1.71
					c1.22,0.26,2.4,0.19,3.42-0.09c2.07-0.55,3.42-1.8,4.12-2.74C216.71,116.16,216.88,115.49,216.93,115.51z"/>
			</g>
		</g>
	</g>
	<g>
		<g>
			<g>
				<g>
					<g>
						<g>
							<g>
								<g>
									<g>
										<g>
											<path class="st6" d="M502.76,458.08H177.31c-8.05,0-14.57-6.52-14.57-14.57V238.16c0-8.05,6.52-14.57,14.57-14.57h325.46
												c8.05,0,14.57,6.52,14.57,14.57v205.35C517.33,451.56,510.81,458.08,502.76,458.08z"/>
										</g>
									</g>
								</g>
							</g>
							<g>
								<g>
									<g>
										<g>
											<path class="st6" d="M515.26,463.46H166.68c-9.83,0-17.8-7.97-17.8-17.8v-2.72h384.17v2.72
												C533.05,455.49,525.09,463.46,515.26,463.46z"/>
										</g>
									</g>
								</g>
							</g>
							<g>
								<g>
									<g>
										<g>
											<rect x="172.26" y="232.91" class="st5" width="334.56" height="198.02"/>
										</g>
									</g>
								</g>
							</g>
							<g>
								<g>
									<g>
										<g>
											<polygon class="st5" points="305.08,440.74 309.85,448.32 376.93,448.32 381.36,440.74 											"/>
										</g>
									</g>
								</g>
							</g>
						</g>
						<g>
							<g>
								<g>
									<g>
										<g>
											<g>
												<g>
													<g>
														<path class="st2" d="M497.35,430.3H182.42c-1.81,0-3.27-1.47-3.27-3.27V242.89c0-1.81,1.47-3.27,3.27-3.27h314.92
															c1.81,0,3.27,1.47,3.27,3.27v184.14C500.62,428.83,499.15,430.3,497.35,430.3z"/>
													</g>
												</g>
											</g>
										</g>
									</g>
									<g>
										<g>
											<g>
												<g>
													<g>
														<polygon class="st9" points="500.27,430.58 178.81,430.58 179.15,253.86 500.27,253.86 														"/>
													</g>
												</g>
											</g>
										</g>
									</g>
									<g>
										<g>
											<g>
												<g>
													<g>
														<path class="st5" d="M205.51,246.98c0,1.42-1.15,2.57-2.57,2.57c-1.42,0-2.57-1.15-2.57-2.57
															c0-1.42,1.15-2.57,2.57-2.57C204.37,244.41,205.51,245.56,205.51,246.98z"/>
													</g>
												</g>
											</g>
										</g>
									</g>
									<g>
										<g>
											<g>
												<g>
													<g>
														<path class="st5" d="M189.95,246.98c0,1.42-1.15,2.57-2.57,2.57c-1.42,0-2.57-1.15-2.57-2.57
															c0-1.42,1.15-2.57,2.57-2.57C188.81,244.41,189.95,245.56,189.95,246.98z"/>
													</g>
												</g>
											</g>
										</g>
									</g>
									<g>
										<g>
											<g>
												<g>
													<g>
														<path class="st5" d="M197.42,246.98c0,1.42-1.15,2.57-2.57,2.57c-1.42,0-2.57-1.15-2.57-2.57
															c0-1.42,1.15-2.57,2.57-2.57C196.27,244.41,197.42,245.56,197.42,246.98z"/>
													</g>
												</g>
											</g>
										</g>
									</g>
								</g>
							</g>
						</g>
						<g>
							<g>
								<g>
									<g>
										<path class="st5" d="M514.28,440.74c0,0.13-78.7,0.23-175.76,0.23c-97.1,0-175.78-0.1-175.78-0.23
											c0-0.13,78.69-0.23,175.78-0.23C435.58,440.51,514.28,440.61,514.28,440.74z"/>
									</g>
								</g>
							</g>
						</g>
					</g>
				</g>
			</g>
		</g>
		<g>
			<path class="st1" d="M380.92,396.09c0,0.14-19.28,0.26-43.06,0.26c-23.79,0-43.06-0.12-43.06-0.26s19.28-0.26,43.06-0.26
				C361.64,395.83,380.92,395.95,380.92,396.09z"/>
		</g>
		<g>
			<g>
				<g>
					<g>
						<rect x="186.58" y="350.8" class="st0" width="95.93" height="72.1"/>
					</g>
				</g>
			</g>
			<g>
				<g>
					<g>
						<polygon class="st1" points="186.62,422.95 220.08,378.1 240.86,406.12 254.93,391.12 282.55,422.86 						"/>
					</g>
				</g>
			</g>
			<g>
				<g>
					<g>
						<g>
							<g>
								<path class="st1" d="M249.64,372.58c0,4.17-3.38,7.56-7.55,7.56c-4.17,0-7.56-3.37-7.56-7.55c0-4.17,3.37-7.56,7.55-7.56
									C246.25,365.03,249.64,368.41,249.64,372.58z"/>
							</g>
						</g>
					</g>
				</g>
			</g>
		</g>
		<g>
			<g>
				<g>
					<g>
						<rect x="393.57" y="350.91" class="st0" width="95.93" height="72.1"/>
					</g>
				</g>
			</g>
			<g>
				<g>
					<g>
						<polygon class="st1" points="393.6,423.06 427.07,378.21 447.85,406.23 461.91,391.23 489.53,422.97 						"/>
					</g>
				</g>
			</g>
			<g>
				<g>
					<g>
						<g>
							<g>
								<path class="st1" d="M456.63,372.69c0,4.17-3.38,7.56-7.55,7.56c-4.17,0-7.56-3.37-7.56-7.55c0-4.17,3.37-7.56,7.55-7.56
									C453.24,365.14,456.63,368.52,456.63,372.69z"/>
							</g>
						</g>
					</g>
				</g>
			</g>
		</g>
		<g>
			<g>
				<path class="st1" d="M474.32,336.58c0-0.07,1.03-0.14,2.69-0.18c1.66-0.05,3.96-0.08,6.49-0.08c0.99,0,1.93,0.01,2.82,0.01
					l-0.25,0.25c0.02-1.85,0.05-3.44,0.09-4.57c0.04-1.13,0.1-1.79,0.15-1.79c0.06,0,0.11,0.67,0.15,1.79
					c0.04,1.13,0.08,2.72,0.09,4.57l0,0.25l-0.25,0c-0.89,0-1.84,0.01-2.82,0.01c-2.53,0-4.83-0.03-6.49-0.08
					C475.35,336.72,474.32,336.65,474.32,336.58z"/>
			</g>
			<g>
				<path class="st1" d="M450.32,336.58c0-0.14,2.69-0.26,6-0.26c3.31,0,6,0.12,6,0.26c0,0.14-2.69,0.26-6,0.26
					C453.01,336.84,450.32,336.72,450.32,336.58z"/>
			</g>
			<g>
				<path class="st1" d="M426.32,336.58c0-0.14,2.69-0.26,6-0.26c3.31,0,6,0.12,6,0.26c0,0.14-2.69,0.26-6,0.26
					C429.01,336.84,426.32,336.72,426.32,336.58z"/>
			</g>
			<g>
				<path class="st1" d="M402.32,336.58c0-0.14,2.69-0.26,6-0.26c3.31,0,6,0.12,6,0.26c0,0.14-2.69,0.26-6,0.26
					C405.01,336.84,402.32,336.72,402.32,336.58z"/>
			</g>
			<g>
				<path class="st1" d="M378.32,336.58c0-0.14,2.69-0.26,6-0.26c3.31,0,6,0.12,6,0.26c0,0.14-2.69,0.26-6,0.26
					C381.01,336.84,378.32,336.72,378.32,336.58z"/>
			</g>
			<g>
				<path class="st1" d="M354.32,336.58c0-0.14,2.69-0.26,6-0.26c3.31,0,6,0.12,6,0.26c0,0.14-2.69,0.26-6,0.26
					C357.01,336.84,354.32,336.72,354.32,336.58z"/>
			</g>
			<g>
				<path class="st1" d="M330.32,336.58c0-0.14,2.69-0.26,6-0.26c3.31,0,6,0.12,6,0.26c0,0.14-2.69,0.26-6,0.26
					C333.01,336.84,330.32,336.72,330.32,336.58z"/>
			</g>
			<g>
				<path class="st1" d="M306.32,336.58c0-0.14,2.69-0.26,6-0.26c3.31,0,6,0.12,6,0.26c0,0.14-2.69,0.26-6,0.26
					C309.01,336.84,306.32,336.72,306.32,336.58z"/>
			</g>
			<g>
				<path class="st1" d="M282.32,336.58c0-0.14,2.69-0.26,6-0.26c3.31,0,6,0.12,6,0.26c0,0.14-2.69,0.26-6,0.26
					C285.01,336.84,282.32,336.72,282.32,336.58z"/>
			</g>
			<g>
				<path class="st1" d="M258.32,336.58c0-0.14,2.69-0.26,6-0.26c3.31,0,6,0.12,6,0.26c0,0.14-2.69,0.26-6,0.26
					C261.01,336.84,258.32,336.72,258.32,336.58z"/>
			</g>
			<g>
				<path class="st1" d="M234.32,336.58c0-0.14,2.69-0.26,6-0.26c3.31,0,6,0.12,6,0.26c0,0.14-2.69,0.26-6,0.26
					C237.01,336.84,234.32,336.72,234.32,336.58z"/>
			</g>
			<g>
				<path class="st1" d="M210.32,336.58c0-0.14,2.69-0.26,6-0.26c3.31,0,6,0.12,6,0.26c0,0.14-2.69,0.26-6,0.26
					C213.01,336.84,210.32,336.72,210.32,336.58z"/>
			</g>
			<g>
				<path class="st1" d="M186.34,336.57c0,0,0,0,0.01,0.01L186.34,336.57c0.07-0.13,2.72-0.25,5.99-0.25c3.31,0,6,0.12,6,0.26
					c0,0.14-2.69,0.26-6,0.26c-3.26,0-5.92-0.11-5.99-0.25l-0.01-0.01C186.33,336.57,186.34,336.57,186.34,336.57z"/>
			</g>
			<g>
				<path class="st1" d="M186.34,312.57c0.14,0,0.26,2.69,0.26,6c0,3.31-0.12,6-0.26,6c-0.14,0-0.26-2.69-0.26-6
					C186.08,315.25,186.19,312.57,186.34,312.57z"/>
			</g>
			<g>
				<path class="st1" d="M186.34,288.57c0.14,0,0.26,2.69,0.26,6c0,3.31-0.12,6-0.26,6c-0.14,0-0.26-2.69-0.26-6
					C186.08,291.25,186.19,288.57,186.34,288.57z"/>
			</g>
			<g>
				<path class="st1" d="M186.34,264.57c0.14,0,0.26,2.69,0.26,6c0,3.31-0.12,6-0.26,6c-0.14,0-0.26-2.69-0.26-6
					C186.08,267.25,186.19,264.57,186.34,264.57z"/>
			</g>
			<g>
				<path class="st1" d="M207.16,261.39c0,0.14-2.69,0.26-6,0.26c-3.31,0-6-0.12-6-0.26s2.69-0.26,6-0.26
					C204.47,261.13,207.16,261.24,207.16,261.39z"/>
			</g>
			<g>
				<path class="st1" d="M231.16,261.39c0,0.14-2.69,0.26-6,0.26c-3.31,0-6-0.12-6-0.26s2.69-0.26,6-0.26
					C228.47,261.13,231.16,261.24,231.16,261.39z"/>
			</g>
			<g>
				<path class="st1" d="M255.16,261.39c0,0.14-2.69,0.26-6,0.26c-3.31,0-6-0.12-6-0.26s2.69-0.26,6-0.26
					C252.47,261.13,255.16,261.24,255.16,261.39z"/>
			</g>
			<g>
				<path class="st1" d="M279.16,261.39c0,0.14-2.69,0.26-6,0.26c-3.31,0-6-0.12-6-0.26s2.69-0.26,6-0.26
					C276.47,261.13,279.16,261.24,279.16,261.39z"/>
			</g>
			<g>
				<path class="st1" d="M303.16,261.39c0,0.14-2.69,0.26-6,0.26c-3.31,0-6-0.12-6-0.26s2.69-0.26,6-0.26
					C300.47,261.13,303.16,261.24,303.16,261.39z"/>
			</g>
			<g>
				<path class="st1" d="M327.16,261.39c0,0.14-2.69,0.26-6,0.26c-3.31,0-6-0.12-6-0.26s2.69-0.26,6-0.26
					C324.47,261.13,327.16,261.24,327.16,261.39z"/>
			</g>
			<g>
				<path class="st1" d="M351.16,261.39c0,0.14-2.69,0.26-6,0.26c-3.31,0-6-0.12-6-0.26s2.69-0.26,6-0.26
					C348.47,261.13,351.16,261.24,351.16,261.39z"/>
			</g>
			<g>
				<path class="st1" d="M375.16,261.39c0,0.14-2.69,0.26-6,0.26c-3.31,0-6-0.12-6-0.26s2.69-0.26,6-0.26
					C372.47,261.13,375.16,261.24,375.16,261.39z"/>
			</g>
			<g>
				<path class="st1" d="M399.16,261.39c0,0.14-2.69,0.26-6,0.26c-3.31,0-6-0.12-6-0.26s2.69-0.26,6-0.26
					C396.47,261.13,399.16,261.24,399.16,261.39z"/>
			</g>
			<g>
				<path class="st1" d="M423.16,261.39c0,0.14-2.69,0.26-6,0.26c-3.31,0-6-0.12-6-0.26s2.69-0.26,6-0.26
					C420.47,261.13,423.16,261.24,423.16,261.39z"/>
			</g>
			<g>
				<path class="st1" d="M447.16,261.39c0,0.14-2.69,0.26-6,0.26c-3.31,0-6-0.12-6-0.26s2.69-0.26,6-0.26
					C444.47,261.13,447.16,261.24,447.16,261.39z"/>
			</g>
			<g>
				<path class="st1" d="M471.16,261.39c0,0.14-2.69,0.26-6,0.26c-3.31,0-6-0.12-6-0.26s2.69-0.26,6-0.26
					C468.47,261.13,471.16,261.24,471.16,261.39z"/>
			</g>
			<g>
				<path class="st1" d="M486.32,270.22c-0.14,0-0.26-2.69-0.26-6c0.01-1,0.02-1.94,0.03-2.84l0.23,0.23
					c-1.89-0.04-3.17-0.13-3.17-0.23s1.27-0.19,3.17-0.23l0.23-0.01l0,0.23c0.01,0.89,0.02,1.84,0.03,2.84
					C486.58,267.53,486.47,270.22,486.32,270.22z"/>
			</g>
			<g>
				<path class="st1" d="M486.32,294.22c-0.14,0-0.26-2.69-0.26-6c0-3.31,0.12-6,0.26-6c0.14,0,0.26,2.69,0.26,6
					C486.58,291.53,486.47,294.22,486.32,294.22z"/>
			</g>
			<g>
				<path class="st1" d="M486.32,318.22c-0.14,0-0.26-2.69-0.26-6c0-3.31,0.12-6,0.26-6c0.14,0,0.26,2.69,0.26,6
					C486.58,315.53,486.47,318.22,486.32,318.22z"/>
			</g>
		</g>
		<g>
			<path class="st1" d="M380.92,420.4c0,0.14-19.28,0.26-43.06,0.26c-23.79,0-43.06-0.12-43.06-0.26c0-0.14,19.28-0.26,43.06-0.26
				C361.64,420.14,380.92,420.26,380.92,420.4z"/>
		</g>
		<g>
			<path class="st1" d="M380.92,409.28c0,0.14-19.28,0.26-43.06,0.26c-23.79,0-43.06-0.12-43.06-0.26c0-0.14,19.28-0.26,43.06-0.26
				C361.64,409.02,380.92,409.14,380.92,409.28z"/>
		</g>
	</g>
</g>
<g id="Sign">
	<g>
		<rect x="111.98" y="323.53" class="st5" width="5.18" height="139.73"/>
		<g>
			<g>
				<g>
					<circle class="st7" cx="114.57" cy="298.39" r="30.12"/>
				</g>
			</g>
			<g>
				<path class="st13" d="M141.69,298.02c-0.01,0-0.03-0.15-0.05-0.44c-0.02-0.31-0.05-0.74-0.09-1.29
					c-0.02-0.28-0.04-0.6-0.06-0.95c-0.04-0.35-0.11-0.72-0.18-1.13c-0.13-0.82-0.26-1.76-0.57-2.79c-0.48-2.09-1.46-4.56-3.01-7.18
					c-1.56-2.61-3.81-5.33-6.86-7.63c-3.05-2.29-6.89-4.23-11.33-5.02c-4.41-0.76-9.38-0.62-14.12,1.18
					c-1.21,0.39-2.34,0.98-3.5,1.54c-0.57,0.31-1.11,0.67-1.67,1c-0.57,0.32-1.1,0.72-1.62,1.12c-1.09,0.75-2.05,1.69-3.05,2.59
					c-0.9,1-1.85,1.98-2.63,3.11c-1.6,2.22-2.99,4.69-3.84,7.4c-0.88,2.7-1.35,5.56-1.39,8.47c0.04,2.91,0.51,5.78,1.38,8.48
					c0.84,2.71,2.24,5.18,3.84,7.4c0.78,1.14,1.73,2.11,2.63,3.12c1,0.9,1.95,1.84,3.05,2.59c0.53,0.4,1.05,0.8,1.62,1.12
					c0.56,0.33,1.11,0.69,1.67,1c1.17,0.56,2.3,1.16,3.5,1.54c4.74,1.8,9.71,1.94,14.12,1.18c4.44-0.79,8.28-2.73,11.33-5.02
					c3.06-2.31,5.3-5.03,6.86-7.63c1.55-2.62,2.53-5.09,3.01-7.18c0.31-1.03,0.44-1.98,0.57-2.79c0.06-0.41,0.14-0.78,0.18-1.13
					c0.02-0.35,0.04-0.66,0.06-0.95c0.04-0.55,0.07-0.97,0.09-1.29C141.66,298.17,141.68,298.02,141.69,298.02
					c0.01,0,0.01,0.15,0,0.44c-0.01,0.31-0.02,0.74-0.04,1.29c-0.01,0.29-0.02,0.6-0.04,0.95c-0.03,0.35-0.1,0.73-0.15,1.14
					c-0.12,0.82-0.23,1.78-0.53,2.82c-0.46,2.11-1.42,4.62-2.96,7.28c-1.55,2.65-3.81,5.42-6.89,7.78
					c-3.07,2.34-6.97,4.33-11.47,5.15c-4.47,0.79-9.53,0.67-14.36-1.15c-1.23-0.39-2.38-0.99-3.57-1.56
					c-0.58-0.31-1.13-0.68-1.71-1.01c-0.58-0.32-1.12-0.73-1.65-1.14c-1.11-0.76-2.09-1.72-3.11-2.63
					c-0.92-1.02-1.89-2.01-2.69-3.17c-1.63-2.26-3.06-4.77-3.92-7.54c-0.89-2.75-1.37-5.67-1.41-8.64c0.04-2.97,0.52-5.89,1.41-8.64
					c0.86-2.76,2.29-5.28,3.92-7.54c0.8-1.16,1.76-2.15,2.69-3.17c1.02-0.92,1.99-1.87,3.11-2.63c0.54-0.41,1.07-0.81,1.65-1.13
					c0.57-0.34,1.13-0.7,1.71-1.01c1.19-0.57,2.34-1.17,3.57-1.56c4.83-1.82,9.89-1.94,14.36-1.15c4.51,0.82,8.4,2.81,11.47,5.15
					c3.08,2.36,5.34,5.13,6.89,7.78c1.54,2.66,2.5,5.16,2.96,7.28c0.3,1.04,0.41,2,0.53,2.82c0.05,0.41,0.12,0.79,0.15,1.14
					c0.01,0.35,0.02,0.67,0.04,0.95c0.02,0.55,0.03,0.98,0.04,1.29C141.7,297.87,141.7,298.02,141.69,298.02z"/>
			</g>
			<rect x="98.89" y="294.63" class="st9" width="31.37" height="6.54"/>
		</g>
	</g>
</g>
<g id="Crane">
	<g>
		<g>
			<g>
				<g>
					<g>
						
							<rect x="227.97" y="271.38" transform="matrix(0.9968 -0.0801 0.0801 0.9968 -23.9525 31.0553)" class="st13" width="294.34" height="85.45"/>
						<g>
							<path class="st5" d="M525.26,344.91c-0.1-1.23-2.59-31.48-7.01-85.16l0.18,0.15c-68.1,5.49-174.32,14.06-293.37,23.67
								l-0.02,0l0.24-0.28c2.36,29.4,4.66,58.02,6.84,85.17l-0.27-0.23c84.08-6.71,157.4-12.56,209.71-16.73
								C493.86,347.38,524.03,345.01,525.26,344.91c0,0-0.48,0.05-1.43,0.13c-0.96,0.08-2.38,0.2-4.24,0.36
								c-3.75,0.31-9.28,0.76-16.45,1.35c-14.36,1.17-35.25,2.87-61.39,5c-52.34,4.23-125.72,10.17-209.86,16.98l-0.25,0.02
								l-0.02-0.25c-2.18-27.16-4.49-55.77-6.85-85.17l-0.02-0.26l0.26-0.02l0.02,0c119.05-9.53,225.28-18.03,293.38-23.48
								l0.16-0.01l0.01,0.16C522.79,313.41,525.17,343.68,525.26,344.91z"/>
						</g>
					</g>
					<g>
						<g>
							<g>
								<g>
									
										<rect x="235.1" y="287.67" transform="matrix(0.9975 -0.071 0.071 0.9975 -22.1769 20.7848)" class="st7" width="92.65" height="69.64"/>
								</g>
							</g>
						</g>
						<g>
							<g>
								<g>
									<g>
										<g>
											<path class="st1" d="M440.82,344.88c0.01,0.14-2.66,0.49-5.96,0.76c-0.56-0.47-0.16-0.13-0.28-0.24l0,0l0,0l0-0.01
												l0-0.02l0-0.04l-0.01-0.08l-0.01-0.15l-0.02-0.3c-0.02-0.2-0.03-0.4-0.05-0.59c-0.03-0.38-0.05-0.76-0.08-1.12
												c-0.04-0.66-0.07-1.29-0.1-1.91c-0.04-1.09-0.04-1.76,0.04-1.77c0.07-0.01,0.19,0.66,0.33,1.74
												c0.07,0.61,0.14,1.24,0.22,1.9c0.04,0.37,0.07,0.74,0.11,1.12c0.02,0.2,0.04,0.39,0.05,0.59l0.03,0.3l0.01,0.15
												l0.01,0.08l0,0.04l0,0.02l0,0.01l0,0l0,0c-0.13-0.11,0.28,0.24-0.28-0.24C438.12,344.85,440.81,344.74,440.82,344.88z"/>
										</g>
										<g>
											<path class="st1" d="M467.96,342.59c0.01,0.14-3.02,0.52-6.76,0.83c-3.75,0.32-6.79,0.46-6.81,0.31
												c-0.01-0.14,3.02-0.52,6.76-0.83C464.9,342.58,467.95,342.44,467.96,342.59z"/>
										</g>
										<g>
											<path class="st1" d="M495.1,340.3c0.01,0.14-3.02,0.52-6.76,0.83c-3.75,0.32-6.8,0.46-6.81,0.31
												c-0.01-0.14,3.02-0.52,6.76-0.83C492.04,340.29,495.09,340.15,495.1,340.3z"/>
										</g>
										<g>
											<path class="st1" d="M514.14,332.67c0.14-0.01,0.49,2.66,0.76,5.96c-0.47,0.56-0.13,0.16-0.24,0.28l0,0l0,0l-0.01,0
												l-0.02,0l-0.04,0l-0.08,0.01l-0.15,0.01l-0.3,0.02c-0.2,0.02-0.4,0.03-0.59,0.05c-0.38,0.03-0.76,0.05-1.12,0.08
												c-0.66,0.04-1.29,0.07-1.91,0.1c-1.09,0.04-1.76,0.04-1.77-0.04c-0.01-0.07,0.66-0.19,1.74-0.33
												c0.61-0.07,1.24-0.14,1.9-0.22c0.37-0.04,0.74-0.07,1.12-0.11c0.2-0.02,0.39-0.04,0.59-0.05l0.3-0.03l0.15-0.01
												l0.08-0.01l0.04,0l0.02,0l0.01,0l0,0l0,0c-0.11,0.13,0.24-0.28-0.24,0.28C514.11,335.37,514,332.68,514.14,332.67z"/>
										</g>
										<g>
											<path class="st1" d="M512.25,310.28c0.14-0.01,0.47,2.48,0.73,5.57c0.26,3.09,0.36,5.61,0.21,5.62
												c-0.14,0.01-0.47-2.48-0.73-5.57C512.21,312.81,512.11,310.29,512.25,310.28z"/>
										</g>
										<g>
											<path class="st1" d="M510.36,287.9c0.14-0.01,0.47,2.48,0.73,5.57c0.26,3.09,0.36,5.61,0.21,5.62
												c-0.14,0.01-0.47-2.48-0.73-5.57C510.32,290.42,510.22,287.91,510.36,287.9z"/>
										</g>
										<g>
											<path class="st1" d="M502.93,271.23c-0.01-0.14,2.66-0.49,5.96-0.76c0.56,0.48,0.16,0.13,0.28,0.24l0,0l0,0l0,0.01
												l0,0.02l0,0.04l0.01,0.08l0.01,0.15l0.02,0.3c0.02,0.2,0.03,0.4,0.05,0.59c0.03,0.38,0.05,0.76,0.08,1.12
												c0.04,0.66,0.07,1.29,0.1,1.91c0.04,1.09,0.04,1.76-0.04,1.77c-0.07,0.01-0.19-0.66-0.33-1.74
												c-0.07-0.61-0.14-1.24-0.22-1.9c-0.04-0.37-0.07-0.74-0.11-1.12c-0.02-0.2-0.04-0.39-0.05-0.59l-0.03-0.3l-0.01-0.15
												l-0.01-0.08l0-0.04l0-0.02l0-0.01l0,0l0,0c0.13,0.11-0.28-0.24,0.28,0.24C505.63,271.26,502.95,271.37,502.93,271.23z"/>
										</g>
										<g>
											<path class="st1" d="M475.8,273.52c-0.01-0.14,3.02-0.52,6.76-0.83c3.75-0.32,6.79-0.46,6.81-0.31
												c0.01,0.14-3.02,0.52-6.76,0.83C478.86,273.53,475.81,273.67,475.8,273.52z"/>
										</g>
										<g>
											<path class="st1" d="M448.66,275.81c-0.01-0.14,3.02-0.52,6.76-0.83c3.75-0.32,6.79-0.46,6.81-0.31
												c0.01,0.14-3.02,0.52-6.76,0.83C451.72,275.82,448.67,275.96,448.66,275.81z"/>
										</g>
										<g>
											<path class="st1" d="M429.61,283.44c-0.14,0.01-0.49-2.66-0.76-5.96c0.47-0.56,0.13-0.16,0.24-0.28l0,0l0,0l0.01,0
												l0.02,0l0.04,0l0.08-0.01l0.15-0.01l0.3-0.02c0.2-0.02,0.4-0.03,0.59-0.05c0.38-0.03,0.76-0.05,1.12-0.08
												c0.66-0.04,1.29-0.07,1.91-0.1c1.09-0.04,1.76-0.04,1.77,0.04c0.01,0.07-0.66,0.19-1.74,0.33
												c-0.61,0.07-1.24,0.14-1.9,0.22c-0.37,0.04-0.74,0.07-1.12,0.11c-0.2,0.02-0.39,0.04-0.59,0.05l-0.3,0.03l-0.15,0.01
												l-0.08,0.01l-0.04,0l-0.02,0l-0.01,0l0,0l0,0c0.11-0.13-0.24,0.28,0.24-0.28C429.65,280.74,429.76,283.43,429.61,283.44z
												"/>
										</g>
										<g>
											<path class="st1" d="M431.5,305.83c-0.14,0.01-0.47-2.48-0.73-5.57c-0.26-3.09-0.36-5.61-0.21-5.62
												c0.14-0.01,0.47,2.48,0.73,5.57C431.55,303.3,431.65,305.82,431.5,305.83z"/>
										</g>
										<g>
											<path class="st1" d="M433.39,328.21c-0.14,0.01-0.47-2.48-0.73-5.57c-0.26-3.09-0.36-5.61-0.21-5.62
												c0.14-0.01,0.47,2.48,0.73,5.57C433.44,325.69,433.54,328.2,433.39,328.21z"/>
										</g>
									</g>
								</g>
							</g>
						</g>
						<g>
							<g>
								<g>
									<polygon class="st7" points="237.68,360.51 266.89,315.04 288.81,340.63 301.34,325.22 330.1,353.94 									"/>
								</g>
							</g>
						</g>
						<g>
							<g>
								<g>
									<g>
										<g>
											<path class="st7" d="M295,307.72c0.29,4.02-2.74,7.51-6.76,7.79c-4.02,0.29-7.51-2.74-7.79-6.76
												c-0.29-4.02,2.74-7.51,6.76-7.79C291.22,300.68,294.71,303.7,295,307.72z"/>
										</g>
									</g>
								</g>
							</g>
						</g>
						<g class="st14">
							<g>
								<g>
									<polygon points="237.68,360.51 266.89,315.04 288.81,340.63 301.34,325.22 330.1,353.94 									"/>
								</g>
							</g>
						</g>
						<g class="st14">
							<g>
								<g>
									<g>
										<g>
											<path d="M295,307.72c0.29,4.02-2.74,7.51-6.76,7.79c-4.02,0.29-7.51-2.74-7.79-6.76c-0.29-4.02,2.74-7.51,6.76-7.79
												C291.22,300.68,294.71,303.7,295,307.72z"/>
										</g>
									</g>
								</g>
							</g>
						</g>
					</g>
					<g>
						<g>
							<path class="st5" d="M421.51,296.44c0.01,0.14-17.95,1.92-40.12,3.96c-22.18,2.05-40.16,3.59-40.18,3.45
								c-0.01-0.14,17.95-1.92,40.13-3.97C403.51,297.84,421.5,296.3,421.51,296.44z"/>
						</g>
						<g>
							<path class="st5" d="M423.84,309.8c0.01,0.14-18.15,1.94-40.57,4.01c-22.42,2.07-40.61,3.63-40.62,3.49
								c-0.01-0.14,18.15-1.94,40.57-4.01C405.63,311.22,423.82,309.66,423.84,309.8z"/>
						</g>
						<g>
							<path class="st5" d="M426.16,323.17c0.01,0.14-18.35,1.95-41,4.05c-22.66,2.09-41.04,3.67-41.06,3.53
								c-0.01-0.14,18.34-1.95,41.01-4.05C407.76,324.6,426.15,323.02,426.16,323.17z"/>
						</g>
						<g>
							<path class="st5" d="M426.64,336.41c0.01,0.14-18.37,1.96-41.05,4.05c-22.69,2.09-41.09,3.68-41.1,3.53
								c-0.01-0.14,18.37-1.96,41.06-4.05C408.22,337.85,426.63,336.27,426.64,336.41z"/>
						</g>
						
							<rect x="339.49" y="289.29" transform="matrix(0.9968 -0.0801 0.0801 0.9968 -22.146 29.823)" class="st7" width="42.41" height="3.36"/>
					</g>
				</g>
				<g>
					<g>
						<path class="st1" d="M472.82,318.51c-0.14,0.01-0.69-4.92-1.21-11.02c-0.53-6.1-0.84-11.05-0.7-11.06
							c0.14-0.01,0.69,4.92,1.21,11.02C472.65,313.54,472.96,318.5,472.82,318.51z"/>
					</g>
					<g>
						<path class="st1" d="M482.06,306.94c0.01,0.14-4.74,0.56-10.6,0.93c-5.87,0.37-10.63,0.56-10.64,0.41
							c-0.01-0.14,4.74-0.56,10.6-0.93C477.29,306.98,482.05,306.8,482.06,306.94z"/>
					</g>
				</g>
			</g>
			<g>
				<path class="st5" d="M518.42,259.73c0,0-0.24-0.08-0.7-0.25c-0.47-0.18-1.16-0.44-2.05-0.78c-1.81-0.7-4.46-1.73-7.88-3.06
					c-6.86-2.69-16.77-6.58-29.09-11.41c-24.65-9.71-58.88-23.21-97.28-38.34l0.21-0.01c-3.92,1.95-8.09,4.02-12.31,6.11
					c-39.83,19.73-75.88,37.59-101.99,50.53c-13.05,6.44-23.62,11.65-30.93,15.26c-3.65,1.79-6.48,3.18-8.42,4.12
					c-0.96,0.46-1.69,0.82-2.2,1.06c-0.5,0.24-0.76,0.35-0.76,0.35s0.24-0.14,0.73-0.39c0.5-0.26,1.23-0.63,2.17-1.11
					c1.93-0.97,4.75-2.39,8.38-4.21c7.3-3.64,17.84-8.91,30.86-15.41c26.09-12.97,62.12-30.88,101.92-50.67
					c4.22-2.09,8.39-4.16,12.31-6.11l0.1-0.05l0.11,0.04c38.38,15.2,72.59,28.74,97.22,38.5c12.29,4.89,22.19,8.83,29.03,11.56
					c3.4,1.37,6.04,2.42,7.84,3.15c0.88,0.36,1.56,0.64,2.03,0.83C518.19,259.63,518.42,259.73,518.42,259.73z"/>
			</g>
		</g>
		<g>
			<path class="st5" d="M458.68,120.01c-1.53-3.37-5.5-4.85-8.87-3.32c-1.5,0.68-2.63,1.86-3.28,3.24l-10.45,0.86l10.57,20.83
				l6.62-12.18c0.71-0.07,1.42-0.25,2.1-0.56C458.73,127.35,460.21,123.38,458.68,120.01z"/>
		</g>
		<path class="st5" d="M398.36,89.84l6.82-2.91l-16.45-4.14c-1.02-1.6-2.71-2.75-4.74-3.03c-3.66-0.5-7.04,2.07-7.54,5.74
			c-0.5,3.66,2.07,7.04,5.74,7.54c1.85,0.25,3.62-0.28,4.98-1.33l15.63,9.56L398.36,89.84z"/>
		<g>
			<path class="st5" d="M530.02,294.3l-0.04-0.14L417.11,83.72l-0.64-1.19l-17.79,8.1l85.14,224.39l0.05,0.13l50.69,80.6l1.03-0.15
				l1.17-0.17l0.92-0.14l-10.49-16.67l6.12-15.79l16.23,6.01l7.15,23.65l0.85-0.13l1.08-0.16l0.95-0.14L530.02,294.3z
				 M537.32,328.39l-20.26-5.21l11.75-22.95L537.32,328.39z M515.27,322.73l-24.92-6.4l36.78-16.76L515.27,322.73z M524.68,290.37
				l-25.89-7.15l10.62-21.31L524.68,290.37z M497.02,282.73l-22.79-6.3l33.55-15.28L497.02,282.73z M506.23,255.97l-23.86-8.32
				l8.51-20.3L506.23,255.97z M480.67,247.06l-20.95-7.31l29.68-13.52L480.67,247.06z M487.5,221.06l-21.72-9.38l6.43-19.12
				L487.5,221.06z M464.13,210.96l-18.59-8.03l25.15-11.46L464.13,210.96z M469.1,186.75l-0.12,0.06l-19.53-10.56l4.34-18.05
				L469.1,186.75z M449.87,150.9l-17.04-11.44l2.26-16.11L449.87,150.9z M431.17,138.34l-13.7-9.2l16.01-7.29L431.17,138.34z
				 M416.66,88.98l14.46,26.97l-14.88-12.53L416.66,88.98z M413.9,122.61L403.4,94.95l11.02,9.28L413.9,122.61z M414.49,101.93
				l-11.81-9.95l12.26-5.58L414.49,101.93z M416.18,105.72l14.31,12.05l-14.85,6.76L416.18,105.72z M417.11,131.06l13.79,9.26
				l-2.77,19.78L417.11,131.06z M432.56,141.44l16.57,11.13l-19.36,8.82L432.56,141.44z M452.33,156.55l-4.53,18.82l-16.82-9.09
				L452.33,156.55z M431.31,168.49l16.07,8.68l-4.96,20.6L431.31,168.49z M449.01,178.06l17.91,9.68l-22.74,10.36L449.01,178.06z
				 M445.04,204.68l18.52,8l-7.27,21.63L445.04,204.68z M465.21,213.39l20.75,8.96l-28.07,12.79L465.21,213.39z M458.97,241.4
				l21,7.32l-9.56,22.83L458.97,241.4z M481.68,249.32l22.72,7.92l-32.19,14.66L481.68,249.32z M472.82,277.91l23.38,6.46
				l-11.88,23.85L472.82,277.91z M497.97,284.86l25.41,7.02l-37.4,17.04L497.97,284.86z M488.95,317.83l25.47,6.54l-9.59,18.72
				L488.95,317.83z M516.22,324.83l20.82,5.35l-30.73,14L516.22,324.83z M526,376.73l-13.61-21.64l19.24,7.12L526,376.73z
				 M532.28,360.54l-21.46-7.95l-0.52-0.83l29.96-13.65l0.31,1.04L532.28,360.54z M533.97,361.16l7.45-19.21l7.48,24.74
				L533.97,361.16z"/>
			<g>
				<path class="st5" d="M381.35,183.29c0,0-0.02-0.6-0.03-1.78c-0.01-1.18-0.02-2.93-0.03-5.2c-0.01-4.58-0.03-11.29-0.06-19.9
					c-0.02-17.23-0.05-42.03-0.09-72.31l0-0.19l0.18-0.02c9.86-1.04,20.51-2.16,31.68-3.33l0.12-0.01l0.08,0.09
					c24.1,26.93,52.36,58.52,82.45,92.15c46.87,52.46,89.29,99.94,120,134.32c15.33,17.2,27.74,31.12,36.32,40.74
					c4.28,4.81,7.6,8.55,9.86,11.09c1.12,1.27,1.97,2.23,2.55,2.89c0.57,0.65,0.86,1,0.86,1s-0.31-0.32-0.9-0.96
					c-0.59-0.65-1.46-1.61-2.59-2.86c-2.28-2.53-5.62-6.24-9.93-11.03c-8.61-9.6-21.06-23.48-36.44-40.63
					c-30.74-34.35-73.21-81.8-120.12-134.22c-30.07-33.65-58.32-65.25-82.4-92.2l0.19,0.07c-11.17,1.16-21.82,2.26-31.69,3.29
					l0.18-0.2c-0.04,30.28-0.07,55.07-0.09,72.31c-0.02,8.61-0.04,15.32-0.06,19.9c-0.01,2.28-0.02,4.02-0.03,5.2
					C381.37,182.69,381.35,183.29,381.35,183.29z"/>
			</g>
			<g>
				<path class="st5" d="M383.17,165.89h-4.29c-0.21,0-0.38-0.17-0.38-0.38v-10.08c0-0.21,0.17-0.38,0.38-0.38h4.29
					c0.21,0,0.38,0.17,0.38,0.38v10.08C383.55,165.72,383.38,165.89,383.17,165.89z"/>
				<path class="st5" d="M389.61,167.57h-16.61c-1.02,0-1.85-0.83-1.85-1.85l0,0c0-1.02,0.83-1.85,1.85-1.85h16.61
					c1.02,0,1.85,0.83,1.85,1.85l0,0C391.46,166.74,390.63,167.57,389.61,167.57z"/>
				<path class="st5" d="M382.51,197.29l-0.06-2.37l-2.44,1.04c-0.1,0.87-0.11,1.75-0.04,2.63c0.01,0.14,0.03,0.29,0.1,0.41
					c0.12,0.21,0.37,0.31,0.59,0.41c1.05,0.45,2.02,1.18,2.51,2.2c0.5,1.02,0.58,3.25-1.65,4.04c-1.96,0.7-3.71-1.15-3.73-2
					c-0.01-0.4,0-0.98-0.57-1.04c-0.81-0.08-1.16,1.1-1.14,1.72c0.13,3.59,3.51,4.73,4.94,4.78c0.97,0.03,1.96-0.12,2.79-0.6
					c1.35-0.78,2.36-2.17,2.63-3.71C387.25,200.12,382.26,197.59,382.51,197.29z"/>
				<path class="st1" d="M384.6,196.11l10.62-25.55c0.96-2.31-0.74-4.86-3.24-4.86h-10.62h-10.61c-2.5,0-4.2,2.54-3.24,4.86
					l10.61,25.55C379.32,199,383.41,199,384.6,196.11z"/>
				<g>
					<path class="st7" d="M371.83,167.52l-2.74,2.74c0.03,0.1,0.01,0.21,0.05,0.31l0.9,2.16l5.22-5.21H371.83z"/>
					<polygon class="st7" points="382.08,167.52 378.66,167.52 371.03,175.15 372.04,177.56 					"/>
					<polygon class="st7" points="389.38,180.72 391.8,174.88 377.05,189.63 378.05,192.05 					"/>
					<path class="st7" d="M386.95,186.57l-7.89,7.89l0.27,0.64c0.25,0.6,0.71,1.02,1.28,1.22l3.91-3.91L386.95,186.57z"/>
					<polygon class="st7" points="388.91,167.52 385.5,167.52 373.04,179.97 374.04,182.39 					"/>
					<path class="st7" d="M393.75,169.51c-0.03-0.35-0.16-0.7-0.36-1.01c-0.29-0.44-0.73-0.69-1.21-0.83l-17.13,17.13l1,2.41
						L393.75,169.51z"/>
				</g>
			</g>
			<g>
				<path class="st5" d="M675.25,368.12h-23.11v-8.14c0-1.46,1.18-2.64,2.64-2.64h17.84c1.46,0,2.64,1.18,2.64,2.64V368.12z"/>
				<g>
					<path class="st5" d="M611.73,365.44h-3.79V342.9c0-1,0.16-1.99,0.46-2.94l1.9-5.9c0.04-0.11,0.19-0.13,0.25-0.03l2.24,3.95
						l-0.59,1.83c-0.31,0.97-0.48,1.99-0.48,3.02V365.44z"/>
				</g>
				<path class="st7" d="M705.14,369.54c-1.08-2.6-3.41-4.47-6.19-4.97l-94.81-0.05v-15.79c0-2.12-1.72-3.84-3.84-3.84h-45.8
					c-1.67,0-3.14,1.08-3.65,2.66l-1.37,4.34h5.1c1.19,0,2.31,0.52,3.06,1.42c0.75,0.9,1.05,2.07,0.81,3.21l-4.91,23.24
					c-0.38,1.78-2,3.07-3.86,3.07h-9.73c-0.12,1.48-0.05,2.97,0.27,4.43l0.54,2.32l-25.08,4.93c-0.41,0.08-0.73,0.4-0.82,0.8
					l-2.36,6.34c-0.14,0.25-0.25,0.56-0.34,0.91l-0.01,0.03h0c-0.51,2.1-0.13,5.6,1.13,5.6h26.87l-1.18,1.32l-1.51,4.72h170.73
					C708.21,398.97,707.81,375.95,705.14,369.54z M586.83,355.12l-2.53,22.83c-0.03,0.29-0.08,0.58-0.13,0.86
					c-0.92,4.65-5.24,7.86-9.98,7.85l-11.26-0.01c-2.21,0-3.85-2.04-3.38-4.2l5.3-27.46c0.37-1.78,1.95-3.08,3.77-3.08h15.34
					c0.82,0,1.61,0.35,2.16,0.96C586.66,353.49,586.92,354.31,586.83,355.12z"/>
				<g>
					<path class="st6" d="M628.81,425.64l-72.64,1.02c-0.47,0-1.31-1.4-1.31-1.87v-8.11c0-0.47,0.38-0.86,0.86-0.86h73.1
						c0.47,0,0.86,0.38,0.86,0.86v8.11C629.66,425.26,629.28,425.64,628.81,425.64z"/>
				</g>
				<g>
					<defs>
						<path id="SVGID_1_" d="M586.83,355.12l-2.53,22.83c-0.03,0.29-0.08,0.58-0.13,0.86c-0.92,4.65-5.24,7.86-9.98,7.85
							l-11.26-0.01c-2.21,0-3.85-2.04-3.38-4.2l5.3-27.46c0.37-1.78,1.95-3.08,3.77-3.08h15.34c0.82,0,1.61,0.35,2.16,0.96
							C586.66,353.48,586.92,354.3,586.83,355.12z"/>
					</defs>
					<use xlink:href="#SVGID_1_"  style="overflow:visible;fill:#E8505B;"/>
					<clipPath id="SVGID_2_">
						<use xlink:href="#SVGID_1_"  style="overflow:visible;"/>
					</clipPath>
					<g class="st15">
						<g>
							<path class="st7" d="M708.23,416.24c0.04-0.7-0.04-1.5-0.23-1.83H537.69c-0.2,0.33-0.28,1.13-0.24,1.83H708.23z"/>
							<g>
								<defs>
									<path id="SVGID_3_" d="M550.85,347.56l-10.25,31.85c-0.82,2.54-0.95,5.25-0.39,7.87l4.39,20.36h27.79h31.76v-58.9
										c0-2.12-1.72-3.84-3.84-3.84h-45.8C552.84,344.9,551.36,345.98,550.85,347.56z"/>
								</defs>
								<use xlink:href="#SVGID_3_"  style="overflow:visible;fill:#E8505B;"/>
								<clipPath id="SVGID_4_">
									<use xlink:href="#SVGID_3_"  style="overflow:visible;"/>
								</clipPath>
							</g>
						</g>
					</g>
				</g>
				<path class="st6" d="M562.94,386.65c-2.21,0-3.85-2.04-3.38-4.2l5.3-27.46c0.37-1.78,1.95-3.08,3.77-3.08h15.34
					c0.82,0,1.61,0.35,2.16,0.96c0.55,0.61,0.81,1.43,0.72,2.25l-2.53,22.83c-0.03,0.29-0.08,0.58-0.13,0.86
					c-0.92,4.65-5.24,7.86-9.98,7.85L562.94,386.65z"/>
				<path class="st6" d="M539.94,382.9c0.1-1.12,0.32-2.23,0.67-3.29l8.9-27.65h5.09c1.19,0,2.31,0.52,3.06,1.42
					c0.75,0.9,1.05,2.07,0.81,3.21l-4.91,23.24c-0.38,1.78-2,3.07-3.86,3.07H539.94z"/>
				<path class="st5" d="M708.31,418.77H537.67c-1.3,0-1.3-4.73,0-4.73h170.64C709.62,414.05,709.62,418.77,708.31,418.77z"/>
				<g>
					<path class="st5" d="M604.3,365.74c0.01,0,0.01,0.09,0.02,0.25c0,0.2,0,0.44,0,0.74c-0.01,0.69-0.04,1.64-0.06,2.84
						c-0.08,2.51-0.19,6.07-0.32,10.45c-0.15,4.43-0.34,9.68-0.54,15.5c-0.05,1.46-0.11,2.95-0.17,4.48c-0.08,1.52-0.19,3.17-1,4.64
						c-0.79,1.49-2.32,2.49-3.93,2.95c-1.62,0.48-3.32,0.58-5.01,0.59c-13.46-0.25-25.64-0.48-34.5-0.65
						c-4.38-0.11-7.94-0.2-10.45-0.26c-1.2-0.04-2.15-0.07-2.84-0.1c-0.3-0.02-0.54-0.03-0.74-0.04c-0.17-0.01-0.25-0.02-0.25-0.03
						c0-0.01,0.09-0.02,0.25-0.02c0.2,0,0.44-0.01,0.74-0.01c0.69,0,1.64,0,2.84,0c2.51,0.02,6.07,0.05,10.46,0.09
						c8.87,0.13,21.04,0.3,34.5,0.5c1.67-0.01,3.33-0.11,4.86-0.57c1.53-0.44,2.91-1.35,3.63-2.7c0.74-1.34,0.88-2.91,0.95-4.42
						c0.06-1.53,0.12-3.02,0.18-4.48c0.25-5.82,0.47-11.07,0.65-15.5c0.2-4.38,0.37-7.94,0.49-10.45c0.07-1.2,0.12-2.15,0.16-2.84
						c0.02-0.3,0.04-0.54,0.05-0.74C604.27,365.83,604.29,365.74,604.3,365.74z"/>
				</g>
				<g>
					<path class="st5" d="M555.67,407.88c-0.14,0-0.26-5-0.26-11.17c0-6.17,0.12-11.17,0.26-11.17c0.14,0,0.26,5,0.26,11.17
						C555.93,402.88,555.81,407.88,555.67,407.88z"/>
				</g>
				<g>
					<path class="st5" d="M564.6,345.09c0.04,0.01-0.03,0.58-0.19,1.61c-0.15,1.03-0.4,2.53-0.72,4.37
						c-0.65,3.68-1.64,8.75-2.89,14.31c-1.25,5.57-2.51,10.57-3.49,14.18c-0.49,1.8-0.9,3.26-1.21,4.26c-0.3,1-0.49,1.55-0.52,1.54
						c-0.03-0.01,0.08-0.58,0.32-1.59c0.27-1.1,0.62-2.55,1.05-4.3c0.89-3.63,2.1-8.64,3.34-14.2c1.24-5.56,2.29-10.61,3.03-14.27
						c0.36-1.76,0.66-3.22,0.89-4.33C564.42,345.64,564.56,345.08,564.6,345.09z"/>
				</g>
				<g>
					<path class="st7" d="M584.35,395.74c-0.01-0.05,0.4-0.01,0.93-0.38c0.25-0.19,0.52-0.49,0.64-0.92c0.1-0.42,0.1-0.99-0.18-1.44
						c-0.27-0.47-0.83-0.82-1.48-0.78c-0.72,0.01-1.47,0.02-2.26,0.02c-1.61,0.01-3.36,0.01-5.19,0.02c-0.8-0.02-1.5,0.67-1.53,1.42
						c-0.11,0.8,0.36,1.51,1.02,1.74c0.16,0.06,0.33,0.09,0.5,0.09c0.19,0,0.39,0,0.57,0.01c0.38,0,0.74,0.01,1.1,0.01
						c0.7,0.01,1.36,0.02,1.97,0.03c1.21,0.02,2.18,0.05,2.86,0.08C583.98,395.67,584.35,395.7,584.35,395.74
						c0,0.04-0.37,0.07-1.05,0.1c-0.67,0.03-1.65,0.06-2.86,0.08c-0.62,0.01-1.27,0.02-1.97,0.03c-0.36,0-0.72,0.01-1.1,0.01
						c-0.19,0-0.38,0-0.58,0.01c-0.22,0-0.44-0.04-0.66-0.11c-0.88-0.26-1.51-1.27-1.37-2.22c0.03-1,0.96-1.93,2.04-1.91
						c1.83,0.01,3.58,0.01,5.19,0.02c0.79,0.01,1.55,0.02,2.26,0.02c0.78-0.03,1.5,0.44,1.8,1.03c0.16,0.29,0.23,0.61,0.24,0.9
						c0.01,0.27-0.01,0.57-0.1,0.81c-0.17,0.5-0.5,0.82-0.8,1.01c-0.31,0.18-0.59,0.23-0.77,0.24
						C584.44,395.78,584.35,395.75,584.35,395.74z"/>
				</g>
				<g>
					<g>
						<path class="st5" d="M697.09,371.2c0,0.14-6.97,0.26-15.58,0.26c-8.6,0-15.58-0.12-15.58-0.26s6.97-0.26,15.58-0.26
							C690.11,370.94,697.09,371.06,697.09,371.2z"/>
					</g>
					<g>
						<path class="st5" d="M697.09,374.3c0,0.14-6.97,0.26-15.58,0.26c-8.6,0-15.58-0.12-15.58-0.26c0-0.14,6.97-0.26,15.58-0.26
							C690.11,374.04,697.09,374.16,697.09,374.3z"/>
					</g>
					<g>
						<path class="st5" d="M697.09,377.41c0,0.14-6.97,0.26-15.58,0.26c-8.6,0-15.58-0.12-15.58-0.26c0-0.14,6.97-0.26,15.58-0.26
							C690.11,377.15,697.09,377.26,697.09,377.41z"/>
					</g>
					<g>
						<path class="st5" d="M697.09,380.51c0,0.14-6.97,0.26-15.58,0.26c-8.6,0-15.58-0.12-15.58-0.26c0-0.14,6.97-0.26,15.58-0.26
							C690.11,380.25,697.09,380.36,697.09,380.51z"/>
					</g>
					<g>
						<path class="st5" d="M697.09,383.61c0,0.14-6.97,0.26-15.58,0.26c-8.6,0-15.58-0.12-15.58-0.26s6.97-0.26,15.58-0.26
							C690.11,383.35,697.09,383.46,697.09,383.61z"/>
					</g>
					<g>
						<path class="st5" d="M697.09,386.71c0,0.14-6.97,0.26-15.58,0.26c-8.6,0-15.58-0.12-15.58-0.26s6.97-0.26,15.58-0.26
							C690.11,386.45,697.09,386.56,697.09,386.71z"/>
					</g>
					<g>
						<path class="st5" d="M697.09,389.81c0,0.14-6.97,0.26-15.58,0.26c-8.6,0-15.58-0.12-15.58-0.26c0-0.14,6.97-0.26,15.58-0.26
							C690.11,389.55,697.09,389.66,697.09,389.81z"/>
					</g>
				</g>
				<path class="st5" d="M520.2,463.46c-9.35,0-17.22-9.02-17.22-18.37c0-9.35,8.23-17.24,17.58-17.24l150.62-6.81
					c7.78-0.35,15.26,3.64,18.89,10.53c1.92,3.63,2.92,8.25,1.68,13.96c-3.94,18.2-19.11,17.97-24.99,17.58
					C660.89,462.71,520.2,463.46,520.2,463.46z"/>
				<circle class="st6" cx="520.2" cy="444.97" r="14.07"/>
				<circle class="st6" cx="670.24" cy="442.11" r="18.2"/>
				<g>
					<path class="st6" d="M672.27,424.49c0,0.01-0.13,0.03-0.39,0.06c-0.28,0.03-0.66,0.07-1.15,0.13c-1.04,0.1-2.53,0.25-4.43,0.44
						c-3.84,0.38-9.41,0.88-16.29,1.44c-13.77,1.13-32.8,2.44-53.86,3.37c-21.06,0.92-40.14,1.29-53.96,1.38
						c-6.91,0.04-12.49,0.04-16.36,0c-1.91-0.02-3.4-0.04-4.45-0.05c-0.49-0.01-0.87-0.02-1.16-0.03c-0.26-0.01-0.39-0.02-0.39-0.03
						s0.13-0.02,0.39-0.03c0.29-0.01,0.67-0.01,1.16-0.02c1.05-0.01,2.54-0.03,4.45-0.04c3.89-0.04,9.47-0.09,16.35-0.16
						c13.81-0.18,32.88-0.6,53.94-1.53c21.05-0.93,40.08-2.18,53.85-3.22c6.86-0.54,12.43-0.97,16.3-1.28
						c1.9-0.15,3.39-0.27,4.43-0.35c0.49-0.03,0.87-0.06,1.15-0.08C672.14,424.48,672.27,424.48,672.27,424.49z"/>
				</g>
				<g>
					<path class="st6" d="M666.48,458.59c0,0.14-32.75,0.26-73.15,0.26c-40.41,0-73.16-0.12-73.16-0.26
						c0-0.14,32.75-0.26,73.16-0.26C633.73,458.33,666.48,458.44,666.48,458.59z"/>
				</g>
				<g>
					<path class="st7" d="M545.29,407.39c-0.08,0.02-0.42-1.35-1.04-3.54c-0.61-2.19-1.5-5.21-2.4-8.57
						c-0.91-3.36-1.59-6.45-1.88-8.73c-0.14-1.14-0.17-2.07-0.16-2.71c0.05-0.64,0.09-0.99,0.13-0.99c0.09,0.01,0,1.41,0.4,3.65
						c0.38,2.24,1.11,5.29,2.02,8.65c0.9,3.36,1.74,6.39,2.26,8.62c0.26,1.11,0.46,2.01,0.56,2.65
						C545.28,407.03,545.33,407.38,545.29,407.39z"/>
				</g>
				<g>
					<path class="st9" d="M660.22,453.35c-0.02,0.02-0.4-0.2-1.04-0.69c-0.64-0.49-1.49-1.31-2.35-2.47
						c-0.86-1.16-1.68-2.71-2.19-4.56c-0.52-1.85-0.69-4.01-0.28-6.2c0.44-2.19,1.41-4.12,2.58-5.64c1.17-1.52,2.51-2.65,3.74-3.41
						c1.23-0.76,2.33-1.2,3.1-1.41c0.77-0.22,1.22-0.27,1.22-0.25c0.04,0.12-1.76,0.4-4.13,1.97c-1.18,0.78-2.45,1.9-3.56,3.39
						c-1.11,1.48-2.03,3.36-2.45,5.45c-0.39,2.1-0.25,4.18,0.23,5.97c0.47,1.8,1.23,3.32,2.03,4.48
						C658.73,452.32,660.3,453.26,660.22,453.35z"/>
				</g>
				<g>
					<g>
						<path class="st13" d="M581.16,367.84c0.08,0.12-3.42,2.79-7.82,5.98c-4.4,3.19-8.04,5.67-8.12,5.56
							c-0.08-0.12,3.41-2.79,7.82-5.98C577.44,370.21,581.07,367.72,581.16,367.84z"/>
					</g>
					<g>
						<path class="st13" d="M582.36,363.59c0.08,0.12-2.97,2.39-6.81,5.08c-3.84,2.69-7.03,4.77-7.11,4.65
							c-0.08-0.12,2.97-2.39,6.81-5.08C579.09,365.56,582.28,363.47,582.36,363.59z"/>
					</g>
					<g>
						<path class="st13" d="M553.03,370.15c0.08,0.12-1.47,1.34-3.46,2.73c-1.99,1.39-3.68,2.42-3.76,2.3
							c-0.08-0.12,1.47-1.34,3.46-2.73C551.27,371.06,552.95,370.03,553.03,370.15z"/>
					</g>
					<g>
						<path class="st13" d="M555.05,366.17c0.09,0.11-1.68,1.63-3.95,3.39c-2.27,1.76-4.18,3.09-4.27,2.98
							c-0.09-0.11,1.68-1.63,3.95-3.39C553.05,367.39,554.96,366.06,555.05,366.17z"/>
					</g>
					<g>
						<path class="st7" d="M586.45,390.5c0,0.14-2.5,0.26-5.59,0.26c-3.09,0-5.59-0.12-5.59-0.26s2.5-0.26,5.59-0.26
							C583.94,390.24,586.45,390.35,586.45,390.5z"/>
					</g>
				</g>
				<g>
					<path class="st9" d="M517.4,456.91c-0.01,0.03-0.45-0.03-1.23-0.26c-0.78-0.23-1.87-0.7-3.07-1.51
						c-1.21-0.81-2.49-2.02-3.55-3.64c-1.06-1.61-1.86-3.65-2.04-5.89c-0.14-2.24,0.36-4.38,1.19-6.12c0.83-1.75,1.93-3.13,3.01-4.1
						c1.08-0.98,2.1-1.59,2.83-1.93c0.74-0.34,1.17-0.46,1.18-0.43c0.06,0.11-1.71,0.64-3.76,2.63c-1.02,0.98-2.05,2.34-2.83,4.04
						c-0.78,1.69-1.24,3.74-1.11,5.88c0.17,2.14,0.92,4.1,1.92,5.66c1,1.57,2.22,2.77,3.36,3.6
						C515.62,456.51,517.45,456.79,517.4,456.91z"/>
				</g>
				<g>
					<path class="st13" d="M538.74,401.4c0,0.14-5.42,0.26-12.12,0.26c-6.69,0-12.12-0.12-12.12-0.26s5.42-0.26,12.12-0.26
						C533.32,401.14,538.74,401.26,538.74,401.4z"/>
				</g>
			</g>
		</g>
		<path class="st7" d="M429.52,105.1l-9.12-19.59c-2.82-6.06-10.02-8.68-16.08-5.86h0c-6.06,2.82-8.68,10.02-5.86,16.08l9.12,19.59
			c0.17,0.37,0.61,0.52,0.97,0.35l20.61-9.6C429.53,105.9,429.69,105.46,429.52,105.1z"/>
	</g>
</g>
<g id="Fence">
	<g>
		<g>
			<g>
				<g>
					<rect x="74.76" y="368.59" class="st1" width="5.14" height="94.49"/>
				</g>
				<path class="st7" d="M82.53,365.35c0,2.86-2.32,5.18-5.18,5.18s-5.18-2.32-5.18-5.18c0-2.86,2.32-5.18,5.18-5.18
					S82.53,362.49,82.53,365.35z"/>
			</g>
			<g>
				<g>
					<rect x="176.9" y="368.59" class="st1" width="5.14" height="94.49"/>
				</g>
				<path class="st7" d="M184.67,365.35c0,2.86-2.32,5.18-5.18,5.18c-2.86,0-5.18-2.32-5.18-5.18c0-2.86,2.32-5.18,5.18-5.18
					C182.35,360.17,184.67,362.49,184.67,365.35z"/>
			</g>
			<g>
				<rect x="60.09" y="377.71" class="st7" width="131.69" height="23.56"/>
				<polygon class="st0" points="74.99,377.71 74.76,378.1 61.23,401.27 60.09,401.27 60.09,377.71 				"/>
				<polygon class="st0" points="108.28,377.71 94.5,401.27 76.51,401.27 81.98,391.91 90.28,377.71 				"/>
				<polygon class="st0" points="141.55,377.71 127.77,401.27 109.78,401.27 123.55,377.71 				"/>
				<polygon class="st0" points="174.82,377.71 161.04,401.27 143.05,401.27 156.82,377.71 				"/>
				<polygon class="st0" points="191.78,377.71 191.78,401.27 176.32,401.27 190.1,377.71 				"/>
			</g>
			<g>
				<rect x="60.09" y="414.1" class="st7" width="131.69" height="23.56"/>
				<polygon class="st0" points="74.99,414.1 74.76,414.49 61.23,437.67 60.09,437.67 60.09,414.1 				"/>
				<polygon class="st0" points="108.28,414.1 94.5,437.67 76.51,437.67 81.98,428.31 90.28,414.1 				"/>
				<polygon class="st0" points="141.55,414.1 127.77,437.67 109.78,437.67 123.55,414.1 				"/>
				<polygon class="st0" points="174.82,414.11 161.04,437.67 143.05,437.67 156.82,414.11 				"/>
				<polygon class="st0" points="191.78,414.11 191.78,437.67 176.32,437.67 190.1,414.11 				"/>
			</g>
		</g>
		<g>
			<path class="st5" d="M191.78,401.27c0,0-0.01-0.14-0.01-0.41c0-0.28-0.01-0.67-0.01-1.18c-0.01-1.05-0.02-2.58-0.03-4.58
				c-0.02-4.01-0.04-9.88-0.08-17.4l0.14,0.14c-27,0.03-75.9,0.07-131.68,0.12h-0.01l0.26-0.26c0,8.07,0,16,0,23.56l-0.26-0.26
				c37.29,0.05,70.17,0.09,93.75,0.11c11.8,0.03,21.26,0.06,27.8,0.07c3.26,0.02,5.78,0.03,7.51,0.03c0.85,0.01,1.5,0.01,1.95,0.02
				C191.54,401.26,191.78,401.27,191.78,401.27s-0.21,0.01-0.64,0.02c-0.45,0-1.09,0.01-1.92,0.02c-1.71,0.01-4.22,0.02-7.45,0.03
				c-6.52,0.02-15.97,0.04-27.74,0.07c-23.62,0.03-56.57,0.07-93.93,0.11l-0.26,0l0-0.26c0-7.56,0-15.49,0-23.56v-0.26h0.26h0.01
				c55.78,0.05,104.68,0.1,131.68,0.12l0.14,0l0,0.14c-0.03,7.55-0.06,13.45-0.08,17.48c-0.01,1.99-0.03,3.51-0.03,4.55
				c-0.01,0.5-0.01,0.88-0.01,1.15C191.78,401.14,191.78,401.27,191.78,401.27z"/>
		</g>
		<g>
			<path class="st5" d="M191.78,437.67c0,0-0.01-0.14-0.01-0.41c0-0.28-0.01-0.67-0.01-1.18c-0.01-1.05-0.02-2.58-0.03-4.58
				c-0.02-4.01-0.04-9.88-0.08-17.4l0.14,0.14c-27,0.03-75.9,0.07-131.68,0.12h-0.01l0.26-0.26c0,8.07,0,16,0,23.56l-0.26-0.26
				c37.29,0.05,70.17,0.08,93.75,0.11c11.8,0.03,21.26,0.06,27.8,0.07c3.26,0.02,5.78,0.03,7.51,0.03c0.85,0.01,1.5,0.01,1.95,0.02
				C191.54,437.65,191.78,437.67,191.78,437.67s-0.21,0.01-0.64,0.02c-0.45,0-1.09,0.01-1.92,0.02c-1.71,0.01-4.22,0.02-7.45,0.03
				c-6.52,0.02-15.97,0.04-27.74,0.07c-23.62,0.03-56.57,0.07-93.93,0.11l-0.26,0l0-0.26c0-7.56,0-15.49,0-23.56v-0.26h0.26h0.01
				c55.78,0.05,104.68,0.1,131.68,0.12l0.14,0l0,0.14c-0.03,7.55-0.06,13.45-0.08,17.48c-0.01,1.99-0.03,3.51-0.03,4.55
				c-0.01,0.5-0.01,0.88-0.01,1.15C191.78,437.54,191.78,437.67,191.78,437.67z"/>
		</g>
	</g>
</g>
<g id="Floor">
	<g>
		<path class="st5" d="M701.78,463.46c0,0.14-145.42,0.26-324.76,0.26c-179.4,0-324.79-0.12-324.79-0.26s145.39-0.26,324.79-0.26
			C556.36,463.2,701.78,463.31,701.78,463.46z"/>
	</g>
</g>
</svg>
